<?xml version="1.0" standalone="no"?>
<!DOCTYPE svg PUBLIC "-//W3C//DTD SVG 20010904//EN"
 "http://www.w3.org/TR/2001/REC-SVG-20010904/DTD/svg10.dtd">
<svg version="1.0" xmlns="http://www.w3.org/2000/svg"
 width="300.000000pt" height="204.000000pt" viewBox="0 0 300.000000 204.000000"
 preserveAspectRatio="xMidYMid meet">
<metadata>
Created by potrace 1.10, written by Peter Selinger 2001-2011
</metadata>
<g transform="translate(0.000000,204.000000) scale(0.100000,-0.100000)"
fill="#ddb859" stroke="none">
<path d="M215 1934 c-112 -17 -216 -44 -210 -54 3 -4 26 -2 52 6 99 30 234 45
391 43 243 -2 442 -32 865 -131 l177 -42 0 -863 c0 -569 3 -863 10 -863 7 0
10 293 10 860 0 473 2 860 4 860 2 0 51 -11 108 -24 306 -72 493 -96 723 -92
167 3 203 7 295 31 142 36 350 135 350 165 0 5 -17 -2 -37 -16 -257 -176 -625
-212 -1143 -113 -58 11 -247 54 -420 94 -518 121 -666 145 -915 150 -109 2
-202 -2 -260 -11z"/>
</g>
</svg>
