<svg version="1.1" xmlns="http://www.w3.org/2000/svg" xmlns:xlink="http://www.w3.org/1999/xlink" width="925" height="534" viewBox="0 0 925 534"><path id="Arrière-plan" d="M-0.000,352.000 C-0.000,349.667 -0.000,347.333 -0.000,345.000 C15.382,345.061 32.866,343.849 44.000,349.000 C63.641,358.086 84.310,386.582 91.000,409.000 C98.464,434.014 89.500,479.799 112.000,489.000 C114.149,490.834 120.110,492.008 122.000,491.000 C127.525,490.119 130.581,485.970 131.000,480.000 C134.357,475.771 135.974,444.056 132.000,439.000 C127.068,435.482 120.105,435.185 115.000,432.000 C106.031,426.405 97.229,414.189 93.000,404.000 C86.459,388.240 86.999,366.889 87.000,345.000 C87.000,337.334 87.000,329.666 87.000,322.000 C80.571,292.580 82.792,262.062 75.000,234.000 C72.368,224.523 68.915,215.200 62.000,210.000 C58.168,207.118 53.539,205.043 51.000,201.000 C46.656,194.083 46.927,180.647 45.000,172.000 C44.667,164.667 44.333,157.333 44.000,150.000 C40.910,135.654 42.001,117.020 42.000,100.000 C41.999,91.258 39.875,77.314 43.000,73.000 C44.295,72.123 45.467,72.106 48.000,72.000 C49.021,72.804 48.274,72.355 50.000,73.000 C50.864,81.576 54.041,89.296 56.000,97.000 C60.773,115.773 62.080,135.216 66.000,153.000 C66.333,153.000 66.667,153.000 67.000,153.000 C67.000,151.667 67.000,150.333 67.000,149.000 C64.578,145.084 67.159,137.429 66.000,132.000 C62.187,114.143 62.944,92.523 63.000,73.000 C65.464,71.467 65.276,70.709 69.000,70.000 C70.021,70.804 69.274,70.355 71.000,71.000 C74.690,87.469 79.416,106.698 84.000,123.000 C86.264,131.052 85.399,141.231 90.000,147.000 C90.000,146.000 90.000,145.000 90.000,144.000 C87.762,140.462 89.140,134.734 88.000,130.000 C84.974,117.431 78.811,80.926 84.000,69.000 C85.754,69.631 84.971,69.193 86.000,70.000 C93.859,73.453 93.328,84.080 96.000,93.000 C99.922,106.092 102.700,122.119 106.000,136.000 C107.000,145.999 108.000,156.001 109.000,166.000 C111.114,175.045 112.663,190.396 108.000,198.000 C103.380,205.535 93.480,210.142 97.000,226.000 C100.000,247.998 103.000,270.002 106.000,292.000 C118.146,338.685 129.014,386.075 140.000,432.000 C141.460,432.854 142.867,433.812 144.000,435.000 C185.694,435.876 227.416,408.012 215.000,360.000 C210.259,341.667 202.617,325.818 197.000,309.000 C186.405,277.278 181.006,220.951 191.000,184.000 C216.283,90.516 274.228,30.920 369.000,7.000 C403.290,-1.655 458.702,-3.218 493.000,8.000 C516.205,15.590 542.708,26.175 562.000,39.000 C597.318,62.479 634.158,102.356 652.000,143.000 C658.820,158.536 663.418,174.277 668.000,192.000 C676.200,223.715 672.499,270.492 664.000,298.000 C640.470,374.162 594.047,427.512 524.000,457.000 C492.295,470.347 424.206,479.173 383.000,468.000 C351.649,459.499 327.971,446.532 305.000,430.000 C301.667,426.667 298.333,423.333 295.000,420.000 C286.038,413.227 275.157,404.405 269.000,395.000 C268.667,395.000 268.333,395.000 268.000,395.000 C268.000,395.667 268.000,396.333 268.000,397.000 C262.829,405.557 271.934,416.748 275.000,421.000 C289.389,440.958 307.726,453.850 329.000,467.000 C366.152,489.965 413.274,501.152 462.000,513.000 C473.234,515.732 482.916,513.439 495.000,516.000 C523.862,522.117 574.237,518.844 600.000,513.000 C606.999,512.333 614.001,511.667 621.000,511.000 C631.843,508.242 644.527,505.151 655.000,502.000 C661.317,500.099 668.415,500.554 673.000,497.000 C673.877,495.705 673.894,494.533 674.000,492.000 C665.132,482.433 666.752,452.037 671.000,438.000 C683.052,398.171 711.637,375.238 733.000,345.000 C740.666,334.149 748.500,323.816 752.000,309.000 C754.448,298.638 749.744,288.802 748.000,282.000 C745.238,271.226 742.107,243.365 745.000,232.000 C759.520,174.962 796.855,133.621 838.000,103.000 C854.454,90.755 867.686,72.155 896.000,72.000 C896.667,72.667 897.333,73.333 898.000,74.000 C897.369,75.754 897.807,74.971 897.000,76.000 C895.688,81.472 892.270,84.700 890.000,89.000 C882.497,103.211 876.020,116.872 868.000,130.000 C862.995,138.192 860.935,146.583 856.000,155.000 C842.145,178.631 829.780,204.497 817.000,229.000 C791.432,278.022 770.480,330.497 749.000,383.000 C737.994,409.902 732.499,438.081 721.000,465.000 C716.842,474.734 707.269,487.087 699.000,493.000 C694.448,496.254 688.654,495.652 687.000,502.000 C698.141,509.599 704.896,518.128 720.000,523.000 C741.074,529.797 776.195,527.956 796.000,522.000 C831.284,511.388 859.586,498.641 893.000,486.000 C903.063,482.193 913.589,476.771 925.000,474.000 C925.000,476.666 925.000,479.334 925.000,482.000 C909.676,485.077 895.167,492.487 882.000,498.000 C855.711,509.006 832.381,517.881 804.000,527.000 C791.880,530.894 761.887,538.381 743.000,534.000 C725.577,529.959 709.847,528.142 697.000,520.000 C690.103,515.629 682.857,503.657 674.000,503.000 C663.646,512.493 636.423,512.860 620.000,517.000 C567.434,530.251 486.044,527.519 436.000,514.000 C426.603,511.462 418.889,511.918 410.000,509.000 C378.500,498.660 348.107,487.036 321.000,472.000 C312.300,467.174 304.778,458.843 297.000,453.000 C289.517,447.379 280.587,441.409 275.000,434.000 C269.490,426.693 262.680,418.770 260.000,409.000 C257.550,400.069 264.380,393.234 262.000,386.000 C259.791,379.285 246.361,365.128 242.000,358.000 C231.158,340.279 222.753,317.785 216.000,297.000 C212.241,285.431 213.843,275.081 211.000,262.000 C196.182,193.807 231.443,132.666 259.000,96.000 C299.873,41.616 406.868,3.796 499.000,35.000 C562.928,56.652 612.075,104.024 637.000,165.000 C639.548,171.232 639.077,177.076 641.000,184.000 C649.360,214.092 651.039,261.139 642.000,293.000 C621.255,366.127 579.149,413.973 508.000,437.000 C493.531,441.683 459.007,449.009 441.000,445.000 C436.000,445.000 431.000,445.000 426.000,445.000 C412.668,442.000 399.332,439.000 386.000,436.000 C363.273,428.523 344.633,416.678 327.000,404.000 C312.368,393.479 298.067,376.277 273.000,388.000 C279.112,398.124 289.650,406.978 299.000,414.000 C310.317,422.499 320.732,433.271 333.000,441.000 C347.970,450.431 368.737,456.818 387.000,462.000 C434.914,475.595 509.401,458.410 541.000,442.000 C603.582,409.500 640.908,353.426 662.000,279.000 C669.018,254.237 665.400,209.914 659.000,189.000 C654.342,173.778 652.012,159.789 646.000,146.000 C630.241,109.857 595.501,69.689 564.000,49.000 C540.949,33.861 514.827,23.355 486.000,14.000 C449.481,2.148 392.926,6.134 360.000,17.000 C280.164,43.347 225.051,90.486 201.000,172.000 C198.447,180.652 197.989,189.277 196.000,197.000 C193.626,206.218 196.181,214.947 194.000,225.000 C191.801,235.138 192.849,250.801 195.000,260.000 C198.456,274.780 197.683,286.807 202.000,300.000 C208.069,318.547 216.722,336.560 222.000,356.000 C232.170,393.458 209.819,422.489 187.000,434.000 C174.734,440.187 160.282,441.115 142.000,441.000 C141.076,443.667 140.949,447.931 141.000,452.000 C143.558,455.796 141.176,462.651 141.000,467.000 C140.338,483.345 134.490,499.720 118.000,500.000 C115.000,499.000 112.000,498.000 109.000,497.000 C104.178,494.045 98.950,486.779 96.000,482.000 C84.367,463.157 90.622,431.640 83.000,408.000 C75.262,383.999 55.427,358.966 31.000,352.000 C21.622,349.326 11.079,351.900 -0.000,352.000 zM428.000,32.000 C421.723,35.701 409.096,31.180 401.000,33.000 C388.524,35.805 374.577,35.843 363.000,40.000 C299.410,62.836 255.410,99.301 230.000,160.000 C205.107,219.464 219.235,293.444 244.000,341.000 C247.885,348.460 260.518,374.592 266.000,378.000 C272.410,381.985 284.583,372.143 296.000,375.000 C303.516,376.881 311.907,380.959 318.000,385.000 C329.103,392.364 338.559,402.911 350.000,410.000 C364.397,418.921 383.764,426.072 401.000,431.000 C409.615,433.463 416.958,431.962 426.000,434.000 C436.269,436.314 453.801,439.951 467.000,437.000 C485.415,432.883 505.017,431.706 521.000,425.000 C570.058,404.418 604.275,366.914 625.000,318.000 C642.996,275.526 644.793,207.229 627.000,164.000 C598.387,94.484 525.046,32.406 428.000,32.000 zM885.000,80.000 C880.652,85.534 872.851,87.903 867.000,92.000 C858.593,97.887 850.438,104.758 842.000,111.000 C813.473,132.103 772.753,174.883 758.000,209.000 C748.179,231.711 757.104,251.015 762.000,272.000 C766.752,292.371 759.168,315.833 753.000,330.000 C747.845,341.840 738.131,351.092 731.000,361.000 C714.345,384.142 687.559,417.967 680.000,448.000 C676.575,461.607 681.178,475.578 682.000,488.000 C683.000,489.000 684.000,490.000 685.000,491.000 C686.754,490.369 685.971,490.807 687.000,490.000 C697.355,485.978 701.989,472.624 707.000,463.000 C716.426,444.896 726.460,424.964 734.000,405.000 C736.089,399.468 735.793,395.370 738.000,390.000 C752.351,355.089 768.199,319.941 783.000,286.000 C791.890,265.613 798.154,245.730 808.000,226.000 C817.658,206.647 829.759,187.753 840.000,169.000 C851.423,148.081 860.553,126.510 873.000,106.000 C876.252,100.641 887.443,86.343 885.000,80.000 zM68.000,83.000 C67.845,110.405 72.240,134.364 72.000,160.000 C69.582,161.302 69.167,161.801 65.000,162.000 C63.336,159.799 62.164,159.974 61.000,157.000 C57.963,152.785 59.505,147.230 58.000,141.000 C55.507,130.678 53.470,118.057 51.000,108.000 C49.064,100.117 51.066,90.657 47.000,85.000 C46.682,105.627 46.074,127.942 50.000,146.000 C50.333,156.999 50.667,168.001 51.000,179.000 C52.327,184.722 53.855,192.655 57.000,197.000 C59.970,201.103 65.933,203.735 69.000,208.000 C74.369,215.465 78.955,225.730 82.000,235.000 C92.213,266.097 86.716,305.355 94.000,339.000 C93.667,345.333 93.333,351.667 93.000,358.000 C94.109,371.187 95.261,385.702 99.000,396.000 C104.649,411.561 112.049,430.563 132.000,431.000 C132.000,430.333 132.000,429.667 132.000,429.000 C128.535,423.523 129.067,415.732 127.000,409.000 C121.776,391.987 119.291,373.853 114.000,355.000 C107.626,332.288 104.915,304.685 99.000,281.000 C96.797,272.177 98.130,265.014 96.000,256.000 C94.019,247.618 89.091,222.456 92.000,212.000 C93.948,205.000 100.065,200.544 102.000,193.000 C104.338,183.886 101.604,170.180 100.000,163.000 C99.333,152.334 98.667,141.666 98.000,131.000 C95.000,115.335 92.000,99.665 89.000,84.000 C88.667,84.000 88.333,84.000 88.000,84.000 C88.000,85.000 88.000,86.000 88.000,87.000 C91.383,92.247 89.412,101.050 91.000,108.000 C94.122,121.663 98.041,144.252 92.000,158.000 C91.333,158.000 90.667,158.000 90.000,158.000 C89.667,157.333 89.333,156.667 89.000,156.000 C82.680,147.346 77.726,115.249 74.000,103.000 C71.954,96.274 72.622,87.084 68.000,83.000 z" fill="white" /></svg>
