<svg version="1.1" xmlns="http://www.w3.org/2000/svg" xmlns:xlink="http://www.w3.org/1999/xlink" width="925" height="534" viewBox="0 0 925 534"><path id="Calque-3" d="M925.000,211.000 C925.000,213.000 925.000,215.000 925.000,217.000 C882.460,210.261 777.151,177.456 735.000,204.000 C735.000,278.326 735.000,352.674 735.000,427.000 C735.001,453.743 741.083,498.911 730.000,517.000 C714.463,542.360 654.028,534.001 614.000,534.000 C518.343,534.000 422.657,534.000 327.000,534.000 C293.629,534.001 236.032,541.501 216.000,526.000 C197.872,511.972 203.998,465.461 204.000,434.000 C203.333,349.675 202.667,265.325 202.000,181.000 C201.000,182.000 200.000,183.000 199.000,184.000 C178.002,200.332 156.998,216.668 136.000,233.000 C95.033,262.010 49.161,285.603 -0.000,306.000 C0.333,303.667 0.667,301.333 1.000,299.000 C14.999,292.667 29.001,286.333 43.000,280.000 C85.984,258.175 123.551,234.548 160.000,207.000 C171.233,198.510 198.321,184.551 203.000,171.000 C203.000,164.001 203.000,156.999 203.000,150.000 C202.993,123.835 198.330,84.588 210.000,69.000 C225.228,48.661 258.405,58.561 269.000,76.000 C292.081,113.989 217.415,152.915 209.000,175.000 C209.000,251.659 209.000,328.341 209.000,405.000 C208.996,446.166 198.001,516.792 230.000,527.000 C354.654,527.333 479.346,527.667 604.000,528.000 C635.221,528.002 708.806,534.567 722.000,518.000 C737.678,498.313 729.000,384.351 729.000,347.000 C729.000,313.337 729.000,279.663 729.000,246.000 C729.001,235.418 731.844,214.779 727.000,208.000 C675.152,232.583 688.994,328.720 689.000,404.000 C689.002,425.105 693.338,458.572 685.000,473.000 C671.793,495.852 623.443,489.000 588.000,489.000 C505.675,489.000 423.325,489.000 341.000,489.000 C305.211,489.002 264.475,494.705 252.000,471.000 C242.055,452.101 248.999,380.669 249.000,353.000 C249.001,318.008 242.695,195.512 255.000,178.000 C268.156,159.277 301.117,162.996 333.000,163.000 C399.327,163.000 465.673,163.000 532.000,163.000 C581.607,163.006 684.142,173.218 704.000,145.000 C709.597,137.047 709.728,128.810 712.000,117.000 C714.683,103.056 713.883,89.728 708.000,80.000 C648.886,57.353 664.281,122.423 616.000,113.000 C591.957,108.308 592.740,82.806 573.000,76.000 C564.334,75.667 555.666,75.333 547.000,75.000 C495.007,75.003 512.977,107.166 472.000,113.000 C438.082,117.829 440.931,80.329 416.000,75.000 C399.913,71.561 369.840,73.915 361.000,80.000 C347.285,89.441 332.872,133.127 296.000,108.000 C288.634,102.981 274.890,84.038 280.000,68.000 C284.000,63.667 288.000,59.333 292.000,55.000 C300.526,31.061 284.636,10.108 308.000,2.000 C344.833,-10.783 336.001,32.420 346.000,51.000 C370.917,57.054 418.724,55.801 444.000,53.000 C443.078,25.735 446.180,-9.405 478.000,2.000 C497.605,9.026 488.897,32.809 498.000,50.000 C513.766,55.323 577.055,57.083 596.000,52.000 C595.504,26.355 598.877,-10.591 630.000,2.000 C653.477,11.498 638.736,46.364 650.000,53.000 C656.666,53.333 663.334,53.667 670.000,54.000 C703.123,54.018 723.904,54.516 733.000,78.000 C741.737,100.557 726.502,180.841 737.000,196.000 C791.855,173.457 875.359,206.302 925.000,211.000 zM312.000,7.000 C298.839,16.109 294.095,32.504 299.000,56.000 C313.188,57.440 335.853,60.005 341.000,71.000 C349.246,101.326 289.198,114.237 292.000,65.000 C290.667,65.333 289.333,65.667 288.000,66.000 C287.000,68.333 286.000,70.667 285.000,73.000 C292.576,100.956 316.502,124.939 343.000,97.000 C349.890,89.736 351.211,79.523 360.000,74.000 C369.495,68.034 398.484,65.676 415.000,69.000 C442.625,74.560 440.640,115.318 478.000,107.000 C502.680,101.505 500.714,74.080 528.000,69.000 C595.168,56.494 585.166,99.993 614.000,107.000 C622.508,109.068 634.804,106.658 640.000,104.000 C661.165,93.174 652.770,61.095 698.000,71.000 C709.070,73.424 716.036,77.034 719.000,87.000 C722.460,98.632 719.493,115.797 717.000,125.000 C704.382,171.591 665.625,169.006 607.000,169.000 C497.344,169.000 387.656,169.000 278.000,169.000 C250.845,175.274 254.000,202.700 254.000,236.000 C254.000,290.328 254.000,344.672 254.000,399.000 C253.999,419.256 249.684,449.494 256.000,466.000 C265.319,490.353 306.851,484.001 340.000,484.000 C421.325,484.000 502.675,484.000 584.000,484.000 C613.716,484.000 665.305,490.960 678.000,473.000 C686.892,460.419 684.002,433.081 684.000,412.000 C684.000,362.672 684.000,313.328 684.000,264.000 C687.903,240.033 699.270,220.224 715.000,208.000 C719.655,204.382 724.900,203.230 728.000,198.000 C728.000,159.337 728.000,120.663 728.000,82.000 C725.495,73.503 719.437,65.499 712.000,62.000 C696.447,54.683 661.844,66.439 647.000,57.000 C637.229,50.787 639.358,19.411 633.000,10.000 C627.821,8.356 624.777,7.032 617.000,7.000 C608.425,10.573 589.750,42.107 605.000,53.000 C619.655,59.932 633.735,59.443 645.000,68.000 C646.738,82.319 641.141,92.784 630.000,97.000 C590.471,108.206 604.251,71.567 594.000,59.000 C562.337,58.333 530.663,57.667 499.000,57.000 C485.882,47.401 493.752,19.011 480.000,11.000 C457.648,-10.409 443.875,31.716 451.000,54.000 C465.464,55.089 481.384,58.799 491.000,65.000 C497.471,84.215 478.317,110.862 455.000,95.000 C443.612,87.254 446.882,74.854 443.000,59.000 C410.337,58.333 377.663,57.667 345.000,57.000 C323.231,46.020 352.655,7.906 312.000,7.000 zM603.000,59.000 C597.648,76.570 606.526,85.945 615.000,93.000 C626.043,93.444 629.877,91.168 637.000,86.000 C638.000,82.334 639.000,78.666 640.000,75.000 C634.129,63.435 618.803,60.231 603.000,59.000 zM451.000,60.000 C445.146,77.204 454.530,92.045 468.000,94.000 C483.591,96.263 491.977,76.884 484.000,66.000 C473.001,64.000 461.999,62.000 451.000,60.000 zM232.000,62.000 C224.426,66.409 216.215,68.371 212.000,76.000 C207.818,83.570 205.547,154.270 210.000,165.000 C231.885,152.749 309.842,64.088 232.000,62.000 zM298.000,62.000 C296.803,77.326 300.271,89.895 311.000,93.000 C322.864,96.433 340.359,84.837 335.000,72.000 C329.747,65.323 309.006,62.137 298.000,62.000 z" fill="white" /></svg>
