<svg version="1.1" xmlns="http://www.w3.org/2000/svg" xmlns:xlink="http://www.w3.org/1999/xlink" width="925" height="534" viewBox="0 0 925 534"><path id="Calque-4" d="M925.000,440.000 C925.000,441.667 925.000,443.334 925.000,445.000 C855.003,444.178 807.524,456.269 760.000,476.000 C741.615,483.633 702.896,498.224 678.000,484.000 C638.348,461.346 659.733,392.674 643.000,346.000 C631.595,314.188 589.484,311.400 552.000,306.000 C566.362,348.456 625.278,464.663 589.000,515.000 C575.120,534.259 533.411,539.337 505.000,529.000 C464.382,514.221 425.365,467.349 422.000,417.000 C436.324,398.949 464.727,399.285 485.000,387.000 C459.000,383.532 404.827,344.823 395.000,324.000 C394.000,324.667 393.000,325.333 392.000,326.000 C375.285,360.927 322.103,367.768 309.000,407.000 C337.322,395.471 372.964,401.433 383.000,426.000 C385.333,438.665 387.667,451.335 390.000,464.000 C392.243,474.114 404.919,494.982 397.000,506.000 C396.333,506.667 395.667,507.333 395.000,508.000 C369.793,522.953 367.351,487.845 362.000,473.000 C354.466,452.098 331.399,417.854 305.000,416.000 C283.875,426.951 293.759,462.285 278.000,478.000 C274.000,477.333 270.000,476.667 266.000,476.000 C254.562,450.437 255.120,408.538 228.000,398.000 C219.049,394.522 203.057,397.619 195.000,399.000 C162.946,404.492 110.235,413.730 76.000,407.000 C41.572,400.232 22.620,385.135 -0.000,368.000 C-0.000,366.334 -0.000,364.667 -0.000,363.000 C1.666,363.000 3.333,363.000 5.000,363.000 C29.439,399.181 97.295,408.234 156.000,398.000 C175.294,394.636 209.275,386.064 231.000,393.000 C263.103,403.249 253.816,445.160 270.000,471.000 C272.666,471.000 275.334,471.000 278.000,471.000 C281.000,455.668 284.000,440.332 287.000,425.000 C296.999,410.668 307.001,396.332 317.000,382.000 C342.283,352.278 394.348,338.445 404.000,294.000 C401.667,281.001 399.333,267.999 397.000,255.000 C396.667,255.000 396.333,255.000 396.000,255.000 C392.971,256.354 390.590,257.488 387.000,256.000 C378.619,252.319 377.607,243.385 373.000,236.000 C360.131,215.372 348.514,208.492 372.000,188.000 C361.776,173.902 359.005,145.928 355.000,127.000 C354.667,127.000 354.333,127.000 354.000,127.000 C332.011,136.867 290.653,141.504 299.000,103.000 C312.854,88.772 335.578,88.041 352.000,76.000 C360.999,66.668 370.001,57.332 379.000,48.000 C395.665,37.668 412.335,27.332 429.000,17.000 C434.999,11.667 441.001,6.333 447.000,1.000 C475.806,-12.661 536.671,27.745 543.000,43.000 C552.863,66.773 527.438,72.484 525.000,90.000 C527.333,101.332 529.667,112.668 532.000,124.000 C535.010,139.334 532.488,159.049 531.000,173.000 C535.328,171.125 536.881,170.997 541.000,173.000 C543.867,187.498 541.474,233.755 538.000,253.000 C536.127,263.374 528.139,277.407 531.000,285.000 C536.333,288.666 541.667,292.334 547.000,296.000 C580.014,308.573 617.925,303.013 646.000,318.000 C679.781,336.032 703.773,408.759 707.000,457.000 C712.554,452.845 723.769,450.256 728.000,458.000 C731.217,461.953 729.577,466.759 728.000,471.000 C720.193,474.995 714.771,474.795 706.000,472.000 C706.000,474.666 706.000,477.334 706.000,480.000 C706.333,481.000 706.667,482.000 707.000,483.000 C732.964,489.820 762.110,468.350 781.000,461.000 C822.222,444.961 869.029,439.877 925.000,440.000 zM462.000,5.000 C469.806,27.075 479.416,63.067 501.000,72.000 C501.000,73.667 501.000,75.334 501.000,77.000 C499.000,77.333 497.000,77.667 495.000,78.000 C495.000,78.333 495.000,78.667 495.000,79.000 C505.790,79.451 514.466,85.288 521.000,85.000 C524.966,72.170 534.201,66.644 540.000,56.000 C538.643,46.306 534.518,41.241 530.000,35.000 C522.110,40.918 511.315,44.271 507.000,54.000 C508.333,59.333 509.667,64.667 511.000,70.000 C510.667,70.333 510.333,70.667 510.000,71.000 C508.334,71.000 506.667,71.000 505.000,71.000 C488.337,48.505 484.928,33.882 515.000,23.000 C497.426,18.618 482.553,7.322 462.000,5.000 zM454.000,7.000 C439.894,29.811 466.218,67.716 486.000,71.000 C476.344,56.241 466.014,16.775 454.000,7.000 zM444.000,11.000 C431.347,27.455 407.044,34.865 390.000,47.000 C371.885,59.898 358.929,78.718 345.000,96.000 C339.124,103.291 325.616,114.076 313.000,111.000 C313.333,109.000 313.667,107.000 314.000,105.000 C316.666,101.667 319.334,98.333 322.000,95.000 C312.510,97.482 303.775,102.534 303.000,114.000 C310.014,126.191 326.922,136.232 343.000,124.000 C336.337,123.842 333.945,122.393 330.000,120.000 C330.667,117.000 331.333,114.000 332.000,111.000 C355.664,103.667 379.336,96.333 403.000,89.000 C384.952,89.215 367.511,98.130 356.000,92.000 C356.065,83.097 358.365,82.665 362.000,78.000 C378.441,72.831 406.355,61.867 429.000,70.000 C426.050,63.624 422.192,60.844 421.000,52.000 C422.333,50.333 423.667,48.667 425.000,47.000 C450.454,47.747 456.640,66.271 472.000,76.000 C477.999,76.333 484.001,76.667 490.000,77.000 C454.155,75.992 449.917,40.078 444.000,11.000 zM510.000,29.000 C505.559,31.831 502.505,33.456 499.000,37.000 C499.667,42.666 500.333,48.334 501.000,54.000 C501.333,54.000 501.667,54.000 502.000,54.000 C502.848,40.445 514.629,37.654 524.000,33.000 C523.333,32.000 522.667,31.000 522.000,30.000 C518.000,29.667 514.000,29.333 510.000,29.000 zM428.000,53.000 C428.645,69.353 446.392,71.252 462.000,76.000 C458.710,65.396 440.096,54.664 428.000,53.000 zM405.000,73.000 C390.622,78.182 366.854,74.650 362.000,89.000 C363.333,89.000 364.667,89.000 366.000,89.000 C382.960,82.780 417.096,89.464 430.000,79.000 C428.334,77.667 426.667,76.333 425.000,75.000 C418.334,74.333 411.666,73.667 405.000,73.000 zM435.000,74.000 C435.000,77.000 435.000,80.000 435.000,83.000 C440.666,81.667 446.334,80.333 452.000,79.000 C446.334,77.333 440.666,75.666 435.000,74.000 zM465.000,81.000 C454.567,88.211 437.213,86.430 423.000,90.000 C399.683,95.858 375.044,107.216 360.000,122.000 C361.622,125.203 361.849,126.189 365.000,128.000 C377.594,135.727 399.586,127.269 412.000,129.000 C425.934,141.302 387.491,176.516 384.000,192.000 C384.667,192.333 385.333,192.667 386.000,193.000 C417.673,172.722 478.976,149.045 526.000,165.000 C526.395,137.497 523.656,115.392 519.000,94.000 C505.572,84.566 486.056,83.768 465.000,81.000 zM342.000,88.000 C334.676,93.765 326.599,97.507 321.000,105.000 C325.499,103.680 344.397,89.365 342.000,88.000 zM369.000,105.000 C358.001,108.666 346.999,112.334 336.000,116.000 C336.333,116.667 336.667,117.333 337.000,118.000 C349.930,118.478 374.520,107.107 369.000,105.000 zM362.000,134.000 C367.723,151.914 371.648,171.821 378.000,188.000 C378.333,188.000 378.667,188.000 379.000,188.000 C383.792,165.620 405.713,156.856 411.000,135.000 C410.333,135.000 409.667,135.000 409.000,135.000 C407.333,134.667 405.667,134.333 404.000,134.000 C400.567,144.359 390.295,149.586 381.000,154.000 C379.334,153.333 377.666,152.667 376.000,152.000 C376.398,142.709 379.938,141.156 384.000,136.000 C376.667,135.333 369.333,134.667 362.000,134.000 zM394.000,137.000 C391.000,139.666 388.000,142.334 385.000,145.000 C386.907,143.876 395.843,137.856 394.000,137.000 zM486.000,165.000 C474.335,167.333 462.666,169.667 451.000,172.000 C429.030,178.552 407.819,187.064 390.000,198.000 C399.399,220.530 397.159,248.995 406.000,274.000 C414.207,297.213 448.137,322.041 475.000,327.000 C526.723,336.549 535.380,248.847 528.000,211.000 C525.904,200.251 529.723,180.908 524.000,173.000 C517.695,163.848 501.879,164.493 486.000,165.000 zM535.000,177.000 C532.071,184.736 531.053,195.784 535.000,204.000 C536.018,196.150 539.277,183.622 535.000,177.000 zM371.000,195.000 C370.000,196.333 369.000,197.667 368.000,199.000 C365.118,202.578 364.100,205.305 364.000,212.000 C369.373,223.309 380.226,243.557 390.000,251.000 C390.667,251.000 391.333,251.000 392.000,251.000 C393.000,250.000 394.000,249.000 395.000,248.000 C395.000,246.333 395.000,244.666 395.000,243.000 C389.045,234.464 381.505,233.659 380.000,220.000 C383.069,216.695 382.897,215.778 389.000,215.000 C385.146,206.126 381.449,197.388 371.000,195.000 zM387.000,221.000 C386.161,226.171 387.983,228.115 392.000,231.000 C392.000,230.000 392.000,229.000 392.000,228.000 C390.478,223.903 390.723,223.034 387.000,221.000 zM528.000,290.000 C533.427,304.828 529.225,324.180 526.000,338.000 C523.436,348.990 526.746,367.676 521.000,376.000 C508.432,394.205 453.557,405.165 434.000,420.000 C436.304,475.981 521.174,569.228 579.000,515.000 C620.904,475.703 566.041,367.735 554.000,335.000 C546.283,314.019 546.284,300.061 528.000,290.000 zM410.000,291.000 C423.974,339.638 473.047,334.038 482.000,380.000 C518.197,393.113 514.670,364.254 520.000,338.000 C522.379,326.283 525.664,312.649 524.000,298.000 C523.667,298.000 523.333,298.000 523.000,298.000 C516.943,342.688 466.916,338.294 438.000,318.000 C428.668,309.001 419.332,299.999 410.000,291.000 zM404.000,308.000 C403.000,309.333 402.000,310.667 401.000,312.000 C400.826,341.413 450.904,365.573 472.000,376.000 C472.000,375.000 472.000,374.000 472.000,373.000 C463.064,355.642 443.752,347.562 429.000,336.000 C418.834,328.033 412.152,318.085 404.000,308.000 zM629.000,318.000 C636.295,326.931 644.800,332.453 649.000,345.000 C665.484,394.243 640.051,479.741 701.000,483.000 C699.128,474.810 703.917,468.416 703.000,461.000 C695.944,403.924 676.576,336.178 629.000,318.000 zM333.000,406.000 C327.334,407.333 321.666,408.667 316.000,410.000 C315.667,410.667 315.333,411.333 315.000,412.000 C337.669,417.512 357.216,448.188 367.000,467.000 C376.073,484.445 366.134,502.238 390.000,505.000 C391.333,503.334 392.667,501.666 394.000,500.000 C381.915,458.960 388.182,405.740 333.000,406.000 zM714.000,457.000 C712.667,460.000 711.333,463.000 710.000,466.000 C712.333,467.666 714.667,469.334 717.000,471.000 C719.333,469.667 721.667,468.333 724.000,467.000 C724.000,465.667 724.000,464.333 724.000,463.000 C722.333,461.333 720.667,459.667 719.000,458.000 C717.333,457.667 715.666,457.333 714.000,457.000 z" fill="white" /></svg>
