<svg version="1.1" xmlns="http://www.w3.org/2000/svg" xmlns:xlink="http://www.w3.org/1999/xlink" width="925" height="533" viewBox="0 0 925 533"><path id="Calque-2" d="M214.000,489.000 C209.093,429.818 132.220,473.556 84.000,464.000 C53.764,458.008 36.814,443.302 21.000,423.000 C14.705,414.919 -4.554,401.007 1.000,386.000 C22.272,414.636 37.704,446.153 78.000,456.000 C103.409,462.209 135.147,458.263 161.000,454.000 C172.999,453.333 185.001,452.667 197.000,452.000 C213.047,456.752 214.031,473.609 221.000,488.000 C266.572,473.733 292.247,454.609 315.000,419.000 C323.492,405.710 330.189,375.476 351.000,375.000 C346.917,366.619 350.789,358.370 349.000,347.000 C344.684,319.577 343.259,279.218 326.000,264.000 C318.334,260.667 310.666,257.333 303.000,254.000 C301.549,247.010 303.065,243.701 306.000,239.000 C312.999,237.667 320.001,236.333 327.000,235.000 C289.035,235.780 228.231,243.250 218.000,216.000 C218.667,216.000 219.333,216.000 220.000,216.000 C230.332,215.000 240.668,214.000 251.000,213.000 C251.000,212.667 251.000,212.333 251.000,212.000 C237.124,194.156 259.181,146.163 266.000,134.000 C313.492,49.296 360.002,51.413 458.000,21.000 C458.000,20.667 458.000,20.333 458.000,20.000 C454.142,17.658 451.317,13.734 454.000,8.000 C455.978,3.504 458.190,1.696 463.000,-0.000 C467.666,-0.000 472.334,-0.000 477.000,-0.000 C482.262,1.946 487.807,7.200 486.000,13.000 C484.786,18.199 483.697,19.296 479.000,21.000 C479.000,21.333 479.000,21.667 479.000,22.000 C562.351,35.154 625.390,68.890 661.000,131.000 C672.321,150.745 685.972,181.506 677.000,212.000 C687.375,211.697 699.913,211.615 707.000,215.000 C704.858,223.840 697.562,224.776 691.000,229.000 C673.092,240.527 638.522,242.791 606.000,240.000 C596.246,239.163 583.192,238.223 576.000,242.000 C576.276,250.396 575.041,252.683 572.000,257.000 C506.908,267.979 490.973,316.452 460.000,361.000 C450.791,374.245 431.814,385.629 430.000,405.000 C449.901,437.663 408.919,476.041 401.000,508.000 C448.209,536.054 509.696,505.127 546.000,494.000 C565.331,491.000 584.669,488.000 604.000,485.000 C640.458,478.954 669.722,495.511 694.000,504.000 C712.998,508.999 732.002,514.001 751.000,519.000 C789.474,528.629 848.727,536.720 888.000,523.000 C900.332,516.667 912.668,510.333 925.000,504.000 C925.000,505.333 925.000,506.667 925.000,508.000 C902.483,533.779 833.030,539.387 786.000,530.000 C760.669,524.667 735.331,519.333 710.000,514.000 C673.997,503.054 636.262,482.598 584.000,492.000 C551.471,497.852 526.677,509.683 500.000,519.000 C473.563,528.233 411.595,526.692 395.000,510.000 C395.733,485.817 435.675,436.511 431.000,418.000 C430.667,417.333 430.333,416.667 430.000,416.000 C430.000,416.000 418.040,398.214 425.000,398.000 C421.334,398.000 417.666,398.000 414.000,398.000 C400.135,394.546 388.785,381.553 385.000,368.000 C380.319,351.237 392.824,339.189 399.000,332.000 C415.998,317.668 433.002,303.332 450.000,289.000 C468.818,273.643 470.760,256.883 495.000,241.000 C455.683,246.669 433.313,296.997 392.000,288.000 C352.646,279.429 366.639,230.957 310.000,244.000 C309.333,246.000 308.667,248.000 308.000,250.000 C351.222,267.949 346.059,295.473 355.000,345.000 C355.000,352.666 355.000,360.334 355.000,368.000 C365.185,390.210 413.040,384.575 420.000,411.000 C419.333,411.000 418.667,411.000 418.000,411.000 C401.504,417.058 357.506,386.679 345.000,380.000 C343.667,381.000 342.333,382.000 341.000,383.000 C335.503,411.891 289.878,464.842 268.000,479.000 C252.002,484.666 235.998,490.334 220.000,496.000 C216.920,503.107 217.207,509.080 211.000,513.000 C205.599,516.741 201.915,513.964 198.000,511.000 C195.282,502.923 194.213,493.516 202.000,490.000 C206.000,489.667 210.000,489.333 214.000,489.000 zM469.000,4.000 C464.201,6.751 461.846,7.263 459.000,12.000 C462.009,15.954 464.257,17.550 471.000,18.000 C473.666,17.000 476.334,16.000 479.000,15.000 C479.333,14.000 479.667,13.000 480.000,12.000 C479.667,10.667 479.333,9.333 479.000,8.000 C475.667,6.667 472.333,5.333 469.000,4.000 zM466.000,25.000 C447.335,29.333 428.665,33.667 410.000,38.000 C346.507,57.555 301.394,80.552 273.000,135.000 C263.880,152.489 242.758,190.074 259.000,213.000 C357.324,213.000 455.676,213.000 554.000,213.000 C576.659,213.001 659.344,216.247 672.000,209.000 C680.472,178.412 664.236,150.829 654.000,132.000 C625.122,78.880 583.343,59.243 520.000,40.000 C502.002,35.000 483.998,29.999 466.000,25.000 zM268.000,218.000 C279.276,225.959 357.061,225.936 374.000,219.000 C338.670,218.667 303.330,218.333 268.000,218.000 zM425.000,218.000 C435.489,223.485 456.912,218.789 471.000,220.000 C495.664,222.333 520.336,224.667 545.000,227.000 C544.667,228.666 544.333,230.334 544.000,232.000 C580.735,232.751 636.416,234.845 661.000,218.000 C582.341,218.000 503.659,218.000 425.000,218.000 zM672.000,218.000 C660.815,230.701 642.428,226.776 625.000,234.000 C659.437,234.756 678.580,232.721 696.000,218.000 C688.001,218.000 679.999,218.000 672.000,218.000 zM245.000,219.000 C242.000,219.333 239.000,219.667 236.000,220.000 C238.333,222.666 240.667,225.334 243.000,228.000 C253.705,230.937 277.765,234.126 290.000,229.000 C269.672,228.865 263.686,219.597 245.000,219.000 zM397.000,224.000 C368.003,226.000 338.997,228.000 310.000,230.000 C355.209,230.280 407.221,234.282 449.000,228.000 C460.332,227.667 471.668,227.333 483.000,227.000 C454.336,226.000 425.664,225.000 397.000,224.000 zM500.000,232.000 C456.338,233.333 412.662,234.667 369.000,236.000 C358.334,236.000 347.666,236.000 337.000,236.000 C366.646,237.440 366.626,275.520 394.000,282.000 C423.535,288.992 453.952,247.744 476.000,239.000 C492.186,232.581 517.744,239.262 536.000,232.000 C524.001,232.000 511.999,232.000 500.000,232.000 zM571.000,239.000 C550.669,239.333 530.331,239.667 510.000,240.000 C517.803,239.850 521.928,241.183 527.000,243.000 C528.307,247.002 527.510,248.896 526.000,252.000 C497.022,261.114 477.243,314.494 464.000,341.000 C465.000,340.333 466.000,339.667 467.000,339.000 C475.738,309.577 505.952,278.012 530.000,263.000 C539.552,257.037 563.764,257.295 570.000,248.000 C570.333,245.000 570.667,242.000 571.000,239.000 zM497.000,240.000 C498.333,240.000 499.667,240.000 501.000,240.000 C499.667,240.000 498.333,240.000 497.000,240.000 zM508.000,245.000 C499.308,248.571 490.012,248.066 484.000,254.000 C471.536,266.303 465.937,285.110 452.000,296.000 C433.956,310.099 410.211,325.425 397.000,344.000 C383.321,363.233 396.923,391.358 422.000,392.000 C447.161,377.349 476.475,294.531 495.000,266.000 C500.913,256.893 511.028,254.011 519.000,247.000 C519.000,246.667 519.000,246.333 519.000,246.000 C515.334,245.667 511.666,245.333 508.000,245.000 zM462.000,343.000 C461.333,344.333 460.667,345.667 460.000,347.000 C460.667,346.667 461.333,346.333 462.000,346.000 C462.000,345.000 462.000,344.000 462.000,343.000 zM457.000,351.000 C456.667,351.667 456.333,352.333 456.000,353.000 C456.667,352.333 457.333,351.667 458.000,351.000 C457.667,351.000 457.333,351.000 457.000,351.000 zM368.000,385.000 C375.328,392.269 389.187,397.694 400.000,401.000 C389.334,395.667 378.666,390.333 368.000,385.000 zM214.000,493.000 C207.244,493.119 204.843,494.504 201.000,497.000 C201.000,497.333 201.000,497.667 201.000,498.000 C201.667,501.333 202.333,504.667 203.000,508.000 C204.333,508.333 205.667,508.667 207.000,509.000 C208.333,508.000 209.667,507.000 211.000,506.000 C212.000,501.667 213.000,497.333 214.000,493.000 z" fill="white" /></svg>
