<svg version="1.1" xmlns="http://www.w3.org/2000/svg" xmlns:xlink="http://www.w3.org/1999/xlink" width="1593" height="547" viewBox="0 0 1593 547"><path id="Calque-1" d="M779.000,-0.000 C841.398,2.045 879.397,53.056 895.000,103.000 C898.333,121.331 901.667,139.668 905.000,158.000 C909.085,170.198 921.759,175.145 925.000,189.000 C931.538,216.950 914.339,236.476 921.000,263.000 C926.267,283.970 941.348,293.990 949.000,312.000 C942.415,351.630 852.260,342.840 823.000,361.000 C823.000,361.333 823.000,361.667 823.000,362.000 C823.333,364.000 823.667,366.000 824.000,368.000 C831.553,385.951 869.192,375.399 880.000,367.000 C937.593,376.801 973.987,436.112 1043.000,421.000 C1111.771,405.941 1167.038,371.087 1233.000,351.000 C1274.053,338.499 1317.253,332.724 1363.000,325.000 C1381.665,324.000 1400.335,323.000 1419.000,322.000 C1454.825,316.141 1571.444,322.774 1593.000,336.000 C1593.000,337.000 1593.000,338.000 1593.000,339.000 C1592.000,339.667 1591.000,340.333 1590.000,341.000 C1565.669,337.334 1541.331,333.666 1517.000,330.000 C1463.885,320.315 1379.746,327.491 1333.000,337.000 C1275.510,348.695 1221.418,361.387 1172.000,381.000 C1126.805,398.937 1085.844,421.200 1032.000,431.000 C992.157,438.252 944.658,404.166 917.000,392.000 C909.025,388.492 893.298,374.277 882.000,377.000 C872.428,379.307 863.802,400.665 858.000,408.000 C849.805,418.360 835.579,428.207 824.000,435.000 C776.159,463.069 709.445,443.171 677.000,417.000 C666.334,403.668 655.666,390.332 645.000,377.000 C632.751,377.285 568.991,406.995 565.000,414.000 C562.925,421.413 569.074,425.293 570.000,433.000 C575.064,475.169 563.634,538.766 533.000,546.000 C497.267,554.438 495.028,488.970 501.000,458.000 C505.564,434.333 536.066,418.460 537.000,414.000 C538.056,408.957 532.744,406.211 530.000,405.000 C502.718,392.965 384.777,412.513 352.000,418.000 C202.280,443.062 70.643,413.897 -0.000,335.000 C-0.000,332.667 -0.000,330.333 -0.000,328.000 C15.261,331.201 41.244,363.364 57.000,373.000 C95.027,396.255 141.470,406.815 194.000,416.000 C245.835,425.063 331.403,414.371 380.000,405.000 C408.997,402.000 438.003,399.000 467.000,396.000 C486.665,396.000 506.335,396.000 526.000,396.000 C535.179,398.359 545.327,408.724 557.000,406.000 C584.997,393.001 613.003,379.999 641.000,367.000 C658.143,363.245 667.309,378.683 683.000,380.000 C689.595,375.522 694.206,372.407 695.000,362.000 C694.667,361.000 694.333,360.000 694.000,359.000 C651.323,340.744 609.300,348.625 579.000,317.000 C579.462,294.573 601.643,285.000 607.000,263.000 C612.942,238.594 598.206,218.344 603.000,191.000 C605.980,174.001 619.106,171.275 623.000,157.000 C624.666,143.001 626.334,128.999 628.000,115.000 C637.983,74.941 657.192,38.319 688.000,19.000 C701.246,10.694 718.429,4.486 736.000,1.000 C750.332,0.667 764.668,0.333 779.000,-0.000 zM747.000,7.000 C735.001,10.000 722.999,13.000 711.000,16.000 C674.821,30.796 653.993,62.607 641.000,101.000 C636.711,113.673 626.900,139.366 634.000,155.000 C635.000,155.000 636.000,155.000 637.000,155.000 C650.830,134.928 666.290,92.251 705.000,99.000 C715.666,102.666 726.334,106.334 737.000,110.000 C737.333,109.000 737.667,108.000 738.000,107.000 C733.029,94.810 725.593,74.376 727.000,60.000 C738.359,64.289 736.027,88.274 742.000,98.000 C751.521,113.503 800.804,152.384 826.000,146.000 C828.000,145.000 830.000,144.000 832.000,143.000 C829.020,84.935 881.909,153.263 889.000,159.000 C893.975,158.445 892.872,159.190 895.000,156.000 C901.133,140.199 887.662,109.238 883.000,97.000 C861.437,40.398 826.849,5.813 747.000,7.000 zM694.000,106.000 C659.106,125.101 663.761,141.029 640.000,165.000 C631.856,173.216 615.923,175.781 612.000,188.000 C604.695,210.752 614.835,245.738 626.000,255.000 C632.999,259.333 640.001,263.667 647.000,268.000 C680.728,312.521 686.630,345.576 757.000,356.000 C808.303,363.599 846.693,323.740 865.000,296.000 C870.333,286.668 875.667,277.332 881.000,268.000 C887.999,263.667 895.001,259.333 902.000,255.000 C914.632,244.373 925.135,211.160 918.000,188.000 C913.672,173.951 893.156,175.306 884.000,166.000 C873.149,154.972 862.973,135.096 844.000,133.000 C841.735,138.679 843.446,143.112 846.000,149.000 C844.506,152.067 844.885,152.215 842.000,154.000 C809.273,169.105 732.953,106.672 694.000,106.000 zM618.000,263.000 C608.672,275.836 591.507,296.751 590.000,315.000 C596.395,324.333 684.271,358.669 698.000,346.000 C686.668,335.334 675.332,324.666 664.000,314.000 C655.667,300.668 647.333,287.332 639.000,274.000 C633.835,268.808 627.524,263.736 618.000,263.000 zM903.000,263.000 C882.735,278.608 873.844,299.249 858.000,319.000 C848.334,327.999 838.666,337.001 829.000,346.000 C829.667,347.000 830.333,348.000 831.000,349.000 C862.738,349.003 926.516,330.121 939.000,312.000 C933.128,295.413 921.903,274.377 910.000,263.000 C907.667,263.000 905.333,263.000 903.000,263.000 zM707.000,360.000 C699.958,368.171 697.211,384.245 685.000,387.000 C678.334,386.667 671.666,386.333 665.000,386.000 C665.000,387.333 665.000,388.667 665.000,390.000 C700.704,434.263 762.400,461.569 825.000,423.000 C839.527,414.049 852.857,404.196 861.000,389.000 C860.000,387.000 859.000,385.000 858.000,383.000 C809.739,383.681 831.134,372.689 809.000,361.000 C799.678,358.708 786.728,362.458 778.000,364.000 C754.336,362.667 730.664,361.333 707.000,360.000 zM546.000,420.000 C534.005,427.313 521.122,432.956 514.000,445.000 C502.500,464.447 503.357,527.241 522.000,536.000 C556.984,545.129 569.590,458.271 561.000,425.000 C556.364,421.782 554.432,420.088 546.000,420.000 z" fill="#607967" /></svg>
