<svg version="1.1" xmlns="http://www.w3.org/2000/svg" xmlns:xlink="http://www.w3.org/1999/xlink" width="974" height="825" viewBox="0 0 974 825"><path id="ph-private-chef" d="M682.000,-0.000 C685.333,0.333 688.667,0.667 692.000,1.000 C695.582,4.690 697.734,7.533 696.000,14.000 C680.948,15.958 661.199,69.899 653.000,84.000 C613.859,151.317 574.962,223.583 544.000,297.000 C568.076,279.530 590.731,240.500 626.000,237.000 C652.802,247.994 637.607,275.685 645.000,306.000 C646.000,305.667 647.000,305.333 648.000,305.000 C660.665,296.001 673.335,286.999 686.000,278.000 C698.665,267.001 711.335,255.999 724.000,245.000 C727.000,246.333 730.000,247.667 733.000,249.000 C733.000,250.333 733.000,251.667 733.000,253.000 C713.128,268.227 668.488,322.443 638.000,315.000 C626.067,298.669 631.783,271.444 627.000,248.000 C626.667,248.000 626.333,248.000 626.000,248.000 C582.252,267.471 559.876,313.517 524.000,341.000 C517.352,340.632 514.122,338.753 511.000,335.000 C522.153,292.008 549.992,253.861 566.000,214.000 C539.630,225.475 507.861,232.348 479.000,241.000 C467.334,244.000 455.666,247.000 444.000,250.000 C440.667,255.333 437.333,260.667 434.000,266.000 C420.271,284.806 390.434,319.906 358.000,312.000 C354.454,307.224 352.257,305.682 352.000,297.000 C365.768,266.337 399.701,259.295 425.000,240.000 C441.460,227.446 451.829,183.235 440.000,161.000 C366.320,201.677 315.559,315.249 280.000,397.000 C269.426,421.309 244.209,493.078 228.000,507.000 C198.819,503.576 237.020,434.161 244.000,418.000 C266.331,370.338 288.669,322.662 311.000,275.000 C328.713,233.428 340.519,189.527 363.000,153.000 C364.666,153.000 366.334,153.000 368.000,153.000 C372.974,155.405 375.962,157.719 379.000,162.000 C371.667,179.332 364.333,196.668 357.000,214.000 C358.667,212.667 360.333,211.333 362.000,210.000 C369.080,194.400 422.170,134.078 449.000,152.000 C473.514,168.375 458.787,204.429 455.000,230.000 C479.893,228.407 567.264,201.031 580.000,189.000 C589.666,169.669 599.334,150.331 609.000,131.000 C633.670,88.595 653.231,39.144 682.000,-0.000 zM396.000,277.000 C395.667,277.667 395.333,278.333 395.000,279.000 C395.667,278.333 396.333,277.667 397.000,277.000 C396.667,277.000 396.333,277.000 396.000,277.000 zM392.000,280.000 C390.334,282.000 388.667,284.000 387.000,286.000 C388.667,284.000 390.334,282.000 392.000,280.000 zM750.000,296.000 C762.351,295.697 770.602,298.516 778.000,303.000 C779.666,307.666 781.333,312.334 783.000,317.000 C779.254,325.631 775.768,334.289 766.000,337.000 C755.240,339.393 741.738,325.827 736.000,319.000 C736.667,314.000 737.333,308.999 738.000,304.000 C741.415,299.646 745.115,298.951 750.000,296.000 zM835.000,588.000 C892.228,586.089 892.821,668.829 849.000,678.000 C805.209,687.165 789.445,630.763 810.000,603.000 C816.158,594.682 824.751,592.548 835.000,588.000 zM0.000,590.000 C23.241,589.163 56.584,586.447 66.000,600.000 C89.002,633.107 53.895,647.188 21.000,646.000 C21.000,652.999 21.000,660.001 21.000,667.000 C28.333,667.000 35.667,667.000 43.000,667.000 C43.000,670.000 43.000,673.000 43.000,676.000 C28.668,676.000 14.332,676.000 0.000,676.000 C0.000,673.000 0.000,670.000 0.000,667.000 C3.666,667.000 7.334,667.000 11.000,667.000 C11.000,644.336 11.000,621.664 11.000,599.000 C7.334,599.000 3.666,599.000 0.000,599.000 C0.000,596.000 0.000,593.000 0.000,590.000 zM85.000,590.000 C109.331,590.000 133.669,590.000 158.000,590.000 C158.000,599.666 158.000,609.334 158.000,619.000 C155.000,619.000 152.000,619.000 149.000,619.000 C149.000,612.334 149.000,605.666 149.000,599.000 C134.668,599.000 120.332,599.000 106.000,599.000 C106.000,608.999 106.000,619.001 106.000,629.000 C113.666,629.000 121.334,629.000 129.000,629.000 C129.000,625.334 129.000,621.666 129.000,618.000 C132.333,618.000 135.667,618.000 139.000,618.000 C139.000,628.332 139.000,638.668 139.000,649.000 C135.667,649.000 132.333,649.000 129.000,649.000 C129.000,645.334 129.000,641.666 129.000,638.000 C121.334,638.000 113.666,638.000 106.000,638.000 C106.000,647.666 106.000,657.334 106.000,667.000 C120.665,667.000 135.335,667.000 150.000,667.000 C150.000,660.334 150.000,653.666 150.000,647.000 C153.000,647.000 156.000,647.000 159.000,647.000 C159.000,656.666 159.000,666.334 159.000,676.000 C134.669,676.000 110.331,676.000 86.000,676.000 C86.000,673.000 86.000,670.000 86.000,667.000 C89.666,667.000 93.334,667.000 97.000,667.000 C97.000,644.336 97.000,621.664 97.000,599.000 C93.000,599.000 89.000,599.000 85.000,599.000 C85.000,596.000 85.000,593.000 85.000,590.000 zM174.000,590.000 C199.997,590.000 226.003,590.000 252.000,590.000 C252.000,600.332 252.000,610.668 252.000,621.000 C249.000,621.000 246.000,621.000 243.000,621.000 C243.000,613.667 243.000,606.333 243.000,599.000 C234.334,599.000 225.666,599.000 217.000,599.000 C217.000,621.664 217.000,644.336 217.000,667.000 C223.333,667.000 229.667,667.000 236.000,667.000 C236.000,670.000 236.000,673.000 236.000,676.000 C220.668,676.000 205.332,676.000 190.000,676.000 C190.000,673.000 190.000,670.000 190.000,667.000 C195.999,667.000 202.001,667.000 208.000,667.000 C208.000,644.336 208.000,621.664 208.000,599.000 C199.667,599.000 191.332,599.000 183.000,599.000 C183.000,606.333 183.000,613.667 183.000,621.000 C180.000,621.000 177.000,621.000 174.000,621.000 C174.000,610.668 174.000,600.332 174.000,590.000 zM263.000,590.000 C281.331,590.333 299.669,590.667 318.000,591.000 C347.615,601.864 328.846,630.791 311.000,640.000 C316.999,648.999 323.001,658.001 329.000,667.000 C333.999,667.000 339.001,667.000 344.000,667.000 C344.000,670.000 344.000,673.000 344.000,676.000 C336.176,676.275 326.918,676.361 322.000,674.000 C314.667,662.668 307.333,651.332 300.000,640.000 C294.667,640.000 289.333,640.000 284.000,640.000 C284.000,648.999 284.000,658.001 284.000,667.000 C288.000,667.000 292.000,667.000 296.000,667.000 C296.000,670.000 296.000,673.000 296.000,676.000 C285.001,676.000 273.999,676.000 263.000,676.000 C263.000,673.000 263.000,670.000 263.000,667.000 C267.000,667.000 271.000,667.000 275.000,667.000 C275.000,644.336 275.000,621.664 275.000,599.000 C271.000,599.000 267.000,599.000 263.000,599.000 C263.000,596.000 263.000,593.000 263.000,590.000 zM349.000,590.000 C361.332,590.000 373.668,590.000 386.000,590.000 C386.000,593.000 386.000,596.000 386.000,599.000 C380.667,599.000 375.333,599.000 370.000,599.000 C368.978,628.698 362.294,677.026 399.000,669.000 C422.193,663.929 416.949,626.997 416.000,599.000 C410.667,599.000 405.333,599.000 400.000,599.000 C400.000,596.000 400.000,593.000 400.000,590.000 C412.332,590.000 424.668,590.000 437.000,590.000 C437.000,593.000 437.000,596.000 437.000,599.000 C433.000,599.000 429.000,599.000 425.000,599.000 C426.115,637.572 432.228,688.137 385.000,678.000 C355.296,671.625 359.980,634.984 361.000,599.000 C357.000,599.000 353.000,599.000 349.000,599.000 C349.000,596.000 349.000,593.000 349.000,590.000 zM531.000,590.000 C541.666,590.000 552.334,590.000 563.000,590.000 C563.000,593.000 563.000,596.000 563.000,599.000 C559.000,599.000 555.000,599.000 551.000,599.000 C551.000,608.999 551.000,619.001 551.000,629.000 C564.332,629.000 577.668,629.000 591.000,629.000 C591.000,619.001 591.000,608.999 591.000,599.000 C587.334,599.000 583.666,599.000 580.000,599.000 C580.000,596.000 580.000,593.000 580.000,590.000 C590.666,590.000 601.334,590.000 612.000,590.000 C612.000,593.000 612.000,596.000 612.000,599.000 C608.000,599.000 604.000,599.000 600.000,599.000 C600.000,621.664 600.000,644.336 600.000,667.000 C604.000,667.000 608.000,667.000 612.000,667.000 C612.000,670.000 612.000,673.000 612.000,676.000 C601.334,676.000 590.666,676.000 580.000,676.000 C580.000,673.000 580.000,670.000 580.000,667.000 C583.666,667.000 587.334,667.000 591.000,667.000 C591.000,657.668 591.000,648.332 591.000,639.000 C577.668,639.000 564.332,639.000 551.000,639.000 C551.000,648.332 551.000,657.668 551.000,667.000 C555.000,667.000 559.000,667.000 563.000,667.000 C563.000,670.000 563.000,673.000 563.000,676.000 C552.334,676.000 541.666,676.000 531.000,676.000 C531.000,673.000 531.000,670.000 531.000,667.000 C534.666,667.000 538.334,667.000 542.000,667.000 C542.000,644.336 542.000,621.664 542.000,599.000 C538.334,599.000 534.666,599.000 531.000,599.000 C531.000,596.000 531.000,593.000 531.000,590.000 zM630.000,590.000 C642.665,590.000 655.335,590.000 668.000,590.000 C677.999,615.664 688.001,641.336 698.000,667.000 C701.000,667.000 704.000,667.000 707.000,667.000 C707.000,670.000 707.000,673.000 707.000,676.000 C696.334,676.000 685.666,676.000 675.000,676.000 C675.000,673.000 675.000,670.000 675.000,667.000 C679.666,667.000 684.334,667.000 689.000,667.000 C687.000,661.667 685.000,656.333 683.000,651.000 C668.668,651.000 654.332,651.000 640.000,651.000 C638.000,656.333 636.000,661.667 634.000,667.000 C638.666,667.333 643.334,667.667 648.000,668.000 C648.000,670.666 648.000,673.334 648.000,676.000 C637.001,676.000 625.999,676.000 615.000,676.000 C615.000,673.000 615.000,670.000 615.000,667.000 C618.333,667.000 621.667,667.000 625.000,667.000 C633.666,644.669 642.334,622.331 651.000,600.000 C651.000,599.667 651.000,599.333 651.000,599.000 C644.001,599.000 636.999,599.000 630.000,599.000 C630.000,596.000 630.000,593.000 630.000,590.000 zM709.000,590.000 C716.666,590.000 724.334,590.000 732.000,590.000 C738.666,606.332 745.334,622.668 752.000,639.000 C757.999,622.668 764.001,606.332 770.000,590.000 C777.666,590.000 785.334,590.000 793.000,590.000 C793.000,593.000 793.000,596.000 793.000,599.000 C790.667,599.000 788.333,599.000 786.000,599.000 C786.000,621.664 786.000,644.336 786.000,667.000 C788.333,667.000 790.667,667.000 793.000,667.000 C793.000,670.000 793.000,673.000 793.000,676.000 C784.668,676.000 776.332,676.000 768.000,676.000 C768.000,673.000 768.000,670.000 768.000,667.000 C771.000,667.000 774.000,667.000 777.000,667.000 C777.000,644.336 777.000,621.664 777.000,599.000 C776.333,599.333 775.667,599.667 775.000,600.000 C768.334,618.332 761.666,636.669 755.000,655.000 C752.334,655.000 749.666,655.000 747.000,655.000 C740.001,636.335 732.999,617.665 726.000,599.000 C725.667,599.000 725.333,599.000 725.000,599.000 C725.000,621.664 725.000,644.336 725.000,667.000 C728.000,667.000 731.000,667.000 734.000,667.000 C734.000,670.000 734.000,673.000 734.000,676.000 C725.668,676.000 717.332,676.000 709.000,676.000 C709.000,673.000 709.000,670.000 709.000,667.000 C711.333,667.000 713.667,667.000 716.000,667.000 C716.000,644.336 716.000,621.664 716.000,599.000 C713.667,599.000 711.333,599.000 709.000,599.000 C709.000,596.000 709.000,593.000 709.000,590.000 zM887.000,590.000 C895.333,590.000 903.667,590.000 912.000,590.000 C925.332,613.998 938.668,638.002 952.000,662.000 C952.333,662.000 952.667,662.000 953.000,662.000 C953.000,641.002 953.000,619.998 953.000,599.000 C947.667,599.000 942.333,599.000 937.000,599.000 C937.000,596.000 937.000,593.000 937.000,590.000 C949.332,590.000 961.668,590.000 974.000,590.000 C974.000,593.000 974.000,596.000 974.000,599.000 C970.000,599.000 966.000,599.000 962.000,599.000 C962.000,624.664 962.000,650.336 962.000,676.000 C958.000,676.000 954.000,676.000 950.000,676.000 C936.335,652.002 922.665,627.998 909.000,604.000 C908.667,604.000 908.333,604.000 908.000,604.000 C908.000,624.998 908.000,646.002 908.000,667.000 C913.666,667.333 919.334,667.667 925.000,668.000 C925.000,670.666 925.000,673.334 925.000,676.000 C912.335,676.000 899.665,676.000 887.000,676.000 C887.000,673.000 887.000,670.000 887.000,667.000 C891.000,667.000 895.000,667.000 899.000,667.000 C899.000,644.336 899.000,621.664 899.000,599.000 C895.000,599.000 891.000,599.000 887.000,599.000 C887.000,596.000 887.000,593.000 887.000,590.000 zM836.000,597.000 C797.739,615.712 805.986,678.309 847.000,669.000 C881.333,661.208 878.846,595.995 836.000,597.000 zM21.000,599.000 C21.000,611.665 21.000,624.335 21.000,637.000 C33.630,637.259 44.950,636.397 54.000,634.000 C59.933,626.459 63.016,620.909 60.000,609.000 C52.455,598.683 39.542,598.456 21.000,599.000 zM284.000,599.000 C284.000,609.666 284.000,620.334 284.000,631.000 C300.570,631.540 311.942,630.224 321.000,624.000 C323.705,615.143 323.084,611.215 320.000,603.000 C311.203,598.837 297.921,598.796 284.000,599.000 zM660.000,599.000 C654.667,613.332 649.333,627.668 644.000,642.000 C655.665,642.000 667.334,642.000 679.000,642.000 C674.827,630.783 669.074,605.898 660.000,599.000 zM243.000,750.000 C245.666,750.000 248.334,750.000 251.000,750.000 C251.000,754.666 251.000,759.334 251.000,764.000 C248.334,764.000 245.666,764.000 243.000,764.000 C243.000,759.334 243.000,754.666 243.000,750.000 zM686.000,753.000 C691.333,753.000 696.667,753.000 702.000,753.000 C702.000,762.332 702.000,771.668 702.000,781.000 C710.316,776.213 717.345,771.233 731.000,774.000 C740.661,781.279 739.499,798.734 739.000,816.000 C742.000,816.000 745.000,816.000 748.000,816.000 C748.000,818.333 748.000,820.667 748.000,823.000 C739.334,823.000 730.666,823.000 722.000,823.000 C722.333,820.667 722.667,818.333 723.000,816.000 C726.000,816.000 729.000,816.000 732.000,816.000 C732.397,802.845 732.537,788.975 728.000,781.000 C727.333,780.667 726.667,780.333 726.000,780.000 C713.246,779.764 709.184,784.124 702.000,789.000 C702.000,797.999 702.000,807.001 702.000,816.000 C705.333,816.333 708.667,816.667 712.000,817.000 C712.000,819.000 712.000,821.000 712.000,823.000 C703.334,823.000 694.666,823.000 686.000,823.000 C686.000,820.667 686.000,818.333 686.000,816.000 C689.000,816.000 692.000,816.000 695.000,816.000 C695.000,797.335 695.000,778.665 695.000,760.000 C692.000,760.000 689.000,760.000 686.000,760.000 C686.000,757.667 686.000,755.333 686.000,753.000 zM846.000,774.000 C853.999,774.000 862.001,774.000 870.000,774.000 C870.000,776.333 870.000,778.667 870.000,781.000 C862.001,781.000 853.999,781.000 846.000,781.000 C846.000,792.666 846.000,804.335 846.000,816.000 C853.999,816.000 862.001,816.000 870.000,816.000 C870.000,818.333 870.000,820.667 870.000,823.000 C855.668,823.000 841.332,823.000 827.000,823.000 C827.000,820.667 827.000,818.333 827.000,816.000 C831.000,816.000 835.000,816.000 839.000,816.000 C839.000,804.335 839.000,792.666 839.000,781.000 C835.000,781.000 831.000,781.000 827.000,781.000 C827.000,778.667 827.000,776.333 827.000,774.000 C831.000,774.000 835.000,774.000 839.000,774.000 C839.333,769.667 839.667,765.333 840.000,761.000 C844.944,750.322 861.297,752.771 875.000,754.000 C874.333,756.333 873.667,758.667 873.000,761.000 C864.244,760.251 854.337,759.914 847.000,762.000 C846.667,762.667 846.333,763.333 846.000,764.000 C846.000,767.333 846.000,770.667 846.000,774.000 zM671.000,757.000 C673.333,757.000 675.667,757.000 678.000,757.000 C678.000,765.332 678.000,773.668 678.000,782.000 C675.667,782.000 673.333,782.000 671.000,782.000 C671.212,777.171 671.246,774.226 669.000,772.000 C655.063,753.288 623.486,770.277 630.000,798.000 C635.743,822.443 657.241,816.876 676.000,811.000 C676.333,811.667 676.667,812.333 677.000,813.000 C677.000,814.667 677.000,816.333 677.000,818.000 C655.692,825.872 631.984,827.761 624.000,804.000 C611.311,766.235 644.031,753.404 671.000,763.000 C671.000,761.000 671.000,759.000 671.000,757.000 zM89.000,759.000 C108.604,758.075 133.593,756.290 140.000,769.000 C152.619,794.032 126.769,802.072 104.000,801.000 C104.000,805.999 104.000,811.000 104.000,816.000 C109.666,816.000 115.334,816.000 121.000,816.000 C121.000,818.333 121.000,820.667 121.000,823.000 C110.334,823.000 99.666,823.000 89.000,823.000 C89.000,820.667 89.000,818.333 89.000,816.000 C91.666,816.000 94.334,816.000 97.000,816.000 C97.000,799.335 97.000,782.665 97.000,766.000 C94.334,766.000 91.666,766.000 89.000,766.000 C89.000,763.667 89.000,761.333 89.000,759.000 zM430.000,760.000 C432.333,760.000 434.667,760.000 437.000,760.000 C437.000,764.666 437.000,769.334 437.000,774.000 C446.666,774.000 456.334,774.000 466.000,774.000 C466.000,776.333 466.000,778.667 466.000,781.000 C456.334,781.000 446.666,781.000 437.000,781.000 C436.513,791.896 434.747,810.290 441.000,815.000 C450.249,821.665 462.446,814.182 472.000,812.000 C472.000,814.333 472.000,816.667 472.000,819.000 C458.387,823.016 448.159,825.624 434.000,821.000 C430.167,811.142 429.825,796.213 430.000,781.000 C427.334,781.000 424.666,781.000 422.000,781.000 C422.000,778.667 422.000,776.333 422.000,774.000 C424.666,774.000 427.334,774.000 430.000,774.000 C430.000,769.334 430.000,764.666 430.000,760.000 zM104.000,766.000 C104.000,775.332 104.000,784.668 104.000,794.000 C127.836,795.622 142.982,785.678 129.000,768.000 C122.340,766.341 113.278,765.899 104.000,766.000 zM176.000,816.000 C182.999,816.000 190.001,816.000 197.000,816.000 C197.000,818.333 197.000,820.667 197.000,823.000 C183.001,823.000 168.999,823.000 155.000,823.000 C155.000,820.667 155.000,818.333 155.000,816.000 C159.333,816.000 163.667,816.000 168.000,816.000 C168.000,804.335 168.000,792.666 168.000,781.000 C163.667,781.000 159.333,781.000 155.000,781.000 C155.000,778.667 155.000,776.333 155.000,774.000 C161.999,774.000 169.001,774.000 176.000,774.000 C176.000,778.000 176.000,782.000 176.000,786.000 C184.636,779.150 190.826,770.716 207.000,774.000 C208.333,777.000 209.667,780.000 211.000,783.000 C210.667,783.333 210.333,783.667 210.000,784.000 C192.945,781.452 185.980,781.211 176.000,795.000 C176.000,801.999 176.000,809.001 176.000,816.000 zM400.000,816.000 C403.333,816.333 406.667,816.667 410.000,817.000 C410.000,819.000 410.000,821.000 410.000,823.000 C404.667,823.000 399.333,823.000 394.000,823.000 C394.000,820.334 394.000,817.666 394.000,815.000 C384.376,821.187 341.498,833.569 355.000,804.000 C360.169,792.396 376.935,791.331 393.000,794.000 C393.000,791.667 393.000,789.333 393.000,787.000 C391.000,785.000 389.000,783.000 387.000,781.000 C377.042,778.103 368.197,782.260 360.000,784.000 C359.333,782.000 358.667,780.000 358.000,778.000 C370.717,772.448 386.960,771.374 398.000,779.000 C400.586,788.480 400.122,803.505 400.000,816.000 zM541.000,800.000 C525.668,800.000 510.332,800.000 495.000,800.000 C495.000,800.333 495.000,800.667 495.000,801.000 C496.833,807.012 497.711,811.327 503.000,814.000 C513.189,823.152 530.590,814.395 540.000,811.000 C540.667,813.000 541.333,815.000 542.000,817.000 C541.333,817.333 540.667,817.667 540.000,818.000 C519.639,834.705 473.884,819.566 490.000,787.000 C501.184,764.401 541.290,769.451 541.000,800.000 zM809.000,800.000 C793.668,800.000 778.332,800.000 763.000,800.000 C763.000,801.000 763.000,802.000 763.000,803.000 C765.122,808.695 766.602,812.485 772.000,815.000 C783.587,822.120 798.158,814.457 808.000,811.000 C808.000,813.666 808.000,816.334 808.000,819.000 C786.854,826.415 743.222,826.464 757.000,789.000 C766.223,763.921 808.691,768.987 809.000,800.000 zM227.000,774.000 C234.999,774.000 243.001,774.000 251.000,774.000 C251.000,787.999 251.000,802.001 251.000,816.000 C257.666,816.000 264.334,816.000 271.000,816.000 C271.000,818.333 271.000,820.667 271.000,823.000 C255.668,823.000 240.332,823.000 225.000,823.000 C225.000,820.667 225.000,818.333 225.000,816.000 C231.333,816.000 237.667,816.000 244.000,816.000 C244.000,804.335 244.000,792.666 244.000,781.000 C238.334,781.000 232.666,781.000 227.000,781.000 C227.000,778.667 227.000,776.333 227.000,774.000 zM282.000,774.000 C290.332,774.000 298.668,774.000 307.000,774.000 C307.000,776.333 307.000,778.667 307.000,781.000 C304.334,781.000 301.666,781.000 299.000,781.000 C304.000,792.332 309.001,803.668 314.000,815.000 C314.667,814.667 315.333,814.333 316.000,814.000 C320.666,803.001 325.334,791.999 330.000,781.000 C327.334,781.000 324.666,781.000 322.000,781.000 C322.000,778.667 322.000,776.333 322.000,774.000 C330.332,774.000 338.668,774.000 347.000,774.000 C347.000,776.333 347.000,778.667 347.000,781.000 C344.000,781.000 341.000,781.000 338.000,781.000 C331.667,794.999 325.333,809.001 319.000,823.000 C316.000,823.000 313.000,823.000 310.000,823.000 C304.001,809.001 297.999,794.999 292.000,781.000 C288.667,781.000 285.333,781.000 282.000,781.000 C282.000,778.667 282.000,776.333 282.000,774.000 zM510.000,780.000 C503.031,783.595 498.027,784.296 496.000,793.000 C508.332,793.000 520.668,793.000 533.000,793.000 C531.334,789.667 529.667,786.333 528.000,783.000 C522.416,781.302 518.292,779.986 510.000,780.000 zM777.000,780.000 C770.744,783.779 765.958,784.695 764.000,793.000 C776.332,793.000 788.668,793.000 801.000,793.000 C798.844,782.314 790.625,779.263 777.000,780.000 zM370.000,800.000 C367.000,802.000 364.000,804.000 361.000,806.000 C361.333,808.666 361.667,811.334 362.000,814.000 C375.048,821.181 383.885,814.278 393.000,807.000 C393.000,805.000 393.000,803.000 393.000,801.000 C392.000,801.000 391.000,801.000 390.000,801.000 C383.334,800.667 376.666,800.333 370.000,800.000 z" fill="#000000" /></svg>