<?xml version="1.0" encoding="UTF-8"?>
<svg version="1.1" xmlns="http://www.w3.org/2000/svg" width="556" height="496">
<path d="M0 0 C2.67505993 2.67505993 4.74200426 5.13006393 5 9 C4.34 9.99 3.68 10.98 3 12 C1.38544922 12.26490234 1.38544922 12.26490234 -0.26171875 12.53515625 C-2.92454272 13.21342923 -3.83905862 13.78976679 -5.53369141 16.00341797 C-7.07483275 18.77007068 -8.46109068 21.57331906 -9.8125 24.4375 C-10.86010455 26.55106513 -11.90828957 28.66434263 -12.95703125 30.77734375 C-13.47088379 31.8329248 -13.98473633 32.88850586 -14.51416016 33.97607422 C-16.58874894 38.19819986 -18.78734852 42.34909272 -21 46.5 C-23.63989233 51.49748863 -26.26440362 56.50260882 -28.8671875 61.51953125 C-33.76471725 70.95623492 -38.70418953 80.36291458 -43.8125 89.6875 C-56.57056388 112.98900471 -68.91328891 136.47051945 -80.98377991 160.13394165 C-84.10296146 166.24806161 -87.23443042 172.35577061 -90.37109375 178.4609375 C-101.17984796 199.51221303 -111.87351879 220.62039862 -122.47816849 241.77511215 C-123.4235939 243.65977877 -124.37049263 245.54369782 -125.31784058 247.42739868 C-132.21471077 261.14572674 -138.96156841 274.87944904 -145 289 C-140.21313297 284.87585579 -135.51523731 280.66345036 -130.875 276.375 C-130.32521484 275.86710937 -129.77542969 275.35921875 -129.20898438 274.8359375 C-126.26199631 272.10837008 -123.32630348 269.36942889 -120.40234375 266.6171875 C-113.82038399 260.43291574 -107.20654668 254.46014266 -100 249 C-99.17894775 248.36215576 -99.17894775 248.36215576 -98.34130859 247.71142578 C-76.83183074 231.02595789 -76.83183074 231.02595789 -66.625 230.25 C-59.25085972 231.7756842 -54.23123684 235.90204103 -50 242 C-47.61041187 247.4561298 -47.6720663 252.69210656 -47.62109375 258.54296875 C-47.60409927 259.54838211 -47.5871048 260.55379547 -47.56959534 261.5896759 C-47.51664353 264.78888747 -47.47623847 267.98808726 -47.4375 271.1875 C-47.39353974 274.39756011 -47.34684385 277.60752136 -47.29469299 280.81745911 C-47.26279006 282.81175784 -47.23588319 284.80614402 -47.21446228 286.80058289 C-47.20097244 287.70194473 -47.1874826 288.60330658 -47.17358398 289.53198242 C-47.16407211 290.32440842 -47.15456024 291.11683441 -47.14476013 291.93327332 C-47.07236715 294.19817936 -47.07236715 294.19817936 -46 297 C-36.22127623 292.95687383 -28.27461969 286.44206671 -20 280 C-18.78416824 279.06469575 -17.56803582 278.12978217 -16.3515625 277.1953125 C-6.15133442 269.31486874 3.64717091 260.97867571 13.1875 252.3125 C14.36505859 251.25869141 14.36505859 251.25869141 15.56640625 250.18359375 C17.31968532 248.61042682 19.05454644 247.01664656 20.77734375 245.41015625 C27.6757403 239.26878538 27.6757403 239.26878538 31.3671875 238.51953125 C33.5 238.6875 33.5 238.6875 37 240 C38.71875 242.08203125 38.71875 242.08203125 40 244 C32.07312426 253.44191001 23.50401464 262.02783603 13.85546875 269.703125 C11.35905789 271.71118189 8.93198705 273.77976201 6.51586914 275.88305664 C-4.53057397 285.44980606 -16.4478347 293.91225756 -28.8125 301.6875 C-29.46387939 302.09750244 -30.11525879 302.50750488 -30.78637695 302.92993164 C-37.24841856 306.90938099 -42.39330782 309.06171145 -50 308 C-55.4393432 305.43427208 -57.474523 302.23802637 -60 297 C-60.89406825 294.07292898 -61.16763911 291.34776124 -61.28125 288.29492188 C-61.33635742 286.9032782 -61.33635742 286.9032782 -61.39257812 285.48352051 C-61.44575195 283.99120911 -61.44575195 283.99120911 -61.5 282.46875 C-61.54060547 281.44068237 -61.58121094 280.41261475 -61.62304688 279.35339355 C-61.79657235 274.95669191 -61.96031203 270.55963775 -62.125 266.16259766 C-62.24663843 262.95200838 -62.37319964 259.74163887 -62.5 256.53125 C-62.55317383 255.0389386 -62.55317383 255.0389386 -62.60742188 253.51647949 C-62.6625293 252.12483582 -62.6625293 252.12483582 -62.71875 250.70507812 C-62.74904297 249.89107544 -62.77933594 249.07707275 -62.81054688 248.23840332 C-62.99489139 246.06035866 -63.40616626 244.0999055 -64 242 C-81.42168906 245.09718917 -100.17943423 266.95317921 -112.25561523 279.2878418 C-113.99048164 280.99065749 -115.78739317 282.56735522 -117.63671875 284.14453125 C-122.31245054 288.21341502 -126.69229117 292.54505092 -131.0625 296.9375 C-131.82626953 297.69740234 -132.59003906 298.45730469 -133.37695312 299.24023438 C-137.57801758 303.44848628 -141.59483449 307.7503559 -145.47436523 312.25610352 C-147.38649614 314.4417894 -149.4161588 316.47836302 -151.5 318.5 C-154.43814706 321.37329832 -157.10400084 324.30627035 -159.6875 327.5 C-161.82383209 329.94502227 -162.9134928 330.96134785 -165.9375 332.3125 C-170.41656202 331.85545286 -173.42527296 329.62207136 -177 327 C-176.38819427 323.46012596 -175.451352 320.36292448 -174.05859375 317.0546875 C-173.64810791 316.07822266 -173.23762207 315.10175781 -172.81469727 314.09570312 C-172.36022217 313.03287109 -171.90574707 311.97003906 -171.4375 310.875 C-170.95788818 309.74771484 -170.47827637 308.62042969 -169.98413086 307.45898438 C-163.88778851 293.24982458 -157.40641601 279.21438184 -150.92626953 265.17724609 C-149.13934322 261.30544247 -147.36341086 257.4287227 -145.58984375 253.55078125 C-140.26351678 241.92251297 -134.8097478 230.39460214 -129 219 C-127.32892207 215.66886628 -125.66365004 212.33484877 -124 209 C-124.96897217 209.32162109 -125.93794434 209.64324219 -126.9362793 209.97460938 C-147.07322076 216.64422937 -167.20965707 222.96750502 -187.72192383 228.39465332 C-191.29766038 229.34482359 -194.87015744 230.30699462 -198.44299316 231.26800537 C-203.54453006 232.63998402 -208.64718559 234.00778163 -213.75 235.375 C-214.73983887 235.64038574 -215.72967773 235.90577148 -216.74951172 236.17919922 C-219.59806067 236.94194098 -222.44734278 237.7018784 -225.296875 238.4609375 C-226.14264099 238.68768158 -226.98840698 238.91442566 -227.85980225 239.14804077 C-232.63247408 240.41597325 -237.39233991 241.5279651 -242.24763489 242.43623352 C-244.2508985 242.86462374 -244.2508985 242.86462374 -245.27734375 245.20703125 C-245.51582031 246.12871094 -245.75429687 247.05039063 -246 248 C-247.47583551 250.28489468 -248.96867457 252.48908888 -250.5625 254.6875 C-251.00940186 255.30616943 -251.45630371 255.92483887 -251.91674805 256.56225586 C-255.9366372 262.0470259 -260.2807852 267.1012905 -265 272 C-265.47808105 272.5038623 -265.95616211 273.00772461 -266.44873047 273.52685547 C-276.75073472 284.34899878 -287.74802411 293.90708002 -301 301 C-301.74765625 301.40089844 -302.4953125 301.80179687 -303.265625 302.21484375 C-309.21031012 305.13522228 -315.69855655 307.25859791 -322.26953125 305.3359375 C-327.2838451 303.04740094 -330.50948743 299.98102514 -333 295 C-333.06076338 288.92366159 -331.88743484 284.76210768 -328 280 C-327.41476562 279.27296875 -326.82953125 278.5459375 -326.2265625 277.796875 C-311.45801159 260.33814195 -289.94816441 247.6069689 -269.76171875 237.35546875 C-268.80910156 236.86691406 -267.85648438 236.37835938 -266.875 235.875 C-266.06804687 235.48054687 -265.26109375 235.08609375 -264.4296875 234.6796875 C-257.40833129 229.82569527 -254.1284749 222.86452558 -250.875 215.1875 C-250.44268066 214.17139648 -250.01036133 213.15529297 -249.56494141 212.10839844 C-244.49955364 199.82738602 -241.74100131 188.16894341 -241.5 174.875 C-241.48114746 174.10510742 -241.46229492 173.33521484 -241.44287109 172.54199219 C-241.50679808 167.01532295 -242.85261408 162.59115432 -246 158 C-246.66 157.67 -247.32 157.34 -248 157 C-264.91357645 165.17143647 -279.01727413 179.88269948 -291 194 C-292.23363281 195.43472656 -292.23363281 195.43472656 -293.4921875 196.8984375 C-299.75595791 204.20974035 -305.78207983 211.68312692 -311.67675781 219.29443359 C-312.94274525 220.92620264 -314.21650464 222.5515871 -315.4921875 224.17578125 C-322.29829845 232.90630376 -328.71557269 241.88787995 -335 251 C-335.50321777 251.72880371 -336.00643555 252.45760742 -336.52490234 253.20849609 C-343.80112541 263.79868889 -350.51731574 274.6294242 -356.79199219 285.84228516 C-357.5371103 287.17319742 -358.28680514 288.50157363 -359.04394531 289.82568359 C-369.89181696 308.80121591 -377.99607021 329.44025121 -386.38153076 349.59341431 C-391.5099212 361.91649212 -396.87918892 374.12050514 -402.34423828 386.29833984 C-404.15748826 390.34565348 -405.95218814 394.40111473 -407.74609375 398.45703125 C-419.45763728 424.92615533 -431.28450421 451.34270486 -443.8125 477.4375 C-444.10763489 478.05527313 -444.40276978 478.67304626 -444.70684814 479.30953979 C-445.53535079 481.04074066 -446.37102431 482.76850426 -447.20703125 484.49609375 C-447.6760083 485.46732178 -448.14498535 486.4385498 -448.62817383 487.43920898 C-449.92332624 489.85687292 -451.18435508 491.9445585 -453 494 C-455.75 494.625 -455.75 494.625 -459 494 C-463.06566155 491.37426025 -466.14839739 488.52004305 -468 484 C-466.86893777 475.57315467 -463.36731709 467.82737789 -460.1875 460 C-459.89087463 459.26378418 -459.59424927 458.52756836 -459.28863525 457.76904297 C-446.57565159 426.22928091 -433.03851541 394.97147883 -419 364 C-418.70134033 363.34036255 -418.40268066 362.6807251 -418.0949707 362.00109863 C-408.35787036 340.49884907 -398.59826702 319.00163121 -387.9375 297.9375 C-381.00987787 284.19605651 -374.68638678 270.21595819 -369.31152344 255.79443359 C-358.59084995 227.0644958 -346.76499739 198.71907597 -334.0625 170.8125 C-333.40761597 169.36967651 -333.40761597 169.36967651 -332.73950195 167.89770508 C-324.99717282 151.07167971 -324.99717282 151.07167971 -321 148 C-315.35791839 148.64745199 -312.06998847 150.2601405 -307.93359375 154.07421875 C-306.43126937 157.17315565 -307.35342872 159.67829852 -308 163 C-308.89915783 165.35795258 -309.88891234 167.68263977 -310.94921875 169.97265625 C-311.24431839 170.61762558 -311.53941803 171.26259491 -311.84346008 171.92710876 C-312.78299264 173.97627191 -313.73467599 176.01948833 -314.6875 178.0625 C-315.92364781 180.73947299 -317.15503679 183.41862626 -318.38671875 186.09765625 C-318.6883493 186.75118073 -318.98997986 187.4047052 -319.30075073 188.07803345 C-322.33042507 194.66387017 -325.18273456 201.32080651 -328 208 C-325.07911503 205.12855305 -322.27762172 202.25390379 -319.6953125 199.07421875 C-319.11136719 198.35943359 -318.52742187 197.64464844 -317.92578125 196.90820312 C-317.33152344 196.17537109 -316.73726562 195.44253906 -316.125 194.6875 C-311.52137719 189.02656162 -306.83033411 183.46882655 -302 178 C-300.87851562 176.70449219 -300.87851562 176.70449219 -299.734375 175.3828125 C-289.19207446 163.38783275 -274.56266488 147.96193642 -258 145 C-255.71130596 144.85661194 -253.41799044 144.77958697 -251.125 144.75 C-249.93132812 144.72421875 -248.73765625 144.6984375 -247.5078125 144.671875 C-241.3547373 145.24744105 -236.15022287 148.45824667 -232 153 C-222.75371435 167.00952371 -222.49018762 181.87250476 -225.6875 197.9375 C-227.53493474 206.81575815 -230.0767713 215.42200104 -233 224 C-197.72020988 216.25962161 -163.12765241 205.85033318 -129.5 192.625 C-128.354104 192.17918579 -128.354104 192.17918579 -127.18505859 191.72436523 C-122.69172844 189.90350202 -118.74879473 187.70391305 -114.74414062 184.96630859 C-113 184 -113 184 -110 184 C-109.74653809 183.16404297 -109.49307617 182.32808594 -109.23193359 181.46679688 C-107.87531074 177.64911069 -106.15207004 174.11783973 -104.2890625 170.53125 C-103.74295822 169.46837769 -103.74295822 169.46837769 -103.18582153 168.3840332 C-102.00352545 166.08692562 -100.81458527 163.79334015 -99.625 161.5 C-98.80103733 159.90433273 -97.97714457 158.30862936 -97.15332031 156.71289062 C-92.33109187 147.39200627 -87.4140707 138.13106811 -82.33837891 128.9453125 C-78.43378154 121.8602382 -74.70460694 114.69138461 -71 107.5 C-65.3371379 96.51488167 -59.48925123 85.64714808 -53.54052734 74.81494141 C-50.77599369 69.76342429 -48.0433143 64.69480437 -45.3125 59.625 C-44.74007568 58.5632959 -44.16765137 57.5015918 -43.57788086 56.40771484 C-40.21631461 50.16013222 -36.88524351 43.89761467 -33.578125 37.62109375 C-32.81995781 36.18470552 -32.0617385 34.74834479 -31.3034668 33.31201172 C-29.84655313 30.55203635 -28.39579088 27.7889495 -26.94848633 25.02392578 C-11.4617764 -4.42384352 -11.4617764 -4.42384352 0 0 Z M-290 269 C-293.3 271.97 -296.6 274.94 -300 278 C-296.03869629 278 -295.17085599 276.65122875 -292.3125 274 C-291.50425781 273.2575 -290.69601562 272.515 -289.86328125 271.75 C-289.24839844 271.1725 -288.63351562 270.595 -288 270 C-288.66 269.67 -289.32 269.34 -290 269 Z " fill="#FBFBFB" transform="translate(468,2)"/>
<path d="M0 0 C3.9788178 4.45248659 6 9.25420364 6 15.25 C3.91347608 23.07446471 -0.33986209 29.411905 -7 34 C-10.65288193 35.21762731 -13.15754136 35.39075851 -17 35 C-19.9375 32.75 -19.9375 32.75 -21.3984375 31.36328125 C-23.18766156 29.84025882 -24.93923821 28.93551256 -27.0625 27.9375 C-32.3462299 25.4166365 -36.74232801 22.58476756 -39 17 C-39.6887615 10.82945175 -39.78752506 5.17628425 -36 0 C-24.95092032 -8.83926374 -11.74094016 -6.80316159 0 0 Z " fill="#FBFBFB" transform="translate(550,296)"/>
</svg>
