<svg version="1.1" xmlns="http://www.w3.org/2000/svg" xmlns:xlink="http://www.w3.org/1999/xlink" width="925" height="252" viewBox="0 0 925 252"><path id="Calque-7" d="M814.000,-0.000 C822.666,0.333 831.334,0.667 840.000,1.000 C856.004,7.356 865.583,37.334 851.000,53.000 C834.152,71.098 797.543,61.941 774.000,74.000 C757.942,82.225 744.022,115.588 728.000,126.000 C702.669,132.999 677.331,140.001 652.000,147.000 C584.007,164.998 515.993,183.002 448.000,201.000 C448.000,201.333 448.000,201.667 448.000,202.000 C448.667,202.000 449.333,202.000 450.000,202.000 C494.377,235.882 622.458,225.992 701.000,226.000 C731.298,226.003 769.580,230.128 795.000,223.000 C819.251,216.199 839.224,201.670 859.000,190.000 C879.550,177.874 901.886,169.209 925.000,160.000 C924.667,163.000 924.333,166.000 924.000,169.000 C871.727,177.961 840.907,221.784 788.000,232.000 C754.670,232.000 721.330,232.000 688.000,232.000 C629.482,232.002 558.882,239.341 507.000,228.000 C491.668,223.667 476.332,219.333 461.000,215.000 C453.334,211.000 445.666,207.000 438.000,203.000 C391.671,214.665 345.329,226.335 299.000,238.000 C284.481,242.017 241.189,256.795 225.000,252.000 C209.660,247.457 183.433,231.874 163.000,234.000 C130.968,237.333 96.120,271.763 67.000,237.000 C66.667,237.000 66.333,237.000 66.000,237.000 C64.640,244.071 60.857,248.465 56.000,252.000 C18.917,251.469 32.024,201.109 23.000,172.000 C18.372,157.072 8.218,148.933 -0.000,138.000 C0.333,135.334 0.667,132.666 1.000,130.000 C2.333,131.333 3.667,132.667 5.000,134.000 C42.827,154.791 19.169,224.922 52.000,245.000 C53.000,244.667 54.000,244.333 55.000,244.000 C63.671,231.360 60.385,205.827 72.000,196.000 C92.107,178.987 133.945,187.014 157.000,172.000 C175.946,159.662 191.332,134.251 213.000,125.000 C367.651,84.671 522.349,44.329 677.000,4.000 C708.117,-3.548 730.595,21.529 755.000,26.000 C769.247,28.610 803.671,6.286 814.000,-0.000 zM822.000,5.000 C797.661,16.322 781.657,25.235 754.000,33.000 C759.190,44.212 759.859,60.145 766.000,73.000 C785.542,62.079 825.967,64.761 844.000,51.000 C864.985,34.986 847.821,4.839 822.000,5.000 zM687.000,8.000 C671.002,12.000 654.998,16.000 639.000,20.000 C567.086,41.336 493.455,48.177 443.000,92.000 C404.435,125.496 397.992,160.651 439.000,196.000 C462.331,190.001 485.669,183.999 509.000,178.000 C554.995,166.001 601.005,153.999 647.000,142.000 C673.331,134.667 699.669,127.333 726.000,120.000 C751.670,99.116 722.868,24.845 708.000,14.000 C702.853,10.245 695.099,8.651 687.000,8.000 zM723.000,20.000 C725.459,34.187 735.171,46.734 739.000,62.000 C740.000,74.999 741.000,88.001 742.000,101.000 C770.941,78.307 757.706,28.675 723.000,20.000 zM463.000,66.000 C398.007,83.332 332.993,100.668 268.000,118.000 C230.493,128.515 184.445,127.015 195.000,185.000 C198.306,203.164 205.981,232.947 219.000,242.000 C236.744,254.338 330.746,223.893 354.000,217.000 C367.910,212.877 427.791,203.088 430.000,196.000 C383.391,169.757 408.849,112.832 437.000,88.000 C443.263,82.475 463.194,70.431 463.000,66.000 zM189.000,151.000 C162.290,171.545 155.668,196.685 177.000,230.000 C186.543,232.689 195.008,237.005 206.000,236.000 C206.000,235.667 206.000,235.333 206.000,235.000 C198.016,218.274 191.458,201.047 188.000,179.000 C188.333,169.668 188.667,160.332 189.000,151.000 zM155.000,179.000 C136.014,196.798 84.368,199.184 69.000,214.000 C67.436,271.104 139.135,234.298 168.000,228.000 C168.000,227.667 168.000,227.333 168.000,227.000 C161.250,213.314 157.957,198.847 159.000,179.000 C157.667,179.000 156.333,179.000 155.000,179.000 zM111.000,187.000 C95.606,193.066 83.142,192.311 74.000,204.000 C75.000,204.000 76.000,204.000 77.000,204.000 C91.102,199.011 113.537,196.376 124.000,187.000 C119.667,187.000 115.333,187.000 111.000,187.000 z" fill="white" /></svg>
