<svg version="1.1" xmlns="http://www.w3.org/2000/svg" xmlns:xlink="http://www.w3.org/1999/xlink" width="925" height="463" viewBox="0 0 925 463"><path id="Calque-8" d="M460.000,0.000 C489.387,-0.235 561.736,-5.644 579.000,6.000 C591.364,14.339 596.493,39.718 605.000,52.000 C610.999,53.000 617.001,54.000 623.000,55.000 C626.060,50.280 631.000,43.544 637.000,42.000 C652.029,38.133 712.349,50.946 716.000,57.000 C717.927,59.652 718.985,63.068 718.000,66.000 C716.108,72.615 712.772,71.747 708.000,75.000 C731.914,82.062 740.019,101.557 740.000,133.000 C739.995,141.160 740.643,148.716 737.000,153.000 C735.259,155.660 735.083,155.615 732.000,157.000 C709.297,162.727 632.895,152.028 619.000,143.000 C606.825,135.090 601.929,113.361 589.000,108.000 C570.845,100.471 431.440,100.590 409.000,107.000 C389.849,112.470 388.462,144.282 378.000,159.000 C370.671,169.310 355.946,169.473 347.000,178.000 C351.973,192.020 348.750,210.713 352.000,230.000 C356.999,250.331 362.001,270.669 367.000,291.000 C385.373,333.983 415.614,365.935 460.000,383.000 C519.969,406.057 578.787,368.644 598.000,333.000 C645.078,245.663 557.504,141.032 463.000,177.000 C414.225,195.564 398.959,227.116 389.000,286.000 C387.334,287.666 385.666,289.334 384.000,291.000 C377.099,290.834 376.730,289.638 373.000,287.000 C334.579,195.977 435.340,107.399 532.000,130.000 C594.142,144.530 637.063,185.744 652.000,247.000 C682.783,373.234 554.909,459.508 441.000,420.000 C417.404,411.816 396.747,398.308 379.000,384.000 C370.015,376.756 364.870,359.411 354.000,355.000 C318.163,425.139 191.607,411.442 134.000,371.000 C133.000,371.667 132.000,372.333 131.000,373.000 C130.685,403.965 129.749,434.282 149.000,446.000 C174.454,461.494 236.988,448.432 273.000,454.000 C311.663,454.667 350.337,455.333 389.000,456.000 C413.664,456.000 438.336,456.000 463.000,456.000 C496.330,455.667 529.670,455.333 563.000,455.000 C610.308,447.562 666.148,463.261 708.000,449.000 C749.389,434.896 735.152,284.969 735.000,227.000 C734.941,204.466 725.992,165.412 740.000,155.000 C764.389,136.872 832.424,123.814 875.000,131.000 C890.429,133.604 923.435,132.184 925.000,148.000 C924.667,148.000 924.333,148.000 924.000,148.000 C885.079,132.277 757.727,131.889 741.000,166.000 C741.333,186.665 741.667,207.335 742.000,228.000 C742.000,243.332 742.000,258.668 742.000,274.000 C741.667,303.664 741.333,333.336 741.000,363.000 C735.620,398.737 746.257,432.271 723.000,449.000 C693.232,470.413 629.197,454.456 585.000,461.000 C538.204,467.929 481.228,462.999 431.000,463.000 C372.570,463.001 310.883,468.270 256.000,460.000 C220.429,454.640 173.326,468.117 147.000,453.000 C117.934,436.310 129.696,404.906 123.000,366.000 C86.624,348.821 47.728,328.876 -0.000,324.000 C-0.000,321.667 -0.000,319.333 -0.000,317.000 C0.333,317.000 0.667,317.000 1.000,317.000 C20.331,321.333 39.669,325.667 59.000,330.000 C80.331,338.999 101.669,348.001 123.000,357.000 C123.333,356.667 123.667,356.333 124.000,356.000 C124.333,297.006 124.667,237.994 125.000,179.000 C128.936,154.068 122.833,130.290 131.000,112.000 C141.002,89.601 165.554,73.934 191.000,67.000 C229.639,56.470 287.630,62.997 333.000,63.000 C349.332,62.000 365.668,61.000 382.000,60.000 C395.759,55.215 398.814,21.612 408.000,11.000 C419.355,-2.117 441.786,7.084 460.000,0.000 zM449.000,7.000 C435.453,12.485 419.091,7.459 411.000,18.000 C402.159,29.517 401.786,59.004 388.000,65.000 C357.190,78.400 305.402,60.883 270.000,70.000 C275.174,103.405 211.207,107.123 194.000,89.000 C193.968,80.626 195.920,78.689 199.000,74.000 C168.875,74.917 143.183,97.525 135.000,121.000 C126.050,146.675 130.002,185.589 130.000,217.000 C129.997,261.587 124.789,315.794 131.000,362.000 C188.255,383.861 246.921,421.394 315.000,381.000 C327.049,373.851 339.646,366.600 347.000,355.000 C357.247,338.836 337.323,318.568 348.000,300.000 C348.667,299.667 349.333,299.333 350.000,299.000 C351.667,299.333 353.334,299.667 355.000,300.000 C378.815,312.026 355.620,334.229 361.000,350.000 C366.101,364.953 386.202,382.969 399.000,391.000 C484.974,444.952 590.673,427.602 632.000,344.000 C641.189,325.411 653.623,299.831 648.000,267.000 C628.619,153.833 502.242,86.356 405.000,172.000 C389.034,186.062 346.807,257.622 381.000,284.000 C394.327,225.190 409.106,189.803 460.000,170.000 C569.204,127.508 659.454,260.591 598.000,346.000 C570.025,384.881 503.372,411.986 444.000,384.000 C401.649,364.037 374.426,327.941 357.000,283.000 C351.074,267.718 345.824,183.449 337.000,178.000 C319.541,167.219 244.080,176.841 216.000,177.000 C214.667,176.000 213.333,175.000 212.000,174.000 C210.672,165.126 213.768,158.086 221.000,155.000 C227.309,151.638 288.537,149.987 299.000,153.000 C305.825,154.965 306.009,162.834 311.000,166.000 C318.209,170.573 345.171,170.724 354.000,168.000 C383.765,158.818 376.821,116.774 400.000,103.000 C416.601,93.135 556.745,93.816 583.000,99.000 C604.587,103.262 603.282,121.996 617.000,133.000 C628.925,142.566 709.761,157.852 732.000,148.000 C734.679,54.439 683.904,85.778 620.000,62.000 C613.667,60.667 607.333,59.333 601.000,58.000 C587.386,48.696 588.761,22.110 575.000,13.000 C556.474,0.889 479.892,6.837 449.000,7.000 zM638.000,49.000 C636.000,50.666 634.000,52.334 632.000,54.000 C632.667,55.000 633.333,56.000 634.000,57.000 C653.896,57.219 702.258,68.996 712.000,65.000 C712.000,64.667 712.000,64.333 712.000,64.000 C711.333,63.000 710.667,62.000 710.000,61.000 C702.533,52.817 654.688,49.277 638.000,49.000 zM228.000,69.000 C216.560,74.094 207.886,74.682 201.000,84.000 C201.000,84.667 201.000,85.333 201.000,86.000 C218.457,95.898 253.134,93.420 264.000,79.000 C263.667,77.333 263.333,75.667 263.000,74.000 C253.911,69.715 242.139,68.832 228.000,69.000 zM227.000,159.000 C224.334,161.666 221.666,164.334 219.000,167.000 C219.333,167.667 219.667,168.333 220.000,169.000 C245.969,169.803 276.306,171.595 301.000,167.000 C301.000,165.667 301.000,164.333 301.000,163.000 C284.459,155.212 250.180,158.811 227.000,159.000 zM352.000,307.000 C349.144,316.250 351.999,329.200 356.000,335.000 C356.333,335.000 356.667,335.000 357.000,335.000 C357.333,334.000 357.667,333.000 358.000,332.000 C357.333,325.001 356.667,317.999 356.000,311.000 C354.667,309.667 353.333,308.333 352.000,307.000 z" fill="white" /></svg>
