 <svg  version="1.0" xmlns="http://www.w3.org/2000/svg"  width="300.000000pt" height="121.000000pt" viewBox="0 0 300.000000 121.000000"  preserveAspectRatio="xMidYMid meet">  <g transform="translate(0.000000,121.000000) scale(0.050000,-0.050000)" fill="#ddb859" stroke="none"> <path d="M71 2335 c448 -501 1219 -895 2047 -1047 l175 -32 159 -221 c198 -277 324 -391 788 -715 340 -237 525 -342 554 -313 6 6 -22 140 -62 297 -46 182 -80 376 -93 534 -23 274 -21 281 94 282 330 1 1110 313 1487 594 357 266 471 362 618 518 255 273 156 252 -128 -27 -514 -502 -1338 -928 -1960 -1012 l-180 -25 3 -250 c3 -258 40 -492 109 -693 53 -156 51 -155 -277 66 -568 385 -699 503 -946 856 -116 166 -131 175 -379 223 -748 144 -1366 448 -1870 919 -163 152 -264 186 -139 46z"/> </g> </svg> 