<svg version="1.1" xmlns="http://www.w3.org/2000/svg" xmlns:xlink="http://www.w3.org/1999/xlink" width="925" height="406" viewBox="0 0 925 406"><path id="Calque-5" d="M776.000,389.000 C777.681,380.164 783.308,376.797 785.000,367.000 C784.667,342.336 784.333,317.664 784.000,293.000 C784.667,240.672 785.333,188.328 786.000,136.000 C786.003,110.018 790.304,58.418 774.000,48.000 C756.989,55.826 744.370,71.215 730.000,82.000 C697.337,108.331 664.663,134.669 632.000,161.000 C606.669,181.331 581.331,201.669 556.000,222.000 C556.000,222.667 556.000,223.333 556.000,224.000 C632.793,274.434 705.835,329.865 772.000,391.000 C771.333,393.000 770.667,395.000 770.000,397.000 C708.080,409.049 627.754,392.603 561.000,403.000 C510.672,404.000 460.328,405.000 410.000,406.000 C334.341,405.333 258.659,404.667 183.000,404.000 C126.022,400.477 77.182,398.768 36.000,383.000 C24.505,378.599 0.884,376.870 -0.000,362.000 C8.666,366.000 17.334,370.000 26.000,374.000 C44.904,382.177 66.852,387.675 89.000,392.000 C149.519,403.818 222.913,393.168 289.000,399.000 C311.664,399.000 334.336,399.000 357.000,399.000 C399.329,399.000 441.671,399.000 484.000,399.000 C517.997,398.000 552.003,397.000 586.000,396.000 C644.328,394.667 702.672,393.333 761.000,392.000 C761.333,391.333 761.667,390.667 762.000,390.000 C758.667,386.334 755.333,382.666 752.000,379.000 C730.002,361.002 707.998,342.998 686.000,325.000 C640.338,292.670 594.662,260.330 549.000,228.000 C524.758,241.207 486.949,282.027 445.000,271.000 C426.354,266.099 371.952,217.679 363.000,220.000 C348.668,230.999 334.332,242.001 320.000,253.000 C279.720,282.601 240.395,312.495 203.000,345.000 C188.589,357.527 174.399,383.043 151.000,385.000 C131.842,371.302 134.949,342.165 136.000,309.000 C136.333,248.339 136.667,187.661 137.000,127.000 C136.999,104.587 131.690,66.681 140.000,50.000 C140.333,50.000 140.667,50.000 141.000,50.000 C144.023,51.259 142.196,49.982 144.000,52.000 C144.000,134.325 144.000,216.675 144.000,299.000 C143.985,326.383 138.302,357.278 149.000,376.000 C171.243,379.690 190.629,345.296 204.000,334.000 C255.328,294.004 306.672,253.996 358.000,214.000 C348.315,198.769 325.690,187.512 311.000,177.000 C268.671,143.670 226.329,110.330 184.000,77.000 C164.094,61.750 126.575,44.507 135.000,11.000 C160.644,-7.734 300.016,1.000 349.000,1.000 C441.657,1.000 534.343,1.000 627.000,1.000 C672.590,0.996 728.576,-5.093 769.000,4.000 C829.900,17.700 873.097,50.586 925.000,71.000 C925.000,73.666 925.000,76.334 925.000,79.000 C881.348,54.349 833.053,26.838 780.000,14.000 C735.370,3.200 676.091,7.000 622.000,7.000 C531.009,7.000 439.991,7.000 349.000,7.000 C304.505,6.998 160.250,-0.792 140.000,17.000 C140.557,48.913 233.544,108.050 258.000,126.000 C299.337,156.342 339.652,188.900 381.000,220.000 C400.605,234.746 421.884,259.327 449.000,265.000 C488.988,273.366 529.580,231.539 551.000,215.000 C604.328,172.671 657.672,130.329 711.000,88.000 C726.884,75.958 755.344,43.366 777.000,41.000 C796.014,54.209 792.000,92.118 792.000,124.000 C792.000,184.327 792.000,244.673 792.000,305.000 C792.001,338.045 794.425,370.536 781.000,389.000 C779.334,389.000 777.667,389.000 776.000,389.000 z" fill="white" /></svg>
