<?xml version="1.0" encoding="utf-8" standalone="yes"?>
<!DOCTYPE svg PUBLIC "-//W3C//DTD SVG 1.1//EN" "http://www.w3.org/Graphics/SVG/1.1/DTD/svg11.dtd">
<svg xmlns="http://www.w3.org/2000/svg" xmlns:xlink="http://www.w3.org/1999/xlink" xmlns:dc="http://purl.org/dc/elements/1.1/" xmlns:cc="http://web.resource.org/cc/" xmlns:rdf="http://www.w3.org/1999/02/22-rdf-syntax-ns#" xmlns:sodipodi="http://sodipodi.sourceforge.net/DTD/sodipodi-0.dtd" xmlns:inkscape="http://www.inkscape.org/namespaces/inkscape" version="1.1" baseProfile="full" width="421px" height="421px" viewBox="0 0 421 421" preserveAspectRatio="xMidYMid meet" id="svg_document" style="zoom: 1;"><!-- Created with macSVG - https://macsvg.org/ - https://github.com/dsward2/macsvg/ --><title id="svg_document_title">Untitled.svg</title><defs id="svg_document_defs"></defs><g id="main_group"><text id="sample_text_element" x="210.5px" y="210.5px" font-family="Helvetica" font-size="30px" fill="black" xml:space="preserve" text-anchor="middle" text-rendering="geometricPrecision" transform="" style="outline-style:none;">Sample Text Element</text></g><path d="M211.714844,2.640625 C95.695312,2.640625 1.640625,96.699219 1.640625,212.71875 C1.640625,328.738281 95.695312,422.789062 211.714844,422.789062 C327.734375,422.789062 421.789062,328.738281 421.789062,212.71875 C421.789062,96.699219 327.734375,2.640625 211.714844,2.640625" id="path1" fill-rule="evenodd" fill-opacity="1" fill="rgb(0%, 0%, 0%)"></path><path d="M127.269531,157.550781 C138.066406,169.808594 149.238281,182.46875 150.871094,184.070312 C165.574219,198.480469 172.355469,187.53125 181.59375,191.941406 C182.714844,192.480469 189.234375,199.320312 198.609375,209.53125 C202.105469,206.371094 205.59375,203.199219 209.070312,200.03125 C198.566406,190.390625 191.503906,183.660156 190.964844,182.53125 C186.585938,173.300781 197.503906,166.519531 183.105469,151.839844 C180.027344,148.699219 136.1875,110.339844 132.710938,107.078125 L133.207031,107.640625 L132.578125,107.078125 C130.339844,105.101562 121.539062,97.078125 119.144531,98.558594 C118.300781,100.269531 122.183594,104.648438 125.410156,107.890625 C127.636719,110.128906 129.820312,112.21875 132.035156,114.488281 L162.5625,145.890625 L163.273438,146.578125 C163.789062,147.308594 163.726562,148.328125 163.078125,148.96875 C162.355469,149.699219 161.175781,149.699219 160.453125,148.96875 L158.65625,147.179688 L158.609375,147.230469 L124.257812,113.808594 C122.054688,111.671875 113.5625,103.328125 111.136719,104.671875 C109.773438,107.140625 118.195312,115.550781 120.28125,117.691406 L153.945312,152.289062 L153.929688,152.300781 L155.082031,153.460938 L155.660156,154.050781 C155.675781,154.070312 155.6875,154.089844 155.703125,154.101562 L155.695312,154.109375 L155.734375,154.148438 C156.238281,154.871094 156.171875,155.878906 155.527344,156.519531 C154.804688,157.25 153.621094,157.25 152.902344,156.519531 L151.410156,155.03125 L151.386719,155.058594 L116.734375,121.339844 C114.53125,119.191406 106.035156,110.859375 103.613281,112.199219 C102.246094,114.660156 110.671875,123.070312 112.753906,125.21875 L146.714844,160.121094 L146.695312,160.140625 L147.988281,161.441406 C148.710938,162.160156 148.710938,163.339844 147.988281,164.058594 C147.269531,164.78125 146.085938,164.78125 145.363281,164.058594 L144.175781,162.871094 L144.15625,162.890625 L118.050781,137.511719 C113.867188,133.441406 109.609375,128.988281 105.390625,125 C102.40625,122.171875 99,119.449219 97.539062,120.171875 C96.058594,122.558594 104.078125,131.359375 106.058594,133.601562 M214.121094,226.578125 C244.027344,259.699219 284.730469,305.800781 292.335938,314.261719 C317.675781,342.480469 341.734375,318.839844 313.0625,293.089844 C304.578125,285.46875 258.140625,244.460938 225.046875,214.558594 C221.390625,218.550781 217.753906,222.558594 214.121094,226.578125" id="path2" fill-rule="evenodd" fill-opacity="1" fill="rgb(100%, 100%, 100%)"></path><path d="M261.59375,118.730469 C247.921875,128.230469 237.027344,140.449219 235.125,153.03125 C234.335938,158.269531 235.488281,165.628906 235.855469,171.710938 C235.929688,173.011719 235.957031,174.160156 235.921875,175.171875 C235.652344,182.25 228.398438,187.441406 223.066406,192.398438 C194.363281,219.089844 123.449219,281.671875 112.738281,291.289062 C84.71875,316.449219 107.933594,339.660156 133.097656,311.640625 C142.714844,300.929688 205.296875,230.019531 231.984375,201.320312 C236.945312,195.988281 242.132812,188.730469 249.207031,188.460938 C250.226562,188.421875 251.371094,188.449219 252.667969,188.53125 C258.75,188.890625 266.117188,190.050781 271.347656,189.261719 C284.011719,187.339844 296.445312,176.378906 305.976562,162.589844 C343.757812,107.929688 316.394531,80.660156 261.59375,118.730469" id="path3" fill-rule="evenodd" fill-opacity="1" fill="rgb(100%, 100%, 100%)"></path></svg>