<svg version="1.1" xmlns="http://www.w3.org/2000/svg" xmlns:xlink="http://www.w3.org/1999/xlink" width="1594" height="429" viewBox="0 0 1594 429"><path id="silhouette_homme" d="M0.000,184.000 C2.666,184.333 5.334,184.667 8.000,185.000 C71.492,263.422 210.482,278.962 336.000,260.000 C377.783,253.688 460.824,235.644 501.000,248.000 C533.873,258.110 560.308,295.368 568.000,331.000 C575.411,365.332 565.269,409.313 596.000,420.000 C608.332,412.001 620.668,403.999 633.000,396.000 C665.997,380.335 699.003,364.665 732.000,349.000 C743.484,345.435 751.992,358.514 767.000,353.000 C777.635,349.092 783.297,337.061 781.000,323.000 C767.281,312.191 705.648,238.404 701.000,223.000 C691.084,190.136 711.254,175.264 717.000,154.000 C718.667,137.002 720.334,119.998 722.000,103.000 C735.728,44.560 769.393,12.786 829.000,0.000 C843.862,-3.188 878.248,3.453 890.000,7.000 C971.079,31.469 962.039,75.957 984.000,157.000 C989.172,176.088 1005.300,191.033 997.000,221.000 C986.250,259.813 936.547,293.950 917.000,327.000 C918.141,358.073 940.710,356.920 960.000,348.000 C989.664,361.665 1019.336,375.335 1049.000,389.000 C1086.913,395.999 1144.297,360.984 1171.000,350.000 C1245.795,319.234 1331.319,301.158 1424.000,292.000 C1456.938,288.745 1579.169,290.448 1594.000,309.000 C1592.333,310.666 1590.666,312.333 1589.000,314.000 C1471.080,284.412 1316.859,304.069 1219.000,341.000 C1189.067,352.296 1086.057,404.505 1055.000,400.000 C1024.336,386.335 993.664,372.665 963.000,359.000 C940.899,370.101 930.173,399.731 907.000,413.000 C825.184,459.849 776.367,397.472 737.000,359.000 C701.337,374.998 665.663,391.002 630.000,407.000 C615.155,416.581 611.596,428.808 586.000,429.000 C579.245,414.620 568.820,403.730 564.000,386.000 C563.333,374.334 562.667,362.666 562.000,351.000 C555.534,307.533 540.107,279.094 509.000,261.000 C458.693,231.738 294.839,288.242 226.000,279.000 C144.684,268.083 90.524,261.983 39.000,225.000 C26.001,213.335 12.999,201.666 0.000,190.000 C0.000,188.000 0.000,186.000 0.000,184.000 zM836.000,10.000 C815.318,17.059 794.385,16.840 778.000,27.000 C750.123,44.286 715.716,100.929 727.000,151.000 C728.000,151.333 729.000,151.667 730.000,152.000 C754.330,138.255 750.508,92.666 776.000,77.000 C805.363,90.342 839.727,112.709 881.000,96.000 C892.665,90.001 904.335,83.999 916.000,78.000 C943.879,91.648 940.487,149.332 972.000,154.000 C972.667,153.333 973.333,152.667 974.000,152.000 C975.201,53.445 925.628,14.735 836.000,10.000 zM775.000,89.000 C757.658,100.445 756.982,124.260 748.000,144.000 C740.264,161.003 713.943,165.570 710.000,183.000 C698.160,235.337 722.741,234.072 740.000,256.000 C765.866,288.863 791.016,349.525 857.000,339.000 C918.429,329.202 929.813,292.970 961.000,254.000 C975.178,236.284 998.632,225.320 990.000,187.000 C989.667,186.333 989.333,185.667 989.000,185.000 C988.667,184.333 988.333,183.667 988.000,183.000 C988.000,182.667 988.000,182.333 988.000,182.000 C982.123,165.970 958.855,161.982 949.000,149.000 C942.001,132.002 934.999,114.998 928.000,98.000 C927.000,97.000 926.000,96.000 925.000,95.000 C924.333,94.333 923.667,93.667 923.000,93.000 C922.667,92.333 922.333,91.667 922.000,91.000 C921.333,90.667 920.667,90.333 920.000,90.000 C888.984,91.173 875.535,116.495 836.000,111.000 C811.046,107.531 797.543,91.803 775.000,89.000 zM793.000,333.000 C779.250,348.438 776.858,354.131 756.000,364.000 C755.667,364.667 755.333,365.333 755.000,366.000 C770.068,409.791 844.125,431.771 896.000,409.000 C914.200,401.011 926.907,386.218 940.000,373.000 C939.213,369.288 911.593,337.852 907.000,333.000 C892.335,337.666 877.665,342.334 863.000,347.000 C832.423,351.647 813.968,337.311 793.000,333.000 z" fill="#5a745e" /></svg>
