<svg version="1.1" xmlns="http://www.w3.org/2000/svg" xmlns:xlink="http://www.w3.org/1999/xlink" width="925" height="534" viewBox="0 0 925 534"><path id="Calque-6" d="M925.000,465.000 C925.000,467.666 925.000,470.334 925.000,473.000 C845.450,475.498 794.938,520.675 725.000,534.000 C711.388,536.593 692.747,533.426 682.000,532.000 C671.635,530.625 656.346,536.426 643.000,534.000 C625.534,530.825 608.588,527.301 594.000,521.000 C581.335,514.001 568.665,506.999 556.000,500.000 C546.334,501.000 536.666,502.000 527.000,503.000 C504.340,506.823 473.647,505.817 452.000,502.000 C358.235,485.467 301.577,449.590 257.000,385.000 C242.001,390.333 226.998,395.667 212.000,401.000 C190.669,402.000 169.331,403.000 148.000,404.000 C106.765,411.010 43.388,422.772 -0.000,410.000 C-0.000,407.334 -0.000,404.666 -0.000,402.000 C61.623,411.739 175.562,408.912 188.000,358.000 C192.143,341.041 177.980,331.900 172.000,324.000 C154.675,301.110 134.469,280.728 123.000,252.000 C72.223,124.815 172.723,34.792 262.000,8.000 C326.860,-11.465 407.350,4.488 451.000,30.000 C466.665,39.666 482.335,49.334 498.000,59.000 C510.332,59.000 522.668,59.000 535.000,59.000 C563.617,63.696 589.534,66.037 614.000,74.000 C715.068,106.894 833.281,242.808 754.000,377.000 C738.330,403.523 716.722,427.489 692.000,445.000 C682.334,450.999 672.666,457.001 663.000,463.000 C673.406,485.992 686.004,513.475 705.000,528.000 C739.991,526.516 763.702,513.781 789.000,503.000 C828.566,486.139 874.770,468.554 925.000,465.000 zM311.000,6.000 C287.981,15.044 262.783,13.777 242.000,22.000 C174.836,48.573 131.622,93.961 118.000,175.000 C108.171,233.471 144.103,277.180 167.000,306.000 C176.549,318.020 201.195,334.412 195.000,360.000 C191.045,376.336 176.838,384.420 168.000,396.000 C193.521,395.969 214.003,395.037 232.000,388.000 C237.651,385.790 252.257,374.186 261.000,378.000 C272.999,392.999 285.001,408.002 297.000,423.000 C324.345,448.939 358.731,471.376 399.000,484.000 C430.146,493.764 464.025,497.083 505.000,497.000 C523.665,496.000 542.335,495.000 561.000,494.000 C582.483,499.393 626.498,539.766 660.000,527.000 C633.605,523.505 607.123,516.537 588.000,505.000 C579.001,499.001 569.999,492.999 561.000,487.000 C551.334,488.333 541.666,489.667 532.000,491.000 C511.669,490.333 491.331,489.667 471.000,489.000 C385.038,473.599 320.734,444.939 279.000,386.000 C267.841,370.241 258.221,349.957 252.000,330.000 C203.948,175.844 348.671,59.589 483.000,60.000 C482.667,59.333 482.333,58.667 482.000,58.000 C467.668,49.001 453.332,39.999 439.000,31.000 C404.462,12.258 364.920,6.131 311.000,6.000 zM494.000,65.000 C478.002,66.666 461.998,68.334 446.000,70.000 C405.223,78.871 368.219,91.368 339.000,112.000 C302.665,137.656 272.397,174.652 258.000,222.000 C230.427,312.682 281.001,392.274 331.000,429.000 C370.709,458.167 418.384,472.932 478.000,483.000 C496.998,483.333 516.002,483.667 535.000,484.000 C545.332,483.000 555.668,482.000 566.000,481.000 C583.097,486.351 597.891,502.976 616.000,510.000 C641.664,515.666 667.336,521.334 693.000,527.000 C681.002,506.278 657.983,487.954 655.000,459.000 C667.332,451.334 679.668,443.666 692.000,436.000 C719.858,415.662 746.230,383.944 759.000,349.000 C778.461,295.748 767.351,228.908 744.000,189.000 C697.426,109.403 620.575,64.820 494.000,65.000 z" fill="white" /></svg>
