<svg width="0" height="0" class="hidden">
  <symbol version="1.1" xmlns="http://www.w3.org/2000/svg" xmlns:xlink="http://www.w3.org/1999/xlink" viewBox="0 0 925 534" id="assiette">
    <path id="Arrière-plan" d="M-0.000,352.000 C-0.000,349.667 -0.000,347.333 -0.000,345.000 C15.382,345.061 32.866,343.849 44.000,349.000 C63.641,358.086 84.310,386.582 91.000,409.000 C98.464,434.014 89.500,479.799 112.000,489.000 C114.149,490.834 120.110,492.008 122.000,491.000 C127.525,490.119 130.581,485.970 131.000,480.000 C134.357,475.771 135.974,444.056 132.000,439.000 C127.068,435.482 120.105,435.185 115.000,432.000 C106.031,426.405 97.229,414.189 93.000,404.000 C86.459,388.240 86.999,366.889 87.000,345.000 C87.000,337.334 87.000,329.666 87.000,322.000 C80.571,292.580 82.792,262.062 75.000,234.000 C72.368,224.523 68.915,215.200 62.000,210.000 C58.168,207.118 53.539,205.043 51.000,201.000 C46.656,194.083 46.927,180.647 45.000,172.000 C44.667,164.667 44.333,157.333 44.000,150.000 C40.910,135.654 42.001,117.020 42.000,100.000 C41.999,91.258 39.875,77.314 43.000,73.000 C44.295,72.123 45.467,72.106 48.000,72.000 C49.021,72.804 48.274,72.355 50.000,73.000 C50.864,81.576 54.041,89.296 56.000,97.000 C60.773,115.773 62.080,135.216 66.000,153.000 C66.333,153.000 66.667,153.000 67.000,153.000 C67.000,151.667 67.000,150.333 67.000,149.000 C64.578,145.084 67.159,137.429 66.000,132.000 C62.187,114.143 62.944,92.523 63.000,73.000 C65.464,71.467 65.276,70.709 69.000,70.000 C70.021,70.804 69.274,70.355 71.000,71.000 C74.690,87.469 79.416,106.698 84.000,123.000 C86.264,131.052 85.399,141.231 90.000,147.000 C90.000,146.000 90.000,145.000 90.000,144.000 C87.762,140.462 89.140,134.734 88.000,130.000 C84.974,117.431 78.811,80.926 84.000,69.000 C85.754,69.631 84.971,69.193 86.000,70.000 C93.859,73.453 93.328,84.080 96.000,93.000 C99.922,106.092 102.700,122.119 106.000,136.000 C107.000,145.999 108.000,156.001 109.000,166.000 C111.114,175.045 112.663,190.396 108.000,198.000 C103.380,205.535 93.480,210.142 97.000,226.000 C100.000,247.998 103.000,270.002 106.000,292.000 C118.146,338.685 129.014,386.075 140.000,432.000 C141.460,432.854 142.867,433.812 144.000,435.000 C185.694,435.876 227.416,408.012 215.000,360.000 C210.259,341.667 202.617,325.818 197.000,309.000 C186.405,277.278 181.006,220.951 191.000,184.000 C216.283,90.516 274.228,30.920 369.000,7.000 C403.290,-1.655 458.702,-3.218 493.000,8.000 C516.205,15.590 542.708,26.175 562.000,39.000 C597.318,62.479 634.158,102.356 652.000,143.000 C658.820,158.536 663.418,174.277 668.000,192.000 C676.200,223.715 672.499,270.492 664.000,298.000 C640.470,374.162 594.047,427.512 524.000,457.000 C492.295,470.347 424.206,479.173 383.000,468.000 C351.649,459.499 327.971,446.532 305.000,430.000 C301.667,426.667 298.333,423.333 295.000,420.000 C286.038,413.227 275.157,404.405 269.000,395.000 C268.667,395.000 268.333,395.000 268.000,395.000 C268.000,395.667 268.000,396.333 268.000,397.000 C262.829,405.557 271.934,416.748 275.000,421.000 C289.389,440.958 307.726,453.850 329.000,467.000 C366.152,489.965 413.274,501.152 462.000,513.000 C473.234,515.732 482.916,513.439 495.000,516.000 C523.862,522.117 574.237,518.844 600.000,513.000 C606.999,512.333 614.001,511.667 621.000,511.000 C631.843,508.242 644.527,505.151 655.000,502.000 C661.317,500.099 668.415,500.554 673.000,497.000 C673.877,495.705 673.894,494.533 674.000,492.000 C665.132,482.433 666.752,452.037 671.000,438.000 C683.052,398.171 711.637,375.238 733.000,345.000 C740.666,334.149 748.500,323.816 752.000,309.000 C754.448,298.638 749.744,288.802 748.000,282.000 C745.238,271.226 742.107,243.365 745.000,232.000 C759.520,174.962 796.855,133.621 838.000,103.000 C854.454,90.755 867.686,72.155 896.000,72.000 C896.667,72.667 897.333,73.333 898.000,74.000 C897.369,75.754 897.807,74.971 897.000,76.000 C895.688,81.472 892.270,84.700 890.000,89.000 C882.497,103.211 876.020,116.872 868.000,130.000 C862.995,138.192 860.935,146.583 856.000,155.000 C842.145,178.631 829.780,204.497 817.000,229.000 C791.432,278.022 770.480,330.497 749.000,383.000 C737.994,409.902 732.499,438.081 721.000,465.000 C716.842,474.734 707.269,487.087 699.000,493.000 C694.448,496.254 688.654,495.652 687.000,502.000 C698.141,509.599 704.896,518.128 720.000,523.000 C741.074,529.797 776.195,527.956 796.000,522.000 C831.284,511.388 859.586,498.641 893.000,486.000 C903.063,482.193 913.589,476.771 925.000,474.000 C925.000,476.666 925.000,479.334 925.000,482.000 C909.676,485.077 895.167,492.487 882.000,498.000 C855.711,509.006 832.381,517.881 804.000,527.000 C791.880,530.894 761.887,538.381 743.000,534.000 C725.577,529.959 709.847,528.142 697.000,520.000 C690.103,515.629 682.857,503.657 674.000,503.000 C663.646,512.493 636.423,512.860 620.000,517.000 C567.434,530.251 486.044,527.519 436.000,514.000 C426.603,511.462 418.889,511.918 410.000,509.000 C378.500,498.660 348.107,487.036 321.000,472.000 C312.300,467.174 304.778,458.843 297.000,453.000 C289.517,447.379 280.587,441.409 275.000,434.000 C269.490,426.693 262.680,418.770 260.000,409.000 C257.550,400.069 264.380,393.234 262.000,386.000 C259.791,379.285 246.361,365.128 242.000,358.000 C231.158,340.279 222.753,317.785 216.000,297.000 C212.241,285.431 213.843,275.081 211.000,262.000 C196.182,193.807 231.443,132.666 259.000,96.000 C299.873,41.616 406.868,3.796 499.000,35.000 C562.928,56.652 612.075,104.024 637.000,165.000 C639.548,171.232 639.077,177.076 641.000,184.000 C649.360,214.092 651.039,261.139 642.000,293.000 C621.255,366.127 579.149,413.973 508.000,437.000 C493.531,441.683 459.007,449.009 441.000,445.000 C436.000,445.000 431.000,445.000 426.000,445.000 C412.668,442.000 399.332,439.000 386.000,436.000 C363.273,428.523 344.633,416.678 327.000,404.000 C312.368,393.479 298.067,376.277 273.000,388.000 C279.112,398.124 289.650,406.978 299.000,414.000 C310.317,422.499 320.732,433.271 333.000,441.000 C347.970,450.431 368.737,456.818 387.000,462.000 C434.914,475.595 509.401,458.410 541.000,442.000 C603.582,409.500 640.908,353.426 662.000,279.000 C669.018,254.237 665.400,209.914 659.000,189.000 C654.342,173.778 652.012,159.789 646.000,146.000 C630.241,109.857 595.501,69.689 564.000,49.000 C540.949,33.861 514.827,23.355 486.000,14.000 C449.481,2.148 392.926,6.134 360.000,17.000 C280.164,43.347 225.051,90.486 201.000,172.000 C198.447,180.652 197.989,189.277 196.000,197.000 C193.626,206.218 196.181,214.947 194.000,225.000 C191.801,235.138 192.849,250.801 195.000,260.000 C198.456,274.780 197.683,286.807 202.000,300.000 C208.069,318.547 216.722,336.560 222.000,356.000 C232.170,393.458 209.819,422.489 187.000,434.000 C174.734,440.187 160.282,441.115 142.000,441.000 C141.076,443.667 140.949,447.931 141.000,452.000 C143.558,455.796 141.176,462.651 141.000,467.000 C140.338,483.345 134.490,499.720 118.000,500.000 C115.000,499.000 112.000,498.000 109.000,497.000 C104.178,494.045 98.950,486.779 96.000,482.000 C84.367,463.157 90.622,431.640 83.000,408.000 C75.262,383.999 55.427,358.966 31.000,352.000 C21.622,349.326 11.079,351.900 -0.000,352.000 zM428.000,32.000 C421.723,35.701 409.096,31.180 401.000,33.000 C388.524,35.805 374.577,35.843 363.000,40.000 C299.410,62.836 255.410,99.301 230.000,160.000 C205.107,219.464 219.235,293.444 244.000,341.000 C247.885,348.460 260.518,374.592 266.000,378.000 C272.410,381.985 284.583,372.143 296.000,375.000 C303.516,376.881 311.907,380.959 318.000,385.000 C329.103,392.364 338.559,402.911 350.000,410.000 C364.397,418.921 383.764,426.072 401.000,431.000 C409.615,433.463 416.958,431.962 426.000,434.000 C436.269,436.314 453.801,439.951 467.000,437.000 C485.415,432.883 505.017,431.706 521.000,425.000 C570.058,404.418 604.275,366.914 625.000,318.000 C642.996,275.526 644.793,207.229 627.000,164.000 C598.387,94.484 525.046,32.406 428.000,32.000 zM885.000,80.000 C880.652,85.534 872.851,87.903 867.000,92.000 C858.593,97.887 850.438,104.758 842.000,111.000 C813.473,132.103 772.753,174.883 758.000,209.000 C748.179,231.711 757.104,251.015 762.000,272.000 C766.752,292.371 759.168,315.833 753.000,330.000 C747.845,341.840 738.131,351.092 731.000,361.000 C714.345,384.142 687.559,417.967 680.000,448.000 C676.575,461.607 681.178,475.578 682.000,488.000 C683.000,489.000 684.000,490.000 685.000,491.000 C686.754,490.369 685.971,490.807 687.000,490.000 C697.355,485.978 701.989,472.624 707.000,463.000 C716.426,444.896 726.460,424.964 734.000,405.000 C736.089,399.468 735.793,395.370 738.000,390.000 C752.351,355.089 768.199,319.941 783.000,286.000 C791.890,265.613 798.154,245.730 808.000,226.000 C817.658,206.647 829.759,187.753 840.000,169.000 C851.423,148.081 860.553,126.510 873.000,106.000 C876.252,100.641 887.443,86.343 885.000,80.000 zM68.000,83.000 C67.845,110.405 72.240,134.364 72.000,160.000 C69.582,161.302 69.167,161.801 65.000,162.000 C63.336,159.799 62.164,159.974 61.000,157.000 C57.963,152.785 59.505,147.230 58.000,141.000 C55.507,130.678 53.470,118.057 51.000,108.000 C49.064,100.117 51.066,90.657 47.000,85.000 C46.682,105.627 46.074,127.942 50.000,146.000 C50.333,156.999 50.667,168.001 51.000,179.000 C52.327,184.722 53.855,192.655 57.000,197.000 C59.970,201.103 65.933,203.735 69.000,208.000 C74.369,215.465 78.955,225.730 82.000,235.000 C92.213,266.097 86.716,305.355 94.000,339.000 C93.667,345.333 93.333,351.667 93.000,358.000 C94.109,371.187 95.261,385.702 99.000,396.000 C104.649,411.561 112.049,430.563 132.000,431.000 C132.000,430.333 132.000,429.667 132.000,429.000 C128.535,423.523 129.067,415.732 127.000,409.000 C121.776,391.987 119.291,373.853 114.000,355.000 C107.626,332.288 104.915,304.685 99.000,281.000 C96.797,272.177 98.130,265.014 96.000,256.000 C94.019,247.618 89.091,222.456 92.000,212.000 C93.948,205.000 100.065,200.544 102.000,193.000 C104.338,183.886 101.604,170.180 100.000,163.000 C99.333,152.334 98.667,141.666 98.000,131.000 C95.000,115.335 92.000,99.665 89.000,84.000 C88.667,84.000 88.333,84.000 88.000,84.000 C88.000,85.000 88.000,86.000 88.000,87.000 C91.383,92.247 89.412,101.050 91.000,108.000 C94.122,121.663 98.041,144.252 92.000,158.000 C91.333,158.000 90.667,158.000 90.000,158.000 C89.667,157.333 89.333,156.667 89.000,156.000 C82.680,147.346 77.726,115.249 74.000,103.000 C71.954,96.274 72.622,87.084 68.000,83.000 z" fill="white"></path>
  </symbol>
  <symbol fill="#000000" version="1.1" id="at" xmlns="http://www.w3.org/2000/svg" xmlns:xlink="http://www.w3.org/1999/xlink" xml:space="preserve" viewBox="0 0 421.94 421.939">
    <g>
      <g>
        <path d="M219.866,163.814c-7.254,0-13.964,2.053-20.125,6.173c-6.173,4.107-11.49,9.412-15.961,15.948
			c-4.488,6.536-7.926,13.851-10.343,21.941c-2.429,8.116-3.627,16.018-3.627,23.765c0,7.974,1.633,14.507,4.9,19.587
			c3.263,5.068,8.872,7.614,16.861,7.614c3.375,0,7.025-1.021,10.89-3.086c3.867-2.054,7.599-4.769,11.238-8.167
			c3.63-3.375,7.122-7.254,10.521-11.602c3.375-4.347,6.401-8.947,9.067-13.774l9.073-50.056c-3.164-2.669-6.425-4.723-9.8-6.173
			C229.167,164.532,224.934,163.814,219.866,163.814z"></path>
        <path d="M210.976,0C94.461,0,0,94.453,0,210.964c0,116.514,94.452,210.976,210.975,210.976
			c116.526,0,210.963-94.455,210.963-210.976C421.939,94.453,327.514,0,210.976,0z M345.907,264.283
			c-9.56,9.92-20.675,17.78-33.363,23.575c-12.688,5.801-26.307,8.707-40.814,8.707c-6.059,0-11.667-0.655-16.867-1.987
			c-5.206-1.34-9.565-3.567-13.055-6.72c-3.507-3.146-6.112-7.254-7.812-12.334c-1.693-5.08-2.173-11.361-1.435-18.849h-1.453
			c-3.615,5.062-7.561,10.027-11.794,14.867c-4.218,4.84-8.872,9.121-13.964,12.875c-5.065,3.759-10.637,6.719-16.669,8.887
			c-6.062,2.174-12.703,3.261-19.96,3.261c-5.798,0-11.361-1.273-16.693-3.808c-5.309-2.54-9.905-6.106-13.775-10.694
			c-3.867-4.588-6.953-10.16-9.235-16.693c-2.317-6.527-3.461-13.774-3.461-21.761c0-14.994,2.429-29.559,7.256-43.703
			c4.84-14.147,11.431-26.662,19.768-37.539c8.344-10.884,18.029-19.633,29.03-26.298c11-6.642,22.665-9.968,34.993-9.968
			c8.47,0,15.604,1.273,21.398,3.807c5.795,2.546,11.127,5.86,15.967,9.979l11.234-11.616h25.395l-17.401,98.302
			c-1.934,11.361-1.994,19.588-0.192,24.668c1.825,5.067,5.86,7.614,12.153,7.614c6.281,0,12.466-1.453,18.507-4.359
			c6.029-2.9,11.47-7.362,16.321-13.422c4.815-6.034,8.767-13.66,11.781-22.842c3.026-9.199,4.527-20.083,4.527-32.657
			c0-18.134-3.026-33.617-9.067-46.432c-6.053-12.814-14.327-23.395-24.835-31.729C291.87,99.07,279.469,92.967,265.202,89.1
			c-14.261-3.87-29.621-5.812-46.065-5.812c-18.852,0-36.389,3.387-52.593,10.145c-16.201,6.789-30.288,16.093-42.262,27.935
			c-11.959,11.856-21.329,25.944-28.112,42.262c-6.752,16.321-10.145,34.035-10.145,53.134c0,18.867,2.846,35.788,8.515,50.776
			c5.696,15.012,13.977,27.754,24.86,38.274c10.871,10.521,24.355,18.615,40.448,24.295c16.065,5.682,34.5,8.533,55.304,8.533
			c7.014,0,14.988-0.847,23.947-2.534c8.936-1.693,17.042-4.233,24.296-7.626l11.24,34.828c-9.907,4.84-20.008,8.215-30.288,10.142
			c-10.28,1.934-22.062,2.925-35.371,2.925c-23.452,0-45.156-3.398-65.092-10.154c-19.957-6.779-37.254-16.813-51.885-30.107
			c-14.627-13.307-26.058-29.809-34.272-49.504c-8.227-19.708-12.322-42.502-12.322-68.371c0-26.361,4.708-50.188,14.135-71.469
			c9.428-21.269,22.149-39.403,38.092-54.406c15.964-14.997,34.458-26.526,55.481-34.651c21.056-8.08,43.294-12.142,66.746-12.142
			c22.242,0,42.922,3.204,62.018,9.611c19.107,6.413,35.668,15.597,49.695,27.559c14.027,11.971,25.028,26.613,33.003,43.896
			c7.986,17.3,11.985,36.944,11.985,58.946c0,15.483-2.727,29.991-8.167,43.532C362.942,242.643,355.46,254.375,345.907,264.283z"></path>
      </g>
    </g>
  </symbol>
  <symbol version="1.1" xmlns="http://www.w3.org/2000/svg" xmlns:xlink="http://www.w3.org/1999/xlink" viewBox="0 0 925 534" id="calendrier">
    <path id="Calque-3" d="M925.000,211.000 C925.000,213.000 925.000,215.000 925.000,217.000 C882.460,210.261 777.151,177.456 735.000,204.000 C735.000,278.326 735.000,352.674 735.000,427.000 C735.001,453.743 741.083,498.911 730.000,517.000 C714.463,542.360 654.028,534.001 614.000,534.000 C518.343,534.000 422.657,534.000 327.000,534.000 C293.629,534.001 236.032,541.501 216.000,526.000 C197.872,511.972 203.998,465.461 204.000,434.000 C203.333,349.675 202.667,265.325 202.000,181.000 C201.000,182.000 200.000,183.000 199.000,184.000 C178.002,200.332 156.998,216.668 136.000,233.000 C95.033,262.010 49.161,285.603 -0.000,306.000 C0.333,303.667 0.667,301.333 1.000,299.000 C14.999,292.667 29.001,286.333 43.000,280.000 C85.984,258.175 123.551,234.548 160.000,207.000 C171.233,198.510 198.321,184.551 203.000,171.000 C203.000,164.001 203.000,156.999 203.000,150.000 C202.993,123.835 198.330,84.588 210.000,69.000 C225.228,48.661 258.405,58.561 269.000,76.000 C292.081,113.989 217.415,152.915 209.000,175.000 C209.000,251.659 209.000,328.341 209.000,405.000 C208.996,446.166 198.001,516.792 230.000,527.000 C354.654,527.333 479.346,527.667 604.000,528.000 C635.221,528.002 708.806,534.567 722.000,518.000 C737.678,498.313 729.000,384.351 729.000,347.000 C729.000,313.337 729.000,279.663 729.000,246.000 C729.001,235.418 731.844,214.779 727.000,208.000 C675.152,232.583 688.994,328.720 689.000,404.000 C689.002,425.105 693.338,458.572 685.000,473.000 C671.793,495.852 623.443,489.000 588.000,489.000 C505.675,489.000 423.325,489.000 341.000,489.000 C305.211,489.002 264.475,494.705 252.000,471.000 C242.055,452.101 248.999,380.669 249.000,353.000 C249.001,318.008 242.695,195.512 255.000,178.000 C268.156,159.277 301.117,162.996 333.000,163.000 C399.327,163.000 465.673,163.000 532.000,163.000 C581.607,163.006 684.142,173.218 704.000,145.000 C709.597,137.047 709.728,128.810 712.000,117.000 C714.683,103.056 713.883,89.728 708.000,80.000 C648.886,57.353 664.281,122.423 616.000,113.000 C591.957,108.308 592.740,82.806 573.000,76.000 C564.334,75.667 555.666,75.333 547.000,75.000 C495.007,75.003 512.977,107.166 472.000,113.000 C438.082,117.829 440.931,80.329 416.000,75.000 C399.913,71.561 369.840,73.915 361.000,80.000 C347.285,89.441 332.872,133.127 296.000,108.000 C288.634,102.981 274.890,84.038 280.000,68.000 C284.000,63.667 288.000,59.333 292.000,55.000 C300.526,31.061 284.636,10.108 308.000,2.000 C344.833,-10.783 336.001,32.420 346.000,51.000 C370.917,57.054 418.724,55.801 444.000,53.000 C443.078,25.735 446.180,-9.405 478.000,2.000 C497.605,9.026 488.897,32.809 498.000,50.000 C513.766,55.323 577.055,57.083 596.000,52.000 C595.504,26.355 598.877,-10.591 630.000,2.000 C653.477,11.498 638.736,46.364 650.000,53.000 C656.666,53.333 663.334,53.667 670.000,54.000 C703.123,54.018 723.904,54.516 733.000,78.000 C741.737,100.557 726.502,180.841 737.000,196.000 C791.855,173.457 875.359,206.302 925.000,211.000 zM312.000,7.000 C298.839,16.109 294.095,32.504 299.000,56.000 C313.188,57.440 335.853,60.005 341.000,71.000 C349.246,101.326 289.198,114.237 292.000,65.000 C290.667,65.333 289.333,65.667 288.000,66.000 C287.000,68.333 286.000,70.667 285.000,73.000 C292.576,100.956 316.502,124.939 343.000,97.000 C349.890,89.736 351.211,79.523 360.000,74.000 C369.495,68.034 398.484,65.676 415.000,69.000 C442.625,74.560 440.640,115.318 478.000,107.000 C502.680,101.505 500.714,74.080 528.000,69.000 C595.168,56.494 585.166,99.993 614.000,107.000 C622.508,109.068 634.804,106.658 640.000,104.000 C661.165,93.174 652.770,61.095 698.000,71.000 C709.070,73.424 716.036,77.034 719.000,87.000 C722.460,98.632 719.493,115.797 717.000,125.000 C704.382,171.591 665.625,169.006 607.000,169.000 C497.344,169.000 387.656,169.000 278.000,169.000 C250.845,175.274 254.000,202.700 254.000,236.000 C254.000,290.328 254.000,344.672 254.000,399.000 C253.999,419.256 249.684,449.494 256.000,466.000 C265.319,490.353 306.851,484.001 340.000,484.000 C421.325,484.000 502.675,484.000 584.000,484.000 C613.716,484.000 665.305,490.960 678.000,473.000 C686.892,460.419 684.002,433.081 684.000,412.000 C684.000,362.672 684.000,313.328 684.000,264.000 C687.903,240.033 699.270,220.224 715.000,208.000 C719.655,204.382 724.900,203.230 728.000,198.000 C728.000,159.337 728.000,120.663 728.000,82.000 C725.495,73.503 719.437,65.499 712.000,62.000 C696.447,54.683 661.844,66.439 647.000,57.000 C637.229,50.787 639.358,19.411 633.000,10.000 C627.821,8.356 624.777,7.032 617.000,7.000 C608.425,10.573 589.750,42.107 605.000,53.000 C619.655,59.932 633.735,59.443 645.000,68.000 C646.738,82.319 641.141,92.784 630.000,97.000 C590.471,108.206 604.251,71.567 594.000,59.000 C562.337,58.333 530.663,57.667 499.000,57.000 C485.882,47.401 493.752,19.011 480.000,11.000 C457.648,-10.409 443.875,31.716 451.000,54.000 C465.464,55.089 481.384,58.799 491.000,65.000 C497.471,84.215 478.317,110.862 455.000,95.000 C443.612,87.254 446.882,74.854 443.000,59.000 C410.337,58.333 377.663,57.667 345.000,57.000 C323.231,46.020 352.655,7.906 312.000,7.000 zM603.000,59.000 C597.648,76.570 606.526,85.945 615.000,93.000 C626.043,93.444 629.877,91.168 637.000,86.000 C638.000,82.334 639.000,78.666 640.000,75.000 C634.129,63.435 618.803,60.231 603.000,59.000 zM451.000,60.000 C445.146,77.204 454.530,92.045 468.000,94.000 C483.591,96.263 491.977,76.884 484.000,66.000 C473.001,64.000 461.999,62.000 451.000,60.000 zM232.000,62.000 C224.426,66.409 216.215,68.371 212.000,76.000 C207.818,83.570 205.547,154.270 210.000,165.000 C231.885,152.749 309.842,64.088 232.000,62.000 zM298.000,62.000 C296.803,77.326 300.271,89.895 311.000,93.000 C322.864,96.433 340.359,84.837 335.000,72.000 C329.747,65.323 309.006,62.137 298.000,62.000 z" fill="white"></path>
  </symbol>
  <symbol version="1.1" xmlns="http://www.w3.org/2000/svg" xmlns:xlink="http://www.w3.org/1999/xlink" viewBox="0 0 925 463" id="camera">
    <path id="Calque-8" d="M460.000,0.000 C489.387,-0.235 561.736,-5.644 579.000,6.000 C591.364,14.339 596.493,39.718 605.000,52.000 C610.999,53.000 617.001,54.000 623.000,55.000 C626.060,50.280 631.000,43.544 637.000,42.000 C652.029,38.133 712.349,50.946 716.000,57.000 C717.927,59.652 718.985,63.068 718.000,66.000 C716.108,72.615 712.772,71.747 708.000,75.000 C731.914,82.062 740.019,101.557 740.000,133.000 C739.995,141.160 740.643,148.716 737.000,153.000 C735.259,155.660 735.083,155.615 732.000,157.000 C709.297,162.727 632.895,152.028 619.000,143.000 C606.825,135.090 601.929,113.361 589.000,108.000 C570.845,100.471 431.440,100.590 409.000,107.000 C389.849,112.470 388.462,144.282 378.000,159.000 C370.671,169.310 355.946,169.473 347.000,178.000 C351.973,192.020 348.750,210.713 352.000,230.000 C356.999,250.331 362.001,270.669 367.000,291.000 C385.373,333.983 415.614,365.935 460.000,383.000 C519.969,406.057 578.787,368.644 598.000,333.000 C645.078,245.663 557.504,141.032 463.000,177.000 C414.225,195.564 398.959,227.116 389.000,286.000 C387.334,287.666 385.666,289.334 384.000,291.000 C377.099,290.834 376.730,289.638 373.000,287.000 C334.579,195.977 435.340,107.399 532.000,130.000 C594.142,144.530 637.063,185.744 652.000,247.000 C682.783,373.234 554.909,459.508 441.000,420.000 C417.404,411.816 396.747,398.308 379.000,384.000 C370.015,376.756 364.870,359.411 354.000,355.000 C318.163,425.139 191.607,411.442 134.000,371.000 C133.000,371.667 132.000,372.333 131.000,373.000 C130.685,403.965 129.749,434.282 149.000,446.000 C174.454,461.494 236.988,448.432 273.000,454.000 C311.663,454.667 350.337,455.333 389.000,456.000 C413.664,456.000 438.336,456.000 463.000,456.000 C496.330,455.667 529.670,455.333 563.000,455.000 C610.308,447.562 666.148,463.261 708.000,449.000 C749.389,434.896 735.152,284.969 735.000,227.000 C734.941,204.466 725.992,165.412 740.000,155.000 C764.389,136.872 832.424,123.814 875.000,131.000 C890.429,133.604 923.435,132.184 925.000,148.000 C924.667,148.000 924.333,148.000 924.000,148.000 C885.079,132.277 757.727,131.889 741.000,166.000 C741.333,186.665 741.667,207.335 742.000,228.000 C742.000,243.332 742.000,258.668 742.000,274.000 C741.667,303.664 741.333,333.336 741.000,363.000 C735.620,398.737 746.257,432.271 723.000,449.000 C693.232,470.413 629.197,454.456 585.000,461.000 C538.204,467.929 481.228,462.999 431.000,463.000 C372.570,463.001 310.883,468.270 256.000,460.000 C220.429,454.640 173.326,468.117 147.000,453.000 C117.934,436.310 129.696,404.906 123.000,366.000 C86.624,348.821 47.728,328.876 -0.000,324.000 C-0.000,321.667 -0.000,319.333 -0.000,317.000 C0.333,317.000 0.667,317.000 1.000,317.000 C20.331,321.333 39.669,325.667 59.000,330.000 C80.331,338.999 101.669,348.001 123.000,357.000 C123.333,356.667 123.667,356.333 124.000,356.000 C124.333,297.006 124.667,237.994 125.000,179.000 C128.936,154.068 122.833,130.290 131.000,112.000 C141.002,89.601 165.554,73.934 191.000,67.000 C229.639,56.470 287.630,62.997 333.000,63.000 C349.332,62.000 365.668,61.000 382.000,60.000 C395.759,55.215 398.814,21.612 408.000,11.000 C419.355,-2.117 441.786,7.084 460.000,0.000 zM449.000,7.000 C435.453,12.485 419.091,7.459 411.000,18.000 C402.159,29.517 401.786,59.004 388.000,65.000 C357.190,78.400 305.402,60.883 270.000,70.000 C275.174,103.405 211.207,107.123 194.000,89.000 C193.968,80.626 195.920,78.689 199.000,74.000 C168.875,74.917 143.183,97.525 135.000,121.000 C126.050,146.675 130.002,185.589 130.000,217.000 C129.997,261.587 124.789,315.794 131.000,362.000 C188.255,383.861 246.921,421.394 315.000,381.000 C327.049,373.851 339.646,366.600 347.000,355.000 C357.247,338.836 337.323,318.568 348.000,300.000 C348.667,299.667 349.333,299.333 350.000,299.000 C351.667,299.333 353.334,299.667 355.000,300.000 C378.815,312.026 355.620,334.229 361.000,350.000 C366.101,364.953 386.202,382.969 399.000,391.000 C484.974,444.952 590.673,427.602 632.000,344.000 C641.189,325.411 653.623,299.831 648.000,267.000 C628.619,153.833 502.242,86.356 405.000,172.000 C389.034,186.062 346.807,257.622 381.000,284.000 C394.327,225.190 409.106,189.803 460.000,170.000 C569.204,127.508 659.454,260.591 598.000,346.000 C570.025,384.881 503.372,411.986 444.000,384.000 C401.649,364.037 374.426,327.941 357.000,283.000 C351.074,267.718 345.824,183.449 337.000,178.000 C319.541,167.219 244.080,176.841 216.000,177.000 C214.667,176.000 213.333,175.000 212.000,174.000 C210.672,165.126 213.768,158.086 221.000,155.000 C227.309,151.638 288.537,149.987 299.000,153.000 C305.825,154.965 306.009,162.834 311.000,166.000 C318.209,170.573 345.171,170.724 354.000,168.000 C383.765,158.818 376.821,116.774 400.000,103.000 C416.601,93.135 556.745,93.816 583.000,99.000 C604.587,103.262 603.282,121.996 617.000,133.000 C628.925,142.566 709.761,157.852 732.000,148.000 C734.679,54.439 683.904,85.778 620.000,62.000 C613.667,60.667 607.333,59.333 601.000,58.000 C587.386,48.696 588.761,22.110 575.000,13.000 C556.474,0.889 479.892,6.837 449.000,7.000 zM638.000,49.000 C636.000,50.666 634.000,52.334 632.000,54.000 C632.667,55.000 633.333,56.000 634.000,57.000 C653.896,57.219 702.258,68.996 712.000,65.000 C712.000,64.667 712.000,64.333 712.000,64.000 C711.333,63.000 710.667,62.000 710.000,61.000 C702.533,52.817 654.688,49.277 638.000,49.000 zM228.000,69.000 C216.560,74.094 207.886,74.682 201.000,84.000 C201.000,84.667 201.000,85.333 201.000,86.000 C218.457,95.898 253.134,93.420 264.000,79.000 C263.667,77.333 263.333,75.667 263.000,74.000 C253.911,69.715 242.139,68.832 228.000,69.000 zM227.000,159.000 C224.334,161.666 221.666,164.334 219.000,167.000 C219.333,167.667 219.667,168.333 220.000,169.000 C245.969,169.803 276.306,171.595 301.000,167.000 C301.000,165.667 301.000,164.333 301.000,163.000 C284.459,155.212 250.180,158.811 227.000,159.000 zM352.000,307.000 C349.144,316.250 351.999,329.200 356.000,335.000 C356.333,335.000 356.667,335.000 357.000,335.000 C357.333,334.000 357.667,333.000 358.000,332.000 C357.333,325.001 356.667,317.999 356.000,311.000 C354.667,309.667 353.333,308.333 352.000,307.000 z" fill="white"></path>
  </symbol>
  <symbol version="1.1" xmlns="http://www.w3.org/2000/svg" xmlns:xlink="http://www.w3.org/1999/xlink" viewBox="0 0 925 534" id="chef">
    <path id="Calque-4" d="M925.000,440.000 C925.000,441.667 925.000,443.334 925.000,445.000 C855.003,444.178 807.524,456.269 760.000,476.000 C741.615,483.633 702.896,498.224 678.000,484.000 C638.348,461.346 659.733,392.674 643.000,346.000 C631.595,314.188 589.484,311.400 552.000,306.000 C566.362,348.456 625.278,464.663 589.000,515.000 C575.120,534.259 533.411,539.337 505.000,529.000 C464.382,514.221 425.365,467.349 422.000,417.000 C436.324,398.949 464.727,399.285 485.000,387.000 C459.000,383.532 404.827,344.823 395.000,324.000 C394.000,324.667 393.000,325.333 392.000,326.000 C375.285,360.927 322.103,367.768 309.000,407.000 C337.322,395.471 372.964,401.433 383.000,426.000 C385.333,438.665 387.667,451.335 390.000,464.000 C392.243,474.114 404.919,494.982 397.000,506.000 C396.333,506.667 395.667,507.333 395.000,508.000 C369.793,522.953 367.351,487.845 362.000,473.000 C354.466,452.098 331.399,417.854 305.000,416.000 C283.875,426.951 293.759,462.285 278.000,478.000 C274.000,477.333 270.000,476.667 266.000,476.000 C254.562,450.437 255.120,408.538 228.000,398.000 C219.049,394.522 203.057,397.619 195.000,399.000 C162.946,404.492 110.235,413.730 76.000,407.000 C41.572,400.232 22.620,385.135 -0.000,368.000 C-0.000,366.334 -0.000,364.667 -0.000,363.000 C1.666,363.000 3.333,363.000 5.000,363.000 C29.439,399.181 97.295,408.234 156.000,398.000 C175.294,394.636 209.275,386.064 231.000,393.000 C263.103,403.249 253.816,445.160 270.000,471.000 C272.666,471.000 275.334,471.000 278.000,471.000 C281.000,455.668 284.000,440.332 287.000,425.000 C296.999,410.668 307.001,396.332 317.000,382.000 C342.283,352.278 394.348,338.445 404.000,294.000 C401.667,281.001 399.333,267.999 397.000,255.000 C396.667,255.000 396.333,255.000 396.000,255.000 C392.971,256.354 390.590,257.488 387.000,256.000 C378.619,252.319 377.607,243.385 373.000,236.000 C360.131,215.372 348.514,208.492 372.000,188.000 C361.776,173.902 359.005,145.928 355.000,127.000 C354.667,127.000 354.333,127.000 354.000,127.000 C332.011,136.867 290.653,141.504 299.000,103.000 C312.854,88.772 335.578,88.041 352.000,76.000 C360.999,66.668 370.001,57.332 379.000,48.000 C395.665,37.668 412.335,27.332 429.000,17.000 C434.999,11.667 441.001,6.333 447.000,1.000 C475.806,-12.661 536.671,27.745 543.000,43.000 C552.863,66.773 527.438,72.484 525.000,90.000 C527.333,101.332 529.667,112.668 532.000,124.000 C535.010,139.334 532.488,159.049 531.000,173.000 C535.328,171.125 536.881,170.997 541.000,173.000 C543.867,187.498 541.474,233.755 538.000,253.000 C536.127,263.374 528.139,277.407 531.000,285.000 C536.333,288.666 541.667,292.334 547.000,296.000 C580.014,308.573 617.925,303.013 646.000,318.000 C679.781,336.032 703.773,408.759 707.000,457.000 C712.554,452.845 723.769,450.256 728.000,458.000 C731.217,461.953 729.577,466.759 728.000,471.000 C720.193,474.995 714.771,474.795 706.000,472.000 C706.000,474.666 706.000,477.334 706.000,480.000 C706.333,481.000 706.667,482.000 707.000,483.000 C732.964,489.820 762.110,468.350 781.000,461.000 C822.222,444.961 869.029,439.877 925.000,440.000 zM462.000,5.000 C469.806,27.075 479.416,63.067 501.000,72.000 C501.000,73.667 501.000,75.334 501.000,77.000 C499.000,77.333 497.000,77.667 495.000,78.000 C495.000,78.333 495.000,78.667 495.000,79.000 C505.790,79.451 514.466,85.288 521.000,85.000 C524.966,72.170 534.201,66.644 540.000,56.000 C538.643,46.306 534.518,41.241 530.000,35.000 C522.110,40.918 511.315,44.271 507.000,54.000 C508.333,59.333 509.667,64.667 511.000,70.000 C510.667,70.333 510.333,70.667 510.000,71.000 C508.334,71.000 506.667,71.000 505.000,71.000 C488.337,48.505 484.928,33.882 515.000,23.000 C497.426,18.618 482.553,7.322 462.000,5.000 zM454.000,7.000 C439.894,29.811 466.218,67.716 486.000,71.000 C476.344,56.241 466.014,16.775 454.000,7.000 zM444.000,11.000 C431.347,27.455 407.044,34.865 390.000,47.000 C371.885,59.898 358.929,78.718 345.000,96.000 C339.124,103.291 325.616,114.076 313.000,111.000 C313.333,109.000 313.667,107.000 314.000,105.000 C316.666,101.667 319.334,98.333 322.000,95.000 C312.510,97.482 303.775,102.534 303.000,114.000 C310.014,126.191 326.922,136.232 343.000,124.000 C336.337,123.842 333.945,122.393 330.000,120.000 C330.667,117.000 331.333,114.000 332.000,111.000 C355.664,103.667 379.336,96.333 403.000,89.000 C384.952,89.215 367.511,98.130 356.000,92.000 C356.065,83.097 358.365,82.665 362.000,78.000 C378.441,72.831 406.355,61.867 429.000,70.000 C426.050,63.624 422.192,60.844 421.000,52.000 C422.333,50.333 423.667,48.667 425.000,47.000 C450.454,47.747 456.640,66.271 472.000,76.000 C477.999,76.333 484.001,76.667 490.000,77.000 C454.155,75.992 449.917,40.078 444.000,11.000 zM510.000,29.000 C505.559,31.831 502.505,33.456 499.000,37.000 C499.667,42.666 500.333,48.334 501.000,54.000 C501.333,54.000 501.667,54.000 502.000,54.000 C502.848,40.445 514.629,37.654 524.000,33.000 C523.333,32.000 522.667,31.000 522.000,30.000 C518.000,29.667 514.000,29.333 510.000,29.000 zM428.000,53.000 C428.645,69.353 446.392,71.252 462.000,76.000 C458.710,65.396 440.096,54.664 428.000,53.000 zM405.000,73.000 C390.622,78.182 366.854,74.650 362.000,89.000 C363.333,89.000 364.667,89.000 366.000,89.000 C382.960,82.780 417.096,89.464 430.000,79.000 C428.334,77.667 426.667,76.333 425.000,75.000 C418.334,74.333 411.666,73.667 405.000,73.000 zM435.000,74.000 C435.000,77.000 435.000,80.000 435.000,83.000 C440.666,81.667 446.334,80.333 452.000,79.000 C446.334,77.333 440.666,75.666 435.000,74.000 zM465.000,81.000 C454.567,88.211 437.213,86.430 423.000,90.000 C399.683,95.858 375.044,107.216 360.000,122.000 C361.622,125.203 361.849,126.189 365.000,128.000 C377.594,135.727 399.586,127.269 412.000,129.000 C425.934,141.302 387.491,176.516 384.000,192.000 C384.667,192.333 385.333,192.667 386.000,193.000 C417.673,172.722 478.976,149.045 526.000,165.000 C526.395,137.497 523.656,115.392 519.000,94.000 C505.572,84.566 486.056,83.768 465.000,81.000 zM342.000,88.000 C334.676,93.765 326.599,97.507 321.000,105.000 C325.499,103.680 344.397,89.365 342.000,88.000 zM369.000,105.000 C358.001,108.666 346.999,112.334 336.000,116.000 C336.333,116.667 336.667,117.333 337.000,118.000 C349.930,118.478 374.520,107.107 369.000,105.000 zM362.000,134.000 C367.723,151.914 371.648,171.821 378.000,188.000 C378.333,188.000 378.667,188.000 379.000,188.000 C383.792,165.620 405.713,156.856 411.000,135.000 C410.333,135.000 409.667,135.000 409.000,135.000 C407.333,134.667 405.667,134.333 404.000,134.000 C400.567,144.359 390.295,149.586 381.000,154.000 C379.334,153.333 377.666,152.667 376.000,152.000 C376.398,142.709 379.938,141.156 384.000,136.000 C376.667,135.333 369.333,134.667 362.000,134.000 zM394.000,137.000 C391.000,139.666 388.000,142.334 385.000,145.000 C386.907,143.876 395.843,137.856 394.000,137.000 zM486.000,165.000 C474.335,167.333 462.666,169.667 451.000,172.000 C429.030,178.552 407.819,187.064 390.000,198.000 C399.399,220.530 397.159,248.995 406.000,274.000 C414.207,297.213 448.137,322.041 475.000,327.000 C526.723,336.549 535.380,248.847 528.000,211.000 C525.904,200.251 529.723,180.908 524.000,173.000 C517.695,163.848 501.879,164.493 486.000,165.000 zM535.000,177.000 C532.071,184.736 531.053,195.784 535.000,204.000 C536.018,196.150 539.277,183.622 535.000,177.000 zM371.000,195.000 C370.000,196.333 369.000,197.667 368.000,199.000 C365.118,202.578 364.100,205.305 364.000,212.000 C369.373,223.309 380.226,243.557 390.000,251.000 C390.667,251.000 391.333,251.000 392.000,251.000 C393.000,250.000 394.000,249.000 395.000,248.000 C395.000,246.333 395.000,244.666 395.000,243.000 C389.045,234.464 381.505,233.659 380.000,220.000 C383.069,216.695 382.897,215.778 389.000,215.000 C385.146,206.126 381.449,197.388 371.000,195.000 zM387.000,221.000 C386.161,226.171 387.983,228.115 392.000,231.000 C392.000,230.000 392.000,229.000 392.000,228.000 C390.478,223.903 390.723,223.034 387.000,221.000 zM528.000,290.000 C533.427,304.828 529.225,324.180 526.000,338.000 C523.436,348.990 526.746,367.676 521.000,376.000 C508.432,394.205 453.557,405.165 434.000,420.000 C436.304,475.981 521.174,569.228 579.000,515.000 C620.904,475.703 566.041,367.735 554.000,335.000 C546.283,314.019 546.284,300.061 528.000,290.000 zM410.000,291.000 C423.974,339.638 473.047,334.038 482.000,380.000 C518.197,393.113 514.670,364.254 520.000,338.000 C522.379,326.283 525.664,312.649 524.000,298.000 C523.667,298.000 523.333,298.000 523.000,298.000 C516.943,342.688 466.916,338.294 438.000,318.000 C428.668,309.001 419.332,299.999 410.000,291.000 zM404.000,308.000 C403.000,309.333 402.000,310.667 401.000,312.000 C400.826,341.413 450.904,365.573 472.000,376.000 C472.000,375.000 472.000,374.000 472.000,373.000 C463.064,355.642 443.752,347.562 429.000,336.000 C418.834,328.033 412.152,318.085 404.000,308.000 zM629.000,318.000 C636.295,326.931 644.800,332.453 649.000,345.000 C665.484,394.243 640.051,479.741 701.000,483.000 C699.128,474.810 703.917,468.416 703.000,461.000 C695.944,403.924 676.576,336.178 629.000,318.000 zM333.000,406.000 C327.334,407.333 321.666,408.667 316.000,410.000 C315.667,410.667 315.333,411.333 315.000,412.000 C337.669,417.512 357.216,448.188 367.000,467.000 C376.073,484.445 366.134,502.238 390.000,505.000 C391.333,503.334 392.667,501.666 394.000,500.000 C381.915,458.960 388.182,405.740 333.000,406.000 zM714.000,457.000 C712.667,460.000 711.333,463.000 710.000,466.000 C712.333,467.666 714.667,469.334 717.000,471.000 C719.333,469.667 721.667,468.333 724.000,467.000 C724.000,465.667 724.000,464.333 724.000,463.000 C722.333,461.333 720.667,459.667 719.000,458.000 C717.333,457.667 715.666,457.333 714.000,457.000 z" fill="white"></path>
  </symbol>
  <symbol id="chevron--green" xmlns="http://www.w3.org/2000/svg" viewBox="0 0 51 51">
    <defs></defs>
    <circle cx="25.5" cy="25.5" r="25.5"></circle>
    <rect x="24.4" y="27.9" width="1.6" height="15.24" rx="0.8" transform="matrix(0.78, -0.63, 0.63, 0.78, -21.26, 15.39)"></rect>
    <rect x="33.3" y="27.9" width="1.6" height="15.24" rx="0.8" transform="translate(24 -21.9) rotate(37.3)"></rect>
  </symbol>
  <symbol id="chevron" xmlns="http://www.w3.org/2000/svg" viewBox="0 0 51 51">
    <defs></defs>
    <circle cx="25.5" cy="25.5" r="25.5"></circle>
    <rect x="24.4" y="27.9" width="1.6" height="15.24" rx="0.8" transform="matrix(0.78, -0.63, 0.63, 0.78, -21.26, 15.39)"></rect>
    <rect x="33.3" y="27.9" width="1.6" height="15.24" rx="0.8" transform="translate(24 -21.9) rotate(37.3)"></rect>
  </symbol>
  <symbol version="1.1" xmlns="http://www.w3.org/2000/svg" xmlns:xlink="http://www.w3.org/1999/xlink" viewBox="0 0 925 533" id="cloche">
    <path id="Calque-2" d="M214.000,489.000 C209.093,429.818 132.220,473.556 84.000,464.000 C53.764,458.008 36.814,443.302 21.000,423.000 C14.705,414.919 -4.554,401.007 1.000,386.000 C22.272,414.636 37.704,446.153 78.000,456.000 C103.409,462.209 135.147,458.263 161.000,454.000 C172.999,453.333 185.001,452.667 197.000,452.000 C213.047,456.752 214.031,473.609 221.000,488.000 C266.572,473.733 292.247,454.609 315.000,419.000 C323.492,405.710 330.189,375.476 351.000,375.000 C346.917,366.619 350.789,358.370 349.000,347.000 C344.684,319.577 343.259,279.218 326.000,264.000 C318.334,260.667 310.666,257.333 303.000,254.000 C301.549,247.010 303.065,243.701 306.000,239.000 C312.999,237.667 320.001,236.333 327.000,235.000 C289.035,235.780 228.231,243.250 218.000,216.000 C218.667,216.000 219.333,216.000 220.000,216.000 C230.332,215.000 240.668,214.000 251.000,213.000 C251.000,212.667 251.000,212.333 251.000,212.000 C237.124,194.156 259.181,146.163 266.000,134.000 C313.492,49.296 360.002,51.413 458.000,21.000 C458.000,20.667 458.000,20.333 458.000,20.000 C454.142,17.658 451.317,13.734 454.000,8.000 C455.978,3.504 458.190,1.696 463.000,-0.000 C467.666,-0.000 472.334,-0.000 477.000,-0.000 C482.262,1.946 487.807,7.200 486.000,13.000 C484.786,18.199 483.697,19.296 479.000,21.000 C479.000,21.333 479.000,21.667 479.000,22.000 C562.351,35.154 625.390,68.890 661.000,131.000 C672.321,150.745 685.972,181.506 677.000,212.000 C687.375,211.697 699.913,211.615 707.000,215.000 C704.858,223.840 697.562,224.776 691.000,229.000 C673.092,240.527 638.522,242.791 606.000,240.000 C596.246,239.163 583.192,238.223 576.000,242.000 C576.276,250.396 575.041,252.683 572.000,257.000 C506.908,267.979 490.973,316.452 460.000,361.000 C450.791,374.245 431.814,385.629 430.000,405.000 C449.901,437.663 408.919,476.041 401.000,508.000 C448.209,536.054 509.696,505.127 546.000,494.000 C565.331,491.000 584.669,488.000 604.000,485.000 C640.458,478.954 669.722,495.511 694.000,504.000 C712.998,508.999 732.002,514.001 751.000,519.000 C789.474,528.629 848.727,536.720 888.000,523.000 C900.332,516.667 912.668,510.333 925.000,504.000 C925.000,505.333 925.000,506.667 925.000,508.000 C902.483,533.779 833.030,539.387 786.000,530.000 C760.669,524.667 735.331,519.333 710.000,514.000 C673.997,503.054 636.262,482.598 584.000,492.000 C551.471,497.852 526.677,509.683 500.000,519.000 C473.563,528.233 411.595,526.692 395.000,510.000 C395.733,485.817 435.675,436.511 431.000,418.000 C430.667,417.333 430.333,416.667 430.000,416.000 C430.000,416.000 418.040,398.214 425.000,398.000 C421.334,398.000 417.666,398.000 414.000,398.000 C400.135,394.546 388.785,381.553 385.000,368.000 C380.319,351.237 392.824,339.189 399.000,332.000 C415.998,317.668 433.002,303.332 450.000,289.000 C468.818,273.643 470.760,256.883 495.000,241.000 C455.683,246.669 433.313,296.997 392.000,288.000 C352.646,279.429 366.639,230.957 310.000,244.000 C309.333,246.000 308.667,248.000 308.000,250.000 C351.222,267.949 346.059,295.473 355.000,345.000 C355.000,352.666 355.000,360.334 355.000,368.000 C365.185,390.210 413.040,384.575 420.000,411.000 C419.333,411.000 418.667,411.000 418.000,411.000 C401.504,417.058 357.506,386.679 345.000,380.000 C343.667,381.000 342.333,382.000 341.000,383.000 C335.503,411.891 289.878,464.842 268.000,479.000 C252.002,484.666 235.998,490.334 220.000,496.000 C216.920,503.107 217.207,509.080 211.000,513.000 C205.599,516.741 201.915,513.964 198.000,511.000 C195.282,502.923 194.213,493.516 202.000,490.000 C206.000,489.667 210.000,489.333 214.000,489.000 zM469.000,4.000 C464.201,6.751 461.846,7.263 459.000,12.000 C462.009,15.954 464.257,17.550 471.000,18.000 C473.666,17.000 476.334,16.000 479.000,15.000 C479.333,14.000 479.667,13.000 480.000,12.000 C479.667,10.667 479.333,9.333 479.000,8.000 C475.667,6.667 472.333,5.333 469.000,4.000 zM466.000,25.000 C447.335,29.333 428.665,33.667 410.000,38.000 C346.507,57.555 301.394,80.552 273.000,135.000 C263.880,152.489 242.758,190.074 259.000,213.000 C357.324,213.000 455.676,213.000 554.000,213.000 C576.659,213.001 659.344,216.247 672.000,209.000 C680.472,178.412 664.236,150.829 654.000,132.000 C625.122,78.880 583.343,59.243 520.000,40.000 C502.002,35.000 483.998,29.999 466.000,25.000 zM268.000,218.000 C279.276,225.959 357.061,225.936 374.000,219.000 C338.670,218.667 303.330,218.333 268.000,218.000 zM425.000,218.000 C435.489,223.485 456.912,218.789 471.000,220.000 C495.664,222.333 520.336,224.667 545.000,227.000 C544.667,228.666 544.333,230.334 544.000,232.000 C580.735,232.751 636.416,234.845 661.000,218.000 C582.341,218.000 503.659,218.000 425.000,218.000 zM672.000,218.000 C660.815,230.701 642.428,226.776 625.000,234.000 C659.437,234.756 678.580,232.721 696.000,218.000 C688.001,218.000 679.999,218.000 672.000,218.000 zM245.000,219.000 C242.000,219.333 239.000,219.667 236.000,220.000 C238.333,222.666 240.667,225.334 243.000,228.000 C253.705,230.937 277.765,234.126 290.000,229.000 C269.672,228.865 263.686,219.597 245.000,219.000 zM397.000,224.000 C368.003,226.000 338.997,228.000 310.000,230.000 C355.209,230.280 407.221,234.282 449.000,228.000 C460.332,227.667 471.668,227.333 483.000,227.000 C454.336,226.000 425.664,225.000 397.000,224.000 zM500.000,232.000 C456.338,233.333 412.662,234.667 369.000,236.000 C358.334,236.000 347.666,236.000 337.000,236.000 C366.646,237.440 366.626,275.520 394.000,282.000 C423.535,288.992 453.952,247.744 476.000,239.000 C492.186,232.581 517.744,239.262 536.000,232.000 C524.001,232.000 511.999,232.000 500.000,232.000 zM571.000,239.000 C550.669,239.333 530.331,239.667 510.000,240.000 C517.803,239.850 521.928,241.183 527.000,243.000 C528.307,247.002 527.510,248.896 526.000,252.000 C497.022,261.114 477.243,314.494 464.000,341.000 C465.000,340.333 466.000,339.667 467.000,339.000 C475.738,309.577 505.952,278.012 530.000,263.000 C539.552,257.037 563.764,257.295 570.000,248.000 C570.333,245.000 570.667,242.000 571.000,239.000 zM497.000,240.000 C498.333,240.000 499.667,240.000 501.000,240.000 C499.667,240.000 498.333,240.000 497.000,240.000 zM508.000,245.000 C499.308,248.571 490.012,248.066 484.000,254.000 C471.536,266.303 465.937,285.110 452.000,296.000 C433.956,310.099 410.211,325.425 397.000,344.000 C383.321,363.233 396.923,391.358 422.000,392.000 C447.161,377.349 476.475,294.531 495.000,266.000 C500.913,256.893 511.028,254.011 519.000,247.000 C519.000,246.667 519.000,246.333 519.000,246.000 C515.334,245.667 511.666,245.333 508.000,245.000 zM462.000,343.000 C461.333,344.333 460.667,345.667 460.000,347.000 C460.667,346.667 461.333,346.333 462.000,346.000 C462.000,345.000 462.000,344.000 462.000,343.000 zM457.000,351.000 C456.667,351.667 456.333,352.333 456.000,353.000 C456.667,352.333 457.333,351.667 458.000,351.000 C457.667,351.000 457.333,351.000 457.000,351.000 zM368.000,385.000 C375.328,392.269 389.187,397.694 400.000,401.000 C389.334,395.667 378.666,390.333 368.000,385.000 zM214.000,493.000 C207.244,493.119 204.843,494.504 201.000,497.000 C201.000,497.333 201.000,497.667 201.000,498.000 C201.667,501.333 202.333,504.667 203.000,508.000 C204.333,508.333 205.667,508.667 207.000,509.000 C208.333,508.000 209.667,507.000 211.000,506.000 C212.000,501.667 213.000,497.333 214.000,493.000 z" fill="white"></path>
  </symbol>
  <symbol version="1.0" xmlns="http://www.w3.org/2000/svg" preserveAspectRatio="xMidYMid meet" viewBox="0 0 300.000000 121.000000" id="comment">
    <g transform="translate(0.000000,121.000000) scale(0.050000,-0.050000)" fill="#ddb859" stroke="none">
      <path d="M71 2335 c448 -501 1219 -895 2047 -1047 l175 -32 159 -221 c198 -277 324 -391 788 -715 340 -237 525 -342 554 -313 6 6 -22 140 -62 297 -46 182 -80 376 -93 534 -23 274 -21 281 94 282 330 1 1110 313 1487 594 357 266 471 362 618 518 255 273 156 252 -128 -27 -514 -502 -1338 -928 -1960 -1012 l-180 -25 3 -250 c3 -258 40 -492 109 -693 53 -156 51 -155 -277 66 -568 385 -699 503 -946 856 -116 166 -131 175 -379 223 -748 144 -1366 448 -1870 919 -163 152 -264 186 -139 46z"></path>
    </g>
  </symbol>
  <symbol version="1.1" xmlns="http://www.w3.org/2000/svg" xmlns:xlink="http://www.w3.org/1999/xlink" viewBox="0 0 925 406" id="contact">
    <path id="Calque-5" d="M776.000,389.000 C777.681,380.164 783.308,376.797 785.000,367.000 C784.667,342.336 784.333,317.664 784.000,293.000 C784.667,240.672 785.333,188.328 786.000,136.000 C786.003,110.018 790.304,58.418 774.000,48.000 C756.989,55.826 744.370,71.215 730.000,82.000 C697.337,108.331 664.663,134.669 632.000,161.000 C606.669,181.331 581.331,201.669 556.000,222.000 C556.000,222.667 556.000,223.333 556.000,224.000 C632.793,274.434 705.835,329.865 772.000,391.000 C771.333,393.000 770.667,395.000 770.000,397.000 C708.080,409.049 627.754,392.603 561.000,403.000 C510.672,404.000 460.328,405.000 410.000,406.000 C334.341,405.333 258.659,404.667 183.000,404.000 C126.022,400.477 77.182,398.768 36.000,383.000 C24.505,378.599 0.884,376.870 -0.000,362.000 C8.666,366.000 17.334,370.000 26.000,374.000 C44.904,382.177 66.852,387.675 89.000,392.000 C149.519,403.818 222.913,393.168 289.000,399.000 C311.664,399.000 334.336,399.000 357.000,399.000 C399.329,399.000 441.671,399.000 484.000,399.000 C517.997,398.000 552.003,397.000 586.000,396.000 C644.328,394.667 702.672,393.333 761.000,392.000 C761.333,391.333 761.667,390.667 762.000,390.000 C758.667,386.334 755.333,382.666 752.000,379.000 C730.002,361.002 707.998,342.998 686.000,325.000 C640.338,292.670 594.662,260.330 549.000,228.000 C524.758,241.207 486.949,282.027 445.000,271.000 C426.354,266.099 371.952,217.679 363.000,220.000 C348.668,230.999 334.332,242.001 320.000,253.000 C279.720,282.601 240.395,312.495 203.000,345.000 C188.589,357.527 174.399,383.043 151.000,385.000 C131.842,371.302 134.949,342.165 136.000,309.000 C136.333,248.339 136.667,187.661 137.000,127.000 C136.999,104.587 131.690,66.681 140.000,50.000 C140.333,50.000 140.667,50.000 141.000,50.000 C144.023,51.259 142.196,49.982 144.000,52.000 C144.000,134.325 144.000,216.675 144.000,299.000 C143.985,326.383 138.302,357.278 149.000,376.000 C171.243,379.690 190.629,345.296 204.000,334.000 C255.328,294.004 306.672,253.996 358.000,214.000 C348.315,198.769 325.690,187.512 311.000,177.000 C268.671,143.670 226.329,110.330 184.000,77.000 C164.094,61.750 126.575,44.507 135.000,11.000 C160.644,-7.734 300.016,1.000 349.000,1.000 C441.657,1.000 534.343,1.000 627.000,1.000 C672.590,0.996 728.576,-5.093 769.000,4.000 C829.900,17.700 873.097,50.586 925.000,71.000 C925.000,73.666 925.000,76.334 925.000,79.000 C881.348,54.349 833.053,26.838 780.000,14.000 C735.370,3.200 676.091,7.000 622.000,7.000 C531.009,7.000 439.991,7.000 349.000,7.000 C304.505,6.998 160.250,-0.792 140.000,17.000 C140.557,48.913 233.544,108.050 258.000,126.000 C299.337,156.342 339.652,188.900 381.000,220.000 C400.605,234.746 421.884,259.327 449.000,265.000 C488.988,273.366 529.580,231.539 551.000,215.000 C604.328,172.671 657.672,130.329 711.000,88.000 C726.884,75.958 755.344,43.366 777.000,41.000 C796.014,54.209 792.000,92.118 792.000,124.000 C792.000,184.327 792.000,244.673 792.000,305.000 C792.001,338.045 794.425,370.536 781.000,389.000 C779.334,389.000 777.667,389.000 776.000,389.000 z" fill="white"></path>
  </symbol>
  <symbol xmlns="http://www.w3.org/2000/svg" xmlns:xlink="http://www.w3.org/1999/xlink" xmlnsDc="http://purl.org/dc/elements/1.1/" xmlnsCc="http://web.resource.org/cc/" xmlnsRdf="http://www.w3.org/1999/02/22-rdf-syntax-ns#" xmlnsSodipodi="http://sodipodi.sourceforge.net/DTD/sodipodi-0.dtd" xmlnsInkscape="http://www.inkscape.org/namespaces/inkscape" version="1.1" baseProfile="full" preserveAspectRatio="xMidYMid meet" id="couverts" viewBox="0 0 421 421">
    <title id="svg_document_title">Untitled.svg</title>
    <defs id="svg_document_defs"></defs>
    <g id="main_group"><text id="sample_text_element" x="210.5px" y="210.5px" font-family="Helvetica" font-size="30px" fill="black" xml:space="preserve" text-anchor="middle" text-rendering="geometricPrecision" transform="">Sample Text Element</text></g>
    <path d="M211.714844,2.640625 C95.695312,2.640625 1.640625,96.699219 1.640625,212.71875 C1.640625,328.738281 95.695312,422.789062 211.714844,422.789062 C327.734375,422.789062 421.789062,328.738281 421.789062,212.71875 C421.789062,96.699219 327.734375,2.640625 211.714844,2.640625" id="path1" fill-rule="evenodd" fill-opacity="1" fill="rgb(0%, 0%, 0%)"></path>
    <path d="M127.269531,157.550781 C138.066406,169.808594 149.238281,182.46875 150.871094,184.070312 C165.574219,198.480469 172.355469,187.53125 181.59375,191.941406 C182.714844,192.480469 189.234375,199.320312 198.609375,209.53125 C202.105469,206.371094 205.59375,203.199219 209.070312,200.03125 C198.566406,190.390625 191.503906,183.660156 190.964844,182.53125 C186.585938,173.300781 197.503906,166.519531 183.105469,151.839844 C180.027344,148.699219 136.1875,110.339844 132.710938,107.078125 L133.207031,107.640625 L132.578125,107.078125 C130.339844,105.101562 121.539062,97.078125 119.144531,98.558594 C118.300781,100.269531 122.183594,104.648438 125.410156,107.890625 C127.636719,110.128906 129.820312,112.21875 132.035156,114.488281 L162.5625,145.890625 L163.273438,146.578125 C163.789062,147.308594 163.726562,148.328125 163.078125,148.96875 C162.355469,149.699219 161.175781,149.699219 160.453125,148.96875 L158.65625,147.179688 L158.609375,147.230469 L124.257812,113.808594 C122.054688,111.671875 113.5625,103.328125 111.136719,104.671875 C109.773438,107.140625 118.195312,115.550781 120.28125,117.691406 L153.945312,152.289062 L153.929688,152.300781 L155.082031,153.460938 L155.660156,154.050781 C155.675781,154.070312 155.6875,154.089844 155.703125,154.101562 L155.695312,154.109375 L155.734375,154.148438 C156.238281,154.871094 156.171875,155.878906 155.527344,156.519531 C154.804688,157.25 153.621094,157.25 152.902344,156.519531 L151.410156,155.03125 L151.386719,155.058594 L116.734375,121.339844 C114.53125,119.191406 106.035156,110.859375 103.613281,112.199219 C102.246094,114.660156 110.671875,123.070312 112.753906,125.21875 L146.714844,160.121094 L146.695312,160.140625 L147.988281,161.441406 C148.710938,162.160156 148.710938,163.339844 147.988281,164.058594 C147.269531,164.78125 146.085938,164.78125 145.363281,164.058594 L144.175781,162.871094 L144.15625,162.890625 L118.050781,137.511719 C113.867188,133.441406 109.609375,128.988281 105.390625,125 C102.40625,122.171875 99,119.449219 97.539062,120.171875 C96.058594,122.558594 104.078125,131.359375 106.058594,133.601562 M214.121094,226.578125 C244.027344,259.699219 284.730469,305.800781 292.335938,314.261719 C317.675781,342.480469 341.734375,318.839844 313.0625,293.089844 C304.578125,285.46875 258.140625,244.460938 225.046875,214.558594 C221.390625,218.550781 217.753906,222.558594 214.121094,226.578125" id="path2" fill-rule="evenodd" fill-opacity="1" fill="rgb(100%, 100%, 100%)"></path>
    <path d="M261.59375,118.730469 C247.921875,128.230469 237.027344,140.449219 235.125,153.03125 C234.335938,158.269531 235.488281,165.628906 235.855469,171.710938 C235.929688,173.011719 235.957031,174.160156 235.921875,175.171875 C235.652344,182.25 228.398438,187.441406 223.066406,192.398438 C194.363281,219.089844 123.449219,281.671875 112.738281,291.289062 C84.71875,316.449219 107.933594,339.660156 133.097656,311.640625 C142.714844,300.929688 205.296875,230.019531 231.984375,201.320312 C236.945312,195.988281 242.132812,188.730469 249.207031,188.460938 C250.226562,188.421875 251.371094,188.449219 252.667969,188.53125 C258.75,188.890625 266.117188,190.050781 271.347656,189.261719 C284.011719,187.339844 296.445312,176.378906 305.976562,162.589844 C343.757812,107.929688 316.394531,80.660156 261.59375,118.730469" id="path3" fill-rule="evenodd" fill-opacity="1" fill="rgb(100%, 100%, 100%)"></path>
  </symbol>
  <symbol fill="#000000" version="1.1" id="facebook-round" xmlns="http://www.w3.org/2000/svg" xmlns:xlink="http://www.w3.org/1999/xlink" xml:space="preserve" viewBox="-143 145 512 512">
    <path d="M113,145c-141.4,0-256,114.6-256,256s114.6,256,256,256s256-114.6,256-256S254.4,145,113,145z M169.5,357.6l-2.9,38.3h-39.3
	v133H77.7v-133H51.2v-38.3h26.5v-25.7c0-11.3,0.3-28.8,8.5-39.7c8.7-11.5,20.6-19.3,41.1-19.3c33.4,0,47.4,4.8,47.4,4.8l-6.6,39.2
	c0,0-11-3.2-21.3-3.2c-10.3,0-19.5,3.7-19.5,14v29.9H169.5z"></path>
  </symbol>
  <symbol fill="#000000" version="1.1" id="facebook-square" xmlns="http://www.w3.org/2000/svg" xmlns:xlink="http://www.w3.org/1999/xlink" xml:space="preserve" viewBox="-143 145 512 512">
    <path d="M329,145h-432c-22.1,0-40,17.9-40,40v432c0,22.1,17.9,40,40,40h432c22.1,0,40-17.9,40-40V185C369,162.9,351.1,145,329,145z
	 M169.5,357.6l-2.9,38.3h-39.3v133H77.7v-133H51.2v-38.3h26.5v-25.7c0-11.3,0.3-28.8,8.5-39.7c8.7-11.5,20.6-19.3,41.1-19.3
	c33.4,0,47.4,4.8,47.4,4.8l-6.6,39.2c0,0-11-3.2-21.3-3.2c-10.3,0-19.5,3.7-19.5,14v29.9H169.5z"></path>
  </symbol>
  <symbol version="1.1" xmlns="http://www.w3.org/2000/svg" xmlns:xlink="http://www.w3.org/1999/xlink" viewBox="0 0 1593 547" id="femme">
    <path id="Calque-1" d="M779.000,-0.000 C841.398,2.045 879.397,53.056 895.000,103.000 C898.333,121.331 901.667,139.668 905.000,158.000 C909.085,170.198 921.759,175.145 925.000,189.000 C931.538,216.950 914.339,236.476 921.000,263.000 C926.267,283.970 941.348,293.990 949.000,312.000 C942.415,351.630 852.260,342.840 823.000,361.000 C823.000,361.333 823.000,361.667 823.000,362.000 C823.333,364.000 823.667,366.000 824.000,368.000 C831.553,385.951 869.192,375.399 880.000,367.000 C937.593,376.801 973.987,436.112 1043.000,421.000 C1111.771,405.941 1167.038,371.087 1233.000,351.000 C1274.053,338.499 1317.253,332.724 1363.000,325.000 C1381.665,324.000 1400.335,323.000 1419.000,322.000 C1454.825,316.141 1571.444,322.774 1593.000,336.000 C1593.000,337.000 1593.000,338.000 1593.000,339.000 C1592.000,339.667 1591.000,340.333 1590.000,341.000 C1565.669,337.334 1541.331,333.666 1517.000,330.000 C1463.885,320.315 1379.746,327.491 1333.000,337.000 C1275.510,348.695 1221.418,361.387 1172.000,381.000 C1126.805,398.937 1085.844,421.200 1032.000,431.000 C992.157,438.252 944.658,404.166 917.000,392.000 C909.025,388.492 893.298,374.277 882.000,377.000 C872.428,379.307 863.802,400.665 858.000,408.000 C849.805,418.360 835.579,428.207 824.000,435.000 C776.159,463.069 709.445,443.171 677.000,417.000 C666.334,403.668 655.666,390.332 645.000,377.000 C632.751,377.285 568.991,406.995 565.000,414.000 C562.925,421.413 569.074,425.293 570.000,433.000 C575.064,475.169 563.634,538.766 533.000,546.000 C497.267,554.438 495.028,488.970 501.000,458.000 C505.564,434.333 536.066,418.460 537.000,414.000 C538.056,408.957 532.744,406.211 530.000,405.000 C502.718,392.965 384.777,412.513 352.000,418.000 C202.280,443.062 70.643,413.897 -0.000,335.000 C-0.000,332.667 -0.000,330.333 -0.000,328.000 C15.261,331.201 41.244,363.364 57.000,373.000 C95.027,396.255 141.470,406.815 194.000,416.000 C245.835,425.063 331.403,414.371 380.000,405.000 C408.997,402.000 438.003,399.000 467.000,396.000 C486.665,396.000 506.335,396.000 526.000,396.000 C535.179,398.359 545.327,408.724 557.000,406.000 C584.997,393.001 613.003,379.999 641.000,367.000 C658.143,363.245 667.309,378.683 683.000,380.000 C689.595,375.522 694.206,372.407 695.000,362.000 C694.667,361.000 694.333,360.000 694.000,359.000 C651.323,340.744 609.300,348.625 579.000,317.000 C579.462,294.573 601.643,285.000 607.000,263.000 C612.942,238.594 598.206,218.344 603.000,191.000 C605.980,174.001 619.106,171.275 623.000,157.000 C624.666,143.001 626.334,128.999 628.000,115.000 C637.983,74.941 657.192,38.319 688.000,19.000 C701.246,10.694 718.429,4.486 736.000,1.000 C750.332,0.667 764.668,0.333 779.000,-0.000 zM747.000,7.000 C735.001,10.000 722.999,13.000 711.000,16.000 C674.821,30.796 653.993,62.607 641.000,101.000 C636.711,113.673 626.900,139.366 634.000,155.000 C635.000,155.000 636.000,155.000 637.000,155.000 C650.830,134.928 666.290,92.251 705.000,99.000 C715.666,102.666 726.334,106.334 737.000,110.000 C737.333,109.000 737.667,108.000 738.000,107.000 C733.029,94.810 725.593,74.376 727.000,60.000 C738.359,64.289 736.027,88.274 742.000,98.000 C751.521,113.503 800.804,152.384 826.000,146.000 C828.000,145.000 830.000,144.000 832.000,143.000 C829.020,84.935 881.909,153.263 889.000,159.000 C893.975,158.445 892.872,159.190 895.000,156.000 C901.133,140.199 887.662,109.238 883.000,97.000 C861.437,40.398 826.849,5.813 747.000,7.000 zM694.000,106.000 C659.106,125.101 663.761,141.029 640.000,165.000 C631.856,173.216 615.923,175.781 612.000,188.000 C604.695,210.752 614.835,245.738 626.000,255.000 C632.999,259.333 640.001,263.667 647.000,268.000 C680.728,312.521 686.630,345.576 757.000,356.000 C808.303,363.599 846.693,323.740 865.000,296.000 C870.333,286.668 875.667,277.332 881.000,268.000 C887.999,263.667 895.001,259.333 902.000,255.000 C914.632,244.373 925.135,211.160 918.000,188.000 C913.672,173.951 893.156,175.306 884.000,166.000 C873.149,154.972 862.973,135.096 844.000,133.000 C841.735,138.679 843.446,143.112 846.000,149.000 C844.506,152.067 844.885,152.215 842.000,154.000 C809.273,169.105 732.953,106.672 694.000,106.000 zM618.000,263.000 C608.672,275.836 591.507,296.751 590.000,315.000 C596.395,324.333 684.271,358.669 698.000,346.000 C686.668,335.334 675.332,324.666 664.000,314.000 C655.667,300.668 647.333,287.332 639.000,274.000 C633.835,268.808 627.524,263.736 618.000,263.000 zM903.000,263.000 C882.735,278.608 873.844,299.249 858.000,319.000 C848.334,327.999 838.666,337.001 829.000,346.000 C829.667,347.000 830.333,348.000 831.000,349.000 C862.738,349.003 926.516,330.121 939.000,312.000 C933.128,295.413 921.903,274.377 910.000,263.000 C907.667,263.000 905.333,263.000 903.000,263.000 zM707.000,360.000 C699.958,368.171 697.211,384.245 685.000,387.000 C678.334,386.667 671.666,386.333 665.000,386.000 C665.000,387.333 665.000,388.667 665.000,390.000 C700.704,434.263 762.400,461.569 825.000,423.000 C839.527,414.049 852.857,404.196 861.000,389.000 C860.000,387.000 859.000,385.000 858.000,383.000 C809.739,383.681 831.134,372.689 809.000,361.000 C799.678,358.708 786.728,362.458 778.000,364.000 C754.336,362.667 730.664,361.333 707.000,360.000 zM546.000,420.000 C534.005,427.313 521.122,432.956 514.000,445.000 C502.500,464.447 503.357,527.241 522.000,536.000 C556.984,545.129 569.590,458.271 561.000,425.000 C556.364,421.782 554.432,420.088 546.000,420.000 z" fill="#607967"></path>
  </symbol>
  <symbol version="1.0" id="globe" xmlns="http://www.w3.org/2000/svg" xmlns:xlink="http://www.w3.org/1999/xlink" enable-background="new 0 0 64 64" xml:space="preserve" viewBox="0 0 64 64">
    <g>
      <path fill="#231F20" d="M33,1.832V16.05c3.678-0.095,7.227-0.706,10.573-1.775C40.982,9.398,37.362,5.155,33,1.832z"></path>
      <path fill="#231F20" d="M46.361,15.408c2.198,4.789,3.476,10.085,3.613,15.667h14c-0.245-7.968-3.396-15.202-8.439-20.675
		C52.73,12.446,49.653,14.141,46.361,15.408z"></path>
      <path fill="#231F20" d="M45.479,13.606c3.095-1.175,5.99-2.748,8.638-4.646c-5.278-5.051-12.278-8.312-20.035-8.811
		C38.809,3.722,42.718,8.313,45.479,13.606z"></path>
      <path fill="#231F20" d="M49.975,33.075c-0.153,6.246-1.736,12.134-4.438,17.354c3.153,1.134,6.117,2.66,8.846,4.508
		c5.71-5.592,9.328-13.303,9.592-21.861H49.975z"></path>
      <path fill="#231F20" d="M47.975,33.075H33v15.025c3.684,0.091,7.244,0.672,10.615,1.693C46.264,44.78,47.818,39.103,47.975,33.075z
		"></path>
      <path fill="#231F20" d="M31,33.075H16.025c0.156,6.027,1.711,11.705,4.359,16.719c3.371-1.021,6.932-1.603,10.615-1.693V33.075z"></path>
      <path fill="#231F20" d="M33,62.318c3.844-2.929,7.113-6.569,9.609-10.731c-3.062-0.889-6.282-1.4-9.609-1.486V62.318z"></path>
      <path fill="#231F20" d="M33,31.075h14.975c-0.139-5.346-1.377-10.416-3.504-14.993C40.847,17.271,36.997,17.951,33,18.05V31.075z"></path>
      <path fill="#231F20" d="M31,18.05c-3.997-0.099-7.848-0.779-11.471-1.968c-2.127,4.577-3.365,9.647-3.504,14.993H31V18.05z"></path>
      <path fill="#231F20" d="M18.521,13.606c2.761-5.293,6.67-9.885,11.397-13.457c-7.757,0.499-14.757,3.76-20.035,8.812
		C12.53,10.859,15.427,12.432,18.521,13.606z"></path>
      <path fill="#231F20" d="M31,62.318V50.101c-3.327,0.086-6.548,0.598-9.609,1.486C23.887,55.749,27.156,59.391,31,62.318z"></path>
      <path fill="#231F20" d="M44.559,52.21c-2.683,4.592-6.251,8.599-10.476,11.79c7.156-0.46,13.668-3.271,18.778-7.671
		C50.293,54.639,47.512,53.244,44.559,52.21z"></path>
      <path fill="#231F20" d="M19.441,52.209c-2.953,1.034-5.734,2.429-8.304,4.119c5.11,4.4,11.623,7.212,18.779,7.672
		C25.692,60.809,22.124,56.802,19.441,52.209z"></path>
      <path fill="#231F20" d="M14.025,33.075h-14c0.264,8.559,3.882,16.27,9.592,21.861c2.729-1.848,5.692-3.374,8.846-4.508
		C15.762,45.209,14.179,39.321,14.025,33.075z"></path>
      <path fill="#231F20" d="M31,1.832c-4.362,3.322-7.982,7.566-10.573,12.442c3.347,1.069,6.896,1.681,10.573,1.775V1.832z"></path>
      <path fill="#231F20" d="M14.025,31.075c0.138-5.582,1.415-10.878,3.613-15.667c-3.292-1.268-6.369-2.962-9.174-5.008
		c-5.043,5.473-8.194,12.707-8.439,20.675H14.025z"></path>
    </g>
  </symbol>
  <symbol version="1.1" xmlns="http://www.w3.org/2000/svg" xmlns:xlink="http://www.w3.org/1999/xlink" viewBox="0 0 1594 429" id="homme">
    <path id="silhouette_homme" d="M0.000,184.000 C2.666,184.333 5.334,184.667 8.000,185.000 C71.492,263.422 210.482,278.962 336.000,260.000 C377.783,253.688 460.824,235.644 501.000,248.000 C533.873,258.110 560.308,295.368 568.000,331.000 C575.411,365.332 565.269,409.313 596.000,420.000 C608.332,412.001 620.668,403.999 633.000,396.000 C665.997,380.335 699.003,364.665 732.000,349.000 C743.484,345.435 751.992,358.514 767.000,353.000 C777.635,349.092 783.297,337.061 781.000,323.000 C767.281,312.191 705.648,238.404 701.000,223.000 C691.084,190.136 711.254,175.264 717.000,154.000 C718.667,137.002 720.334,119.998 722.000,103.000 C735.728,44.560 769.393,12.786 829.000,0.000 C843.862,-3.188 878.248,3.453 890.000,7.000 C971.079,31.469 962.039,75.957 984.000,157.000 C989.172,176.088 1005.300,191.033 997.000,221.000 C986.250,259.813 936.547,293.950 917.000,327.000 C918.141,358.073 940.710,356.920 960.000,348.000 C989.664,361.665 1019.336,375.335 1049.000,389.000 C1086.913,395.999 1144.297,360.984 1171.000,350.000 C1245.795,319.234 1331.319,301.158 1424.000,292.000 C1456.938,288.745 1579.169,290.448 1594.000,309.000 C1592.333,310.666 1590.666,312.333 1589.000,314.000 C1471.080,284.412 1316.859,304.069 1219.000,341.000 C1189.067,352.296 1086.057,404.505 1055.000,400.000 C1024.336,386.335 993.664,372.665 963.000,359.000 C940.899,370.101 930.173,399.731 907.000,413.000 C825.184,459.849 776.367,397.472 737.000,359.000 C701.337,374.998 665.663,391.002 630.000,407.000 C615.155,416.581 611.596,428.808 586.000,429.000 C579.245,414.620 568.820,403.730 564.000,386.000 C563.333,374.334 562.667,362.666 562.000,351.000 C555.534,307.533 540.107,279.094 509.000,261.000 C458.693,231.738 294.839,288.242 226.000,279.000 C144.684,268.083 90.524,261.983 39.000,225.000 C26.001,213.335 12.999,201.666 0.000,190.000 C0.000,188.000 0.000,186.000 0.000,184.000 zM836.000,10.000 C815.318,17.059 794.385,16.840 778.000,27.000 C750.123,44.286 715.716,100.929 727.000,151.000 C728.000,151.333 729.000,151.667 730.000,152.000 C754.330,138.255 750.508,92.666 776.000,77.000 C805.363,90.342 839.727,112.709 881.000,96.000 C892.665,90.001 904.335,83.999 916.000,78.000 C943.879,91.648 940.487,149.332 972.000,154.000 C972.667,153.333 973.333,152.667 974.000,152.000 C975.201,53.445 925.628,14.735 836.000,10.000 zM775.000,89.000 C757.658,100.445 756.982,124.260 748.000,144.000 C740.264,161.003 713.943,165.570 710.000,183.000 C698.160,235.337 722.741,234.072 740.000,256.000 C765.866,288.863 791.016,349.525 857.000,339.000 C918.429,329.202 929.813,292.970 961.000,254.000 C975.178,236.284 998.632,225.320 990.000,187.000 C989.667,186.333 989.333,185.667 989.000,185.000 C988.667,184.333 988.333,183.667 988.000,183.000 C988.000,182.667 988.000,182.333 988.000,182.000 C982.123,165.970 958.855,161.982 949.000,149.000 C942.001,132.002 934.999,114.998 928.000,98.000 C927.000,97.000 926.000,96.000 925.000,95.000 C924.333,94.333 923.667,93.667 923.000,93.000 C922.667,92.333 922.333,91.667 922.000,91.000 C921.333,90.667 920.667,90.333 920.000,90.000 C888.984,91.173 875.535,116.495 836.000,111.000 C811.046,107.531 797.543,91.803 775.000,89.000 zM793.000,333.000 C779.250,348.438 776.858,354.131 756.000,364.000 C755.667,364.667 755.333,365.333 755.000,366.000 C770.068,409.791 844.125,431.771 896.000,409.000 C914.200,401.011 926.907,386.218 940.000,373.000 C939.213,369.288 911.593,337.852 907.000,333.000 C892.335,337.666 877.665,342.334 863.000,347.000 C832.423,351.647 813.968,337.311 793.000,333.000 z" fill="#5a745e"></path>
  </symbol>
  <symbol fill="none" xmlns="http://www.w3.org/2000/svg" viewBox="0 0 24 24" id="info">
    <rect width="24" height="24" fill="white"></rect>
    <circle cx="12" cy="12" r="9" stroke="#000000" stroke-linecap="round" stroke-linejoin="round"></circle>
    <path d="M12 11V17" stroke="#000000" stroke-linecap="round" stroke-linejoin="round"></path>
    <path d="M11.75 8V7H12.25V8H11.75Z" stroke="#000000" stroke-linecap="round" stroke-linejoin="round"></path>
  </symbol>
  <symbol xmlns="http://www.w3.org/2000/svg" viewBox="0 0 32 32" id="insta-round">
    <g fill="none" fill-rule="evenodd">
      <path d="m0 0h32v32h-32z"></path>
      <path d="m17.0830929.03277248c8.1190907 0 14.7619831 6.64289236 14.7619831 14.76198302v2.3064326c0 8.1190906-6.6429288 14.761983-14.7619831 14.761983h-2.3064325c-8.11909069 0-14.76198306-6.6428924-14.76198306-14.761983v-2.3064326c0-8.11909066 6.64289237-14.76198302 14.76198306-14.76198302zm-.8630324 8.0002641-.2053832-.0002641c-1.7102378 0-3.4204757.05652851-3.4204757.05652851-2.4979736 0-4.52299562 2.02501761-4.52299562 4.52298561 0 0-.05191606 1.4685349-.05624239 3.0447858l-.00028625.2060969c0 1.7648596.05652864 3.590089.05652864 3.5900891 0 2.497968 2.02502202 4.5229856 4.52299562 4.5229856 0 0 1.5990132.0565285 3.2508899.0565285 1.7648634 0 3.6466255-.0565285 3.6466255-.0565285 2.4979736 0 4.4664317-1.9684539 4.4664317-4.4664219 0 0 .0565286-1.8046833.0565286-3.5335605l-.0010281-.4057303c-.0076601-1.5511586-.0555357-3.0148084-.0555357-3.0148084 0-2.4979681-1.9684582-4.46642191-4.4664317-4.46642191 0 0-1.6282521-.05209668-3.2716213-.05626441zm-.2053831 1.43969747c1.4024317 0 3.2005639.04637875 3.2005638.04637875 2.0483524 0 3.3130573 1.2647021 3.3130573 3.31305 0 0 .0463789 1.7674322.0463789 3.1541781 0 1.4176885-.0463789 3.2469355-.0463789 3.2469355 0 2.048348-1.2647049 3.31305-3.3130573 3.31305 0 0-1.5901757.0389711-2.9699093.0454662l-.3697206.0009126c-1.3545375 0-3.0049692-.0463788-3.0049692-.0463788-2.0483172 0-3.36958592-1.321301-3.36958592-3.3695785 0 0-.04637885-1.8359078-.04637885-3.2830941 0-1.3545344.04637885-3.061491.04637885-3.061491 0-2.0483479 1.32130402-3.31305 3.36958592-3.31305 0 0 1.7416035-.04637875 3.1440353-.04637875zm-.0000353 2.46195055c-2.2632951 0-4.0980441 1.8347448-4.0980441 4.098035s1.8347489 4.098035 4.0980441 4.098035 4.0980441-1.8347448 4.0980441-4.098035c0-2.2632901-1.8347489-4.098035-4.0980441-4.098035zm0 1.4313625c1.4727754 0 2.6666784 1.1939004 2.6666784 2.6666725s-1.193903 2.6666726-2.6666784 2.6666726c-1.4727401 0-2.6666784-1.1939005-2.6666784-2.6666726s1.1939031-2.6666725 2.6666784-2.6666725zm4.2941322-2.5685935c-.5468547 0-.9902027.4455321-.9902027.9950991 0 .5495671.443348.9950639.9902027.9950639.5468546 0 .9901674-.4454968.9901674-.9950639 0-.5496023-.4433128-.9950991-.9901674-.9950991z" fill="#202327" fill-rule="nonzero"></path>
    </g>
  </symbol>
  <symbol fill="#000000" xmlns="http://www.w3.org/2000/svg" viewBox="0 0 24 24" id="insta-square">
    <path d="M12,9.52A2.48,2.48,0,1,0,14.48,12,2.48,2.48,0,0,0,12,9.52Zm9.93-2.45a6.53,6.53,0,0,0-.42-2.26,4,4,0,0,0-2.32-2.32,6.53,6.53,0,0,0-2.26-.42C15.64,2,15.26,2,12,2s-3.64,0-4.93.07a6.53,6.53,0,0,0-2.26.42A4,4,0,0,0,2.49,4.81a6.53,6.53,0,0,0-.42,2.26C2,8.36,2,8.74,2,12s0,3.64.07,4.93a6.86,6.86,0,0,0,.42,2.27,3.94,3.94,0,0,0,.91,1.4,3.89,3.89,0,0,0,1.41.91,6.53,6.53,0,0,0,2.26.42C8.36,22,8.74,22,12,22s3.64,0,4.93-.07a6.53,6.53,0,0,0,2.26-.42,3.89,3.89,0,0,0,1.41-.91,3.94,3.94,0,0,0,.91-1.4,6.6,6.6,0,0,0,.42-2.27C22,15.64,22,15.26,22,12S22,8.36,21.93,7.07Zm-2.54,8A5.73,5.73,0,0,1,19,16.87,3.86,3.86,0,0,1,16.87,19a5.73,5.73,0,0,1-1.81.35c-.79,0-1,0-3.06,0s-2.27,0-3.06,0A5.73,5.73,0,0,1,7.13,19a3.51,3.51,0,0,1-1.31-.86A3.51,3.51,0,0,1,5,16.87a5.49,5.49,0,0,1-.34-1.81c0-.79,0-1,0-3.06s0-2.27,0-3.06A5.49,5.49,0,0,1,5,7.13a3.51,3.51,0,0,1,.86-1.31A3.59,3.59,0,0,1,7.13,5a5.73,5.73,0,0,1,1.81-.35h0c.79,0,1,0,3.06,0s2.27,0,3.06,0A5.73,5.73,0,0,1,16.87,5a3.51,3.51,0,0,1,1.31.86A3.51,3.51,0,0,1,19,7.13a5.73,5.73,0,0,1,.35,1.81c0,.79,0,1,0,3.06S19.42,14.27,19.39,15.06Zm-1.6-7.44a2.38,2.38,0,0,0-1.41-1.41A4,4,0,0,0,15,6c-.78,0-1,0-3,0s-2.22,0-3,0a4,4,0,0,0-1.38.26A2.38,2.38,0,0,0,6.21,7.62,4.27,4.27,0,0,0,6,9c0,.78,0,1,0,3s0,2.22,0,3a4.27,4.27,0,0,0,.26,1.38,2.38,2.38,0,0,0,1.41,1.41A4.27,4.27,0,0,0,9,18.05H9c.78,0,1,0,3,0s2.22,0,3,0a4,4,0,0,0,1.38-.26,2.38,2.38,0,0,0,1.41-1.41A4,4,0,0,0,18.05,15c0-.78,0-1,0-3s0-2.22,0-3A3.78,3.78,0,0,0,17.79,7.62ZM12,15.82A3.81,3.81,0,0,1,8.19,12h0A3.82,3.82,0,1,1,12,15.82Zm4-6.89a.9.9,0,0,1,0-1.79h0a.9.9,0,0,1,0,1.79Z"></path>
  </symbol>
  <symbol id="menu" enable-background="new 0 0 24 24" xmlns="http://www.w3.org/2000/svg" viewBox="0 0 24 24">
    <g>
      <path d="m21.5 24h-19c-1.379 0-2.5-1.122-2.5-2.5v-19c0-1.378 1.121-2.5 2.5-2.5h19c1.379 0 2.5 1.122 2.5 2.5v19c0 1.378-1.121 2.5-2.5 2.5zm-19-23c-.827 0-1.5.673-1.5 1.5v19c0 .827.673 1.5 1.5 1.5h19c.827 0 1.5-.673 1.5-1.5v-19c0-.827-.673-1.5-1.5-1.5z" fill="white"></path>
    </g>
    <g>
      <path d="m16.5 8h-9c-.276 0-.5-.224-.5-.5s.224-.5.5-.5h9c.276 0 .5.224.5.5s-.224.5-.5.5z" fill="white"></path>
    </g>
    <g>
      <path d="m16.5 12.5h-9c-.276 0-.5-.224-.5-.5s.224-.5.5-.5h9c.276 0 .5.224.5.5s-.224.5-.5.5z" fill="white"></path>
    </g>
    <g>
      <path d="m16.5 17h-9c-.276 0-.5-.224-.5-.5s.224-.5.5-.5h9c.276 0 .5.224.5.5s-.224.5-.5.5z" fill="white"></path>
    </g>
  </symbol>
  <symbol version="1.1" xmlns="http://www.w3.org/2000/svg" xmlns:xlink="http://www.w3.org/1999/xlink" viewBox="0 0 925 534" id="message">
    <path id="Calque-6" d="M925.000,465.000 C925.000,467.666 925.000,470.334 925.000,473.000 C845.450,475.498 794.938,520.675 725.000,534.000 C711.388,536.593 692.747,533.426 682.000,532.000 C671.635,530.625 656.346,536.426 643.000,534.000 C625.534,530.825 608.588,527.301 594.000,521.000 C581.335,514.001 568.665,506.999 556.000,500.000 C546.334,501.000 536.666,502.000 527.000,503.000 C504.340,506.823 473.647,505.817 452.000,502.000 C358.235,485.467 301.577,449.590 257.000,385.000 C242.001,390.333 226.998,395.667 212.000,401.000 C190.669,402.000 169.331,403.000 148.000,404.000 C106.765,411.010 43.388,422.772 -0.000,410.000 C-0.000,407.334 -0.000,404.666 -0.000,402.000 C61.623,411.739 175.562,408.912 188.000,358.000 C192.143,341.041 177.980,331.900 172.000,324.000 C154.675,301.110 134.469,280.728 123.000,252.000 C72.223,124.815 172.723,34.792 262.000,8.000 C326.860,-11.465 407.350,4.488 451.000,30.000 C466.665,39.666 482.335,49.334 498.000,59.000 C510.332,59.000 522.668,59.000 535.000,59.000 C563.617,63.696 589.534,66.037 614.000,74.000 C715.068,106.894 833.281,242.808 754.000,377.000 C738.330,403.523 716.722,427.489 692.000,445.000 C682.334,450.999 672.666,457.001 663.000,463.000 C673.406,485.992 686.004,513.475 705.000,528.000 C739.991,526.516 763.702,513.781 789.000,503.000 C828.566,486.139 874.770,468.554 925.000,465.000 zM311.000,6.000 C287.981,15.044 262.783,13.777 242.000,22.000 C174.836,48.573 131.622,93.961 118.000,175.000 C108.171,233.471 144.103,277.180 167.000,306.000 C176.549,318.020 201.195,334.412 195.000,360.000 C191.045,376.336 176.838,384.420 168.000,396.000 C193.521,395.969 214.003,395.037 232.000,388.000 C237.651,385.790 252.257,374.186 261.000,378.000 C272.999,392.999 285.001,408.002 297.000,423.000 C324.345,448.939 358.731,471.376 399.000,484.000 C430.146,493.764 464.025,497.083 505.000,497.000 C523.665,496.000 542.335,495.000 561.000,494.000 C582.483,499.393 626.498,539.766 660.000,527.000 C633.605,523.505 607.123,516.537 588.000,505.000 C579.001,499.001 569.999,492.999 561.000,487.000 C551.334,488.333 541.666,489.667 532.000,491.000 C511.669,490.333 491.331,489.667 471.000,489.000 C385.038,473.599 320.734,444.939 279.000,386.000 C267.841,370.241 258.221,349.957 252.000,330.000 C203.948,175.844 348.671,59.589 483.000,60.000 C482.667,59.333 482.333,58.667 482.000,58.000 C467.668,49.001 453.332,39.999 439.000,31.000 C404.462,12.258 364.920,6.131 311.000,6.000 zM494.000,65.000 C478.002,66.666 461.998,68.334 446.000,70.000 C405.223,78.871 368.219,91.368 339.000,112.000 C302.665,137.656 272.397,174.652 258.000,222.000 C230.427,312.682 281.001,392.274 331.000,429.000 C370.709,458.167 418.384,472.932 478.000,483.000 C496.998,483.333 516.002,483.667 535.000,484.000 C545.332,483.000 555.668,482.000 566.000,481.000 C583.097,486.351 597.891,502.976 616.000,510.000 C641.664,515.666 667.336,521.334 693.000,527.000 C681.002,506.278 657.983,487.954 655.000,459.000 C667.332,451.334 679.668,443.666 692.000,436.000 C719.858,415.662 746.230,383.944 759.000,349.000 C778.461,295.748 767.351,228.908 744.000,189.000 C697.426,109.403 620.575,64.820 494.000,65.000 z" fill="white"></path>
  </symbol>
  <symbol version="1.1" xmlns="http://www.w3.org/2000/svg" viewBox="0 0 556 496" id="ph">
    <path d="M0 0 C2.67505993 2.67505993 4.74200426 5.13006393 5 9 C4.34 9.99 3.68 10.98 3 12 C1.38544922 12.26490234 1.38544922 12.26490234 -0.26171875 12.53515625 C-2.92454272 13.21342923 -3.83905862 13.78976679 -5.53369141 16.00341797 C-7.07483275 18.77007068 -8.46109068 21.57331906 -9.8125 24.4375 C-10.86010455 26.55106513 -11.90828957 28.66434263 -12.95703125 30.77734375 C-13.47088379 31.8329248 -13.98473633 32.88850586 -14.51416016 33.97607422 C-16.58874894 38.19819986 -18.78734852 42.34909272 -21 46.5 C-23.63989233 51.49748863 -26.26440362 56.50260882 -28.8671875 61.51953125 C-33.76471725 70.95623492 -38.70418953 80.36291458 -43.8125 89.6875 C-56.57056388 112.98900471 -68.91328891 136.47051945 -80.98377991 160.13394165 C-84.10296146 166.24806161 -87.23443042 172.35577061 -90.37109375 178.4609375 C-101.17984796 199.51221303 -111.87351879 220.62039862 -122.47816849 241.77511215 C-123.4235939 243.65977877 -124.37049263 245.54369782 -125.31784058 247.42739868 C-132.21471077 261.14572674 -138.96156841 274.87944904 -145 289 C-140.21313297 284.87585579 -135.51523731 280.66345036 -130.875 276.375 C-130.32521484 275.86710937 -129.77542969 275.35921875 -129.20898438 274.8359375 C-126.26199631 272.10837008 -123.32630348 269.36942889 -120.40234375 266.6171875 C-113.82038399 260.43291574 -107.20654668 254.46014266 -100 249 C-99.17894775 248.36215576 -99.17894775 248.36215576 -98.34130859 247.71142578 C-76.83183074 231.02595789 -76.83183074 231.02595789 -66.625 230.25 C-59.25085972 231.7756842 -54.23123684 235.90204103 -50 242 C-47.61041187 247.4561298 -47.6720663 252.69210656 -47.62109375 258.54296875 C-47.60409927 259.54838211 -47.5871048 260.55379547 -47.56959534 261.5896759 C-47.51664353 264.78888747 -47.47623847 267.98808726 -47.4375 271.1875 C-47.39353974 274.39756011 -47.34684385 277.60752136 -47.29469299 280.81745911 C-47.26279006 282.81175784 -47.23588319 284.80614402 -47.21446228 286.80058289 C-47.20097244 287.70194473 -47.1874826 288.60330658 -47.17358398 289.53198242 C-47.16407211 290.32440842 -47.15456024 291.11683441 -47.14476013 291.93327332 C-47.07236715 294.19817936 -47.07236715 294.19817936 -46 297 C-36.22127623 292.95687383 -28.27461969 286.44206671 -20 280 C-18.78416824 279.06469575 -17.56803582 278.12978217 -16.3515625 277.1953125 C-6.15133442 269.31486874 3.64717091 260.97867571 13.1875 252.3125 C14.36505859 251.25869141 14.36505859 251.25869141 15.56640625 250.18359375 C17.31968532 248.61042682 19.05454644 247.01664656 20.77734375 245.41015625 C27.6757403 239.26878538 27.6757403 239.26878538 31.3671875 238.51953125 C33.5 238.6875 33.5 238.6875 37 240 C38.71875 242.08203125 38.71875 242.08203125 40 244 C32.07312426 253.44191001 23.50401464 262.02783603 13.85546875 269.703125 C11.35905789 271.71118189 8.93198705 273.77976201 6.51586914 275.88305664 C-4.53057397 285.44980606 -16.4478347 293.91225756 -28.8125 301.6875 C-29.46387939 302.09750244 -30.11525879 302.50750488 -30.78637695 302.92993164 C-37.24841856 306.90938099 -42.39330782 309.06171145 -50 308 C-55.4393432 305.43427208 -57.474523 302.23802637 -60 297 C-60.89406825 294.07292898 -61.16763911 291.34776124 -61.28125 288.29492188 C-61.33635742 286.9032782 -61.33635742 286.9032782 -61.39257812 285.48352051 C-61.44575195 283.99120911 -61.44575195 283.99120911 -61.5 282.46875 C-61.54060547 281.44068237 -61.58121094 280.41261475 -61.62304688 279.35339355 C-61.79657235 274.95669191 -61.96031203 270.55963775 -62.125 266.16259766 C-62.24663843 262.95200838 -62.37319964 259.74163887 -62.5 256.53125 C-62.55317383 255.0389386 -62.55317383 255.0389386 -62.60742188 253.51647949 C-62.6625293 252.12483582 -62.6625293 252.12483582 -62.71875 250.70507812 C-62.74904297 249.89107544 -62.77933594 249.07707275 -62.81054688 248.23840332 C-62.99489139 246.06035866 -63.40616626 244.0999055 -64 242 C-81.42168906 245.09718917 -100.17943423 266.95317921 -112.25561523 279.2878418 C-113.99048164 280.99065749 -115.78739317 282.56735522 -117.63671875 284.14453125 C-122.31245054 288.21341502 -126.69229117 292.54505092 -131.0625 296.9375 C-131.82626953 297.69740234 -132.59003906 298.45730469 -133.37695312 299.24023438 C-137.57801758 303.44848628 -141.59483449 307.7503559 -145.47436523 312.25610352 C-147.38649614 314.4417894 -149.4161588 316.47836302 -151.5 318.5 C-154.43814706 321.37329832 -157.10400084 324.30627035 -159.6875 327.5 C-161.82383209 329.94502227 -162.9134928 330.96134785 -165.9375 332.3125 C-170.41656202 331.85545286 -173.42527296 329.62207136 -177 327 C-176.38819427 323.46012596 -175.451352 320.36292448 -174.05859375 317.0546875 C-173.64810791 316.07822266 -173.23762207 315.10175781 -172.81469727 314.09570312 C-172.36022217 313.03287109 -171.90574707 311.97003906 -171.4375 310.875 C-170.95788818 309.74771484 -170.47827637 308.62042969 -169.98413086 307.45898438 C-163.88778851 293.24982458 -157.40641601 279.21438184 -150.92626953 265.17724609 C-149.13934322 261.30544247 -147.36341086 257.4287227 -145.58984375 253.55078125 C-140.26351678 241.92251297 -134.8097478 230.39460214 -129 219 C-127.32892207 215.66886628 -125.66365004 212.33484877 -124 209 C-124.96897217 209.32162109 -125.93794434 209.64324219 -126.9362793 209.97460938 C-147.07322076 216.64422937 -167.20965707 222.96750502 -187.72192383 228.39465332 C-191.29766038 229.34482359 -194.87015744 230.30699462 -198.44299316 231.26800537 C-203.54453006 232.63998402 -208.64718559 234.00778163 -213.75 235.375 C-214.73983887 235.64038574 -215.72967773 235.90577148 -216.74951172 236.17919922 C-219.59806067 236.94194098 -222.44734278 237.7018784 -225.296875 238.4609375 C-226.14264099 238.68768158 -226.98840698 238.91442566 -227.85980225 239.14804077 C-232.63247408 240.41597325 -237.39233991 241.5279651 -242.24763489 242.43623352 C-244.2508985 242.86462374 -244.2508985 242.86462374 -245.27734375 245.20703125 C-245.51582031 246.12871094 -245.75429687 247.05039063 -246 248 C-247.47583551 250.28489468 -248.96867457 252.48908888 -250.5625 254.6875 C-251.00940186 255.30616943 -251.45630371 255.92483887 -251.91674805 256.56225586 C-255.9366372 262.0470259 -260.2807852 267.1012905 -265 272 C-265.47808105 272.5038623 -265.95616211 273.00772461 -266.44873047 273.52685547 C-276.75073472 284.34899878 -287.74802411 293.90708002 -301 301 C-301.74765625 301.40089844 -302.4953125 301.80179687 -303.265625 302.21484375 C-309.21031012 305.13522228 -315.69855655 307.25859791 -322.26953125 305.3359375 C-327.2838451 303.04740094 -330.50948743 299.98102514 -333 295 C-333.06076338 288.92366159 -331.88743484 284.76210768 -328 280 C-327.41476562 279.27296875 -326.82953125 278.5459375 -326.2265625 277.796875 C-311.45801159 260.33814195 -289.94816441 247.6069689 -269.76171875 237.35546875 C-268.80910156 236.86691406 -267.85648438 236.37835938 -266.875 235.875 C-266.06804687 235.48054687 -265.26109375 235.08609375 -264.4296875 234.6796875 C-257.40833129 229.82569527 -254.1284749 222.86452558 -250.875 215.1875 C-250.44268066 214.17139648 -250.01036133 213.15529297 -249.56494141 212.10839844 C-244.49955364 199.82738602 -241.74100131 188.16894341 -241.5 174.875 C-241.48114746 174.10510742 -241.46229492 173.33521484 -241.44287109 172.54199219 C-241.50679808 167.01532295 -242.85261408 162.59115432 -246 158 C-246.66 157.67 -247.32 157.34 -248 157 C-264.91357645 165.17143647 -279.01727413 179.88269948 -291 194 C-292.23363281 195.43472656 -292.23363281 195.43472656 -293.4921875 196.8984375 C-299.75595791 204.20974035 -305.78207983 211.68312692 -311.67675781 219.29443359 C-312.94274525 220.92620264 -314.21650464 222.5515871 -315.4921875 224.17578125 C-322.29829845 232.90630376 -328.71557269 241.88787995 -335 251 C-335.50321777 251.72880371 -336.00643555 252.45760742 -336.52490234 253.20849609 C-343.80112541 263.79868889 -350.51731574 274.6294242 -356.79199219 285.84228516 C-357.5371103 287.17319742 -358.28680514 288.50157363 -359.04394531 289.82568359 C-369.89181696 308.80121591 -377.99607021 329.44025121 -386.38153076 349.59341431 C-391.5099212 361.91649212 -396.87918892 374.12050514 -402.34423828 386.29833984 C-404.15748826 390.34565348 -405.95218814 394.40111473 -407.74609375 398.45703125 C-419.45763728 424.92615533 -431.28450421 451.34270486 -443.8125 477.4375 C-444.10763489 478.05527313 -444.40276978 478.67304626 -444.70684814 479.30953979 C-445.53535079 481.04074066 -446.37102431 482.76850426 -447.20703125 484.49609375 C-447.6760083 485.46732178 -448.14498535 486.4385498 -448.62817383 487.43920898 C-449.92332624 489.85687292 -451.18435508 491.9445585 -453 494 C-455.75 494.625 -455.75 494.625 -459 494 C-463.06566155 491.37426025 -466.14839739 488.52004305 -468 484 C-466.86893777 475.57315467 -463.36731709 467.82737789 -460.1875 460 C-459.89087463 459.26378418 -459.59424927 458.52756836 -459.28863525 457.76904297 C-446.57565159 426.22928091 -433.03851541 394.97147883 -419 364 C-418.70134033 363.34036255 -418.40268066 362.6807251 -418.0949707 362.00109863 C-408.35787036 340.49884907 -398.59826702 319.00163121 -387.9375 297.9375 C-381.00987787 284.19605651 -374.68638678 270.21595819 -369.31152344 255.79443359 C-358.59084995 227.0644958 -346.76499739 198.71907597 -334.0625 170.8125 C-333.40761597 169.36967651 -333.40761597 169.36967651 -332.73950195 167.89770508 C-324.99717282 151.07167971 -324.99717282 151.07167971 -321 148 C-315.35791839 148.64745199 -312.06998847 150.2601405 -307.93359375 154.07421875 C-306.43126937 157.17315565 -307.35342872 159.67829852 -308 163 C-308.89915783 165.35795258 -309.88891234 167.68263977 -310.94921875 169.97265625 C-311.24431839 170.61762558 -311.53941803 171.26259491 -311.84346008 171.92710876 C-312.78299264 173.97627191 -313.73467599 176.01948833 -314.6875 178.0625 C-315.92364781 180.73947299 -317.15503679 183.41862626 -318.38671875 186.09765625 C-318.6883493 186.75118073 -318.98997986 187.4047052 -319.30075073 188.07803345 C-322.33042507 194.66387017 -325.18273456 201.32080651 -328 208 C-325.07911503 205.12855305 -322.27762172 202.25390379 -319.6953125 199.07421875 C-319.11136719 198.35943359 -318.52742187 197.64464844 -317.92578125 196.90820312 C-317.33152344 196.17537109 -316.73726562 195.44253906 -316.125 194.6875 C-311.52137719 189.02656162 -306.83033411 183.46882655 -302 178 C-300.87851562 176.70449219 -300.87851562 176.70449219 -299.734375 175.3828125 C-289.19207446 163.38783275 -274.56266488 147.96193642 -258 145 C-255.71130596 144.85661194 -253.41799044 144.77958697 -251.125 144.75 C-249.93132812 144.72421875 -248.73765625 144.6984375 -247.5078125 144.671875 C-241.3547373 145.24744105 -236.15022287 148.45824667 -232 153 C-222.75371435 167.00952371 -222.49018762 181.87250476 -225.6875 197.9375 C-227.53493474 206.81575815 -230.0767713 215.42200104 -233 224 C-197.72020988 216.25962161 -163.12765241 205.85033318 -129.5 192.625 C-128.354104 192.17918579 -128.354104 192.17918579 -127.18505859 191.72436523 C-122.69172844 189.90350202 -118.74879473 187.70391305 -114.74414062 184.96630859 C-113 184 -113 184 -110 184 C-109.74653809 183.16404297 -109.49307617 182.32808594 -109.23193359 181.46679688 C-107.87531074 177.64911069 -106.15207004 174.11783973 -104.2890625 170.53125 C-103.74295822 169.46837769 -103.74295822 169.46837769 -103.18582153 168.3840332 C-102.00352545 166.08692562 -100.81458527 163.79334015 -99.625 161.5 C-98.80103733 159.90433273 -97.97714457 158.30862936 -97.15332031 156.71289062 C-92.33109187 147.39200627 -87.4140707 138.13106811 -82.33837891 128.9453125 C-78.43378154 121.8602382 -74.70460694 114.69138461 -71 107.5 C-65.3371379 96.51488167 -59.48925123 85.64714808 -53.54052734 74.81494141 C-50.77599369 69.76342429 -48.0433143 64.69480437 -45.3125 59.625 C-44.74007568 58.5632959 -44.16765137 57.5015918 -43.57788086 56.40771484 C-40.21631461 50.16013222 -36.88524351 43.89761467 -33.578125 37.62109375 C-32.81995781 36.18470552 -32.0617385 34.74834479 -31.3034668 33.31201172 C-29.84655313 30.55203635 -28.39579088 27.7889495 -26.94848633 25.02392578 C-11.4617764 -4.42384352 -11.4617764 -4.42384352 0 0 Z M-290 269 C-293.3 271.97 -296.6 274.94 -300 278 C-296.03869629 278 -295.17085599 276.65122875 -292.3125 274 C-291.50425781 273.2575 -290.69601562 272.515 -289.86328125 271.75 C-289.24839844 271.1725 -288.63351562 270.595 -288 270 C-288.66 269.67 -289.32 269.34 -290 269 Z " fill="#FBFBFB" transform="translate(468,2)"></path>
    <path d="M0 0 C3.9788178 4.45248659 6 9.25420364 6 15.25 C3.91347608 23.07446471 -0.33986209 29.411905 -7 34 C-10.65288193 35.21762731 -13.15754136 35.39075851 -17 35 C-19.9375 32.75 -19.9375 32.75 -21.3984375 31.36328125 C-23.18766156 29.84025882 -24.93923821 28.93551256 -27.0625 27.9375 C-32.3462299 25.4166365 -36.74232801 22.58476756 -39 17 C-39.6887615 10.82945175 -39.78752506 5.17628425 -36 0 C-24.95092032 -8.83926374 -11.74094016 -6.80316159 0 0 Z " fill="#FBFBFB" transform="translate(550,296)"></path>
  </symbol>
  <symbol version="1.1" xmlns="http://www.w3.org/2000/svg" xmlns:xlink="http://www.w3.org/1999/xlink" viewBox="0 0 925 252" id="rouleau">
    <path id="Calque-7" d="M814.000,-0.000 C822.666,0.333 831.334,0.667 840.000,1.000 C856.004,7.356 865.583,37.334 851.000,53.000 C834.152,71.098 797.543,61.941 774.000,74.000 C757.942,82.225 744.022,115.588 728.000,126.000 C702.669,132.999 677.331,140.001 652.000,147.000 C584.007,164.998 515.993,183.002 448.000,201.000 C448.000,201.333 448.000,201.667 448.000,202.000 C448.667,202.000 449.333,202.000 450.000,202.000 C494.377,235.882 622.458,225.992 701.000,226.000 C731.298,226.003 769.580,230.128 795.000,223.000 C819.251,216.199 839.224,201.670 859.000,190.000 C879.550,177.874 901.886,169.209 925.000,160.000 C924.667,163.000 924.333,166.000 924.000,169.000 C871.727,177.961 840.907,221.784 788.000,232.000 C754.670,232.000 721.330,232.000 688.000,232.000 C629.482,232.002 558.882,239.341 507.000,228.000 C491.668,223.667 476.332,219.333 461.000,215.000 C453.334,211.000 445.666,207.000 438.000,203.000 C391.671,214.665 345.329,226.335 299.000,238.000 C284.481,242.017 241.189,256.795 225.000,252.000 C209.660,247.457 183.433,231.874 163.000,234.000 C130.968,237.333 96.120,271.763 67.000,237.000 C66.667,237.000 66.333,237.000 66.000,237.000 C64.640,244.071 60.857,248.465 56.000,252.000 C18.917,251.469 32.024,201.109 23.000,172.000 C18.372,157.072 8.218,148.933 -0.000,138.000 C0.333,135.334 0.667,132.666 1.000,130.000 C2.333,131.333 3.667,132.667 5.000,134.000 C42.827,154.791 19.169,224.922 52.000,245.000 C53.000,244.667 54.000,244.333 55.000,244.000 C63.671,231.360 60.385,205.827 72.000,196.000 C92.107,178.987 133.945,187.014 157.000,172.000 C175.946,159.662 191.332,134.251 213.000,125.000 C367.651,84.671 522.349,44.329 677.000,4.000 C708.117,-3.548 730.595,21.529 755.000,26.000 C769.247,28.610 803.671,6.286 814.000,-0.000 zM822.000,5.000 C797.661,16.322 781.657,25.235 754.000,33.000 C759.190,44.212 759.859,60.145 766.000,73.000 C785.542,62.079 825.967,64.761 844.000,51.000 C864.985,34.986 847.821,4.839 822.000,5.000 zM687.000,8.000 C671.002,12.000 654.998,16.000 639.000,20.000 C567.086,41.336 493.455,48.177 443.000,92.000 C404.435,125.496 397.992,160.651 439.000,196.000 C462.331,190.001 485.669,183.999 509.000,178.000 C554.995,166.001 601.005,153.999 647.000,142.000 C673.331,134.667 699.669,127.333 726.000,120.000 C751.670,99.116 722.868,24.845 708.000,14.000 C702.853,10.245 695.099,8.651 687.000,8.000 zM723.000,20.000 C725.459,34.187 735.171,46.734 739.000,62.000 C740.000,74.999 741.000,88.001 742.000,101.000 C770.941,78.307 757.706,28.675 723.000,20.000 zM463.000,66.000 C398.007,83.332 332.993,100.668 268.000,118.000 C230.493,128.515 184.445,127.015 195.000,185.000 C198.306,203.164 205.981,232.947 219.000,242.000 C236.744,254.338 330.746,223.893 354.000,217.000 C367.910,212.877 427.791,203.088 430.000,196.000 C383.391,169.757 408.849,112.832 437.000,88.000 C443.263,82.475 463.194,70.431 463.000,66.000 zM189.000,151.000 C162.290,171.545 155.668,196.685 177.000,230.000 C186.543,232.689 195.008,237.005 206.000,236.000 C206.000,235.667 206.000,235.333 206.000,235.000 C198.016,218.274 191.458,201.047 188.000,179.000 C188.333,169.668 188.667,160.332 189.000,151.000 zM155.000,179.000 C136.014,196.798 84.368,199.184 69.000,214.000 C67.436,271.104 139.135,234.298 168.000,228.000 C168.000,227.667 168.000,227.333 168.000,227.000 C161.250,213.314 157.957,198.847 159.000,179.000 C157.667,179.000 156.333,179.000 155.000,179.000 zM111.000,187.000 C95.606,193.066 83.142,192.311 74.000,204.000 C75.000,204.000 76.000,204.000 77.000,204.000 C91.102,199.011 113.537,196.376 124.000,187.000 C119.667,187.000 115.333,187.000 111.000,187.000 z" fill="white"></path>
  </symbol>
  <symbol version="1.0" xmlns="http://www.w3.org/2000/svg" preserveAspectRatio="xMidYMid meet" viewBox="0 0 300.000000 204.000000" id="virgule-verticale">
    <metadata>Created by potrace 1.10, written by Peter Selinger 2001-2011</metadata>
    <g transform="translate(0.000000,204.000000) scale(0.100000,-0.100000)" fill="#ddb859" stroke="none">
      <path d="M215 1934 c-112 -17 -216 -44 -210 -54 3 -4 26 -2 52 6 99 30 234 45
391 43 243 -2 442 -32 865 -131 l177 -42 0 -863 c0 -569 3 -863 10 -863 7 0
10 293 10 860 0 473 2 860 4 860 2 0 51 -11 108 -24 306 -72 493 -96 723 -92
167 3 203 7 295 31 142 36 350 135 350 165 0 5 -17 -2 -37 -16 -257 -176 -625
-212 -1143 -113 -58 11 -247 54 -420 94 -518 121 -666 145 -915 150 -109 2
-202 -2 -260 -11z"></path>
    </g>
  </symbol>
  <symbol version="1.0" xmlns="http://www.w3.org/2000/svg" preserveAspectRatio="xMidYMid meet" viewBox="0 0 300.000000 31.000000" id="virgule">
    <g transform="translate(0.000000,31.000000) scale(0.050000,-0.050000)" fill="#ddb859" stroke="none">
      <path d="M441 600 c-246 -35 -441 -85 -441 -113 0 -32 27 -34 120 -7 552 162 1222 112 2600 -191 1536 -338 2185 -375 2807 -158 159 56 425 185 456 222 50 61 -12 58 -117 -5 -645 -388 -1359 -394 -3016 -25 -1203 267 -1902 348 -2409 277z"></path>
    </g>
  </symbol>
</svg>